<svg xmlns="http://www.w3.org/2000/svg" viewBox="0 0 200 200" id="Done--Streamline-Barcelona">
  <desc>
    Done Streamline Illustration: https://streamlinehq.com
  </desc>
  <defs></defs>
  <path d="M116.891 158.071A6.563 6.563 0 0 0 119.65 161a5.748 5.748 0 0 0 2.4 0.623 53.592 53.592 0 0 0 -0.565 -2.267 28.037 28.037 0 0 0 -2.422 -6.264c-0.645 -1.161 -1.286 -2.319 -2 -3.428l-1.423 0.99c0.039 2.517 0.104 5.16 1.251 7.417z" fill="#fee992" stroke-width="1"></path>
  <path d="M120.405 154.335a35.909 35.909 0 0 1 2.074 6.3c0.08 0.328 0.152 0.657 0.227 0.986a5.725 5.725 0 0 0 1 -0.158c2.754 -0.7 4.394 -3.355 5.032 -5.958a32.8 32.8 0 0 0 0.513 -8.427 158.538 158.538 0 0 0 -0.226 -5.725l-11.425 7.942c0.452 0.693 0.872 1.407 1.274 2.131 0.526 0.959 1.078 1.909 1.531 2.909z" fill="#fee992" stroke-width="1"></path>
  <path d="M129.024 141.35c0.107 1.907 0.188 3.816 0.226 5.725a32.8 32.8 0 0 1 -0.513 8.427c-0.638 2.6 -2.278 5.26 -5.032 5.958a5.725 5.725 0 0 1 -1 0.158c0.047 0.209 0.1 0.418 0.144 0.627a7.265 7.265 0 0 0 5.724 -4.364c1.287 -2.7 1.339 -5.818 1.338 -8.752 0 -2.652 -0.1 -5.306 -0.249 -7.954l-0.016 -0.258zm-6.971 20.275a5.748 5.748 0 0 1 -2.4 -0.623 6.563 6.563 0 0 1 -2.759 -2.931c-1.147 -2.257 -1.212 -4.9 -1.252 -7.415l-0.624 0.434a17.933 17.933 0 0 0 1.088 6.8 7.777 7.777 0 0 0 2.422 3.161 6.338 6.338 0 0 0 3.673 1.21c-0.049 -0.213 -0.101 -0.424 -0.148 -0.636z" fill="#000000" stroke-width="1"></path>
  <path d="M92.5 169.159a11.091 11.091 0 0 0 0.635 3.888 4.688 4.688 0 0 0 2.86 2.77 11.6 11.6 0 0 0 4.447 0.48 6.134 6.134 0 0 0 3.945 -1.846 11.072 11.072 0 0 0 2.339 -3.744 18.708 18.708 0 0 0 1 -7.963c-0.123 -2.059 -0.365 -4.11 -0.642 -6.155q-6.8 4.714 -13.618 9.4c-0.328 0.225 -0.655 0.453 -0.982 0.679 -0.021 0.832 -0.012 1.664 0.016 2.491z" fill="#fee992" stroke-width="1"></path>
  <path d="M107.089 156.589c0.277 2.045 0.519 4.1 0.642 6.155a18.708 18.708 0 0 1 -1 7.963 11.072 11.072 0 0 1 -2.339 3.744 6.129 6.129 0 0 1 -3.945 1.846 11.6 11.6 0 0 1 -4.447 -0.48 4.688 4.688 0 0 1 -2.86 -2.77 11.091 11.091 0 0 1 -0.635 -3.888c-0.031 -0.827 -0.04 -1.66 -0.014 -2.491l-0.642 0.443c-0.009 0.58 -0.009 1.161 0.008 1.741a15.115 15.115 0 0 0 0.393 3.558 6.042 6.042 0 0 0 2.166 3.326 8.367 8.367 0 0 0 4.3 1.2 8.271 8.271 0 0 0 4.375 -0.712 8.42 8.42 0 0 0 3.176 -3.156c3.065 -4.922 2.2 -11 1.469 -16.439 -0.019 -0.148 -0.041 -0.3 -0.061 -0.443zm13.944 11.766 2.226 0.233q-0.166 -1.355 -0.38 -2.7a24.865 24.865 0 0 0 -3.457 2.3z" fill="#000000" stroke-width="1"></path>
  <path d="m123.259 168.588 -2.226 -0.233 -1.611 -0.168a24.865 24.865 0 0 1 3.457 -2.3c-0.012 -0.074 -0.019 -0.147 -0.031 -0.221 -0.023 -0.143 -0.051 -0.287 -0.075 -0.431 -0.428 0.218 -0.85 0.451 -1.261 0.707a34.333 34.333 0 0 0 -3.131 2.254c-0.243 0.191 -0.014 0.52 0.226 0.545l4.732 0.5c-0.025 -0.222 -0.053 -0.441 -0.08 -0.653zm10.954 -3.765a13.052 13.052 0 0 0 -10.845 0.126c0.036 0.212 0.074 0.423 0.109 0.635q0.12 0.739 0.226 1.483c0.075 0.528 0.127 1.058 0.192 1.587 0.026 0.216 0.053 0.431 0.078 0.647l1.312 0.137 10.634 1.111 2.426 0.254a0.322 0.322 0 0 0 0.319 -0.319c-0.002 -2.646 -2.196 -4.651 -4.451 -5.661zM111.5 179.727c-3.975 -1.993 -8.6 -1.3 -12.483 0.554a27.253 27.253 0 0 0 -3.292 1.891c-0.21 0.139 -0.212 0.528 0.076 0.583l6.837 1.313 10.851 2.085 2.491 0.478a0.324 0.324 0 0 0 0.393 -0.238 0.334 0.334 0 0 0 0 -0.154 8.994 8.994 0 0 0 -4.873 -6.512z" fill="#000000" stroke-width="1"></path>
  <path d="M109.267 94.337c-0.082 0 -0.129 0.08 -0.159 0.172l0.257 -0.121a0.145 0.145 0 0 0 -0.098 -0.051zm-32.646 5.64a21.785 21.785 0 0 0 5.445 1.77 11.242 11.242 0 0 0 3.048 0.38c0.863 -0.053 1.646 -0.446 2.5 -0.562a1.64 1.64 0 0 1 1.78 0.751 1.723 1.723 0 0 1 -0.058 1.592c4.681 -2.181 9.341 -4.407 14 -6.632q1.168 -0.558 2.336 -1.119a36.808 36.808 0 0 0 -0.337 -4.739 16.766 16.766 0 0 0 -5.03 -9.254l-0.017 -0.026a0.23 0.23 0 0 1 -0.033 -0.021 16.728 16.728 0 0 0 -1.347 -1.1c-0.29 0.188 -0.645 0.329 -0.941 0.485l-0.19 0.1L85.783 88l-12.814 6.83 -1.134 0.605c0.064 0.109 0.127 0.219 0.2 0.326 0 0.006 0 0.014 0.007 0.021l0.032 0.036a12.318 12.318 0 0 0 4.547 4.159z" fill="#ffd2d2" stroke-width="1"></path>
  <path d="m150.011 99.662 1.172 -0.08c0.411 -0.027 0.408 0.611 0 0.639l-1.328 0.09a286.023 286.023 0 0 1 -1.119 4.539c1.06 0.03 2.09 0.065 3.039 0.094 0.268 3.813 0.5 7.113 0.5 10.506 -3.575 0.532 -6.218 -0.045 -11.191 0.266a106.7 106.7 0 0 1 -0.38 -10.832c0.629 -0.041 1.3 -0.064 1.984 -0.081a32.9 32.9 0 0 0 -0.5 -4.268c-0.064 -0.387 -0.132 -0.78 -0.2 -1.175a5.321 5.321 0 0 1 -1 -0.182 0.319 0.319 0 0 1 0.169 -0.615 4.681 4.681 0 0 0 0.723 0.138 17.5 17.5 0 0 1 -0.27 -4.786l-1.771 0.152c-0.41 0.035 -0.406 -0.6 0 -0.638l1.87 -0.161a7.425 7.425 0 0 1 0.929 -2.476 6.046 6.046 0 0 1 0.955 -1.2c-1.524 -1.293 -3.041 -2.594 -4.569 -3.883 -4.049 -3.418 -8.108 -6.826 -12.216 -10.174a85.754 85.754 0 0 0 -7.225 -5.6l-0.112 0.062c-1.3 0.715 -2.612 1.41 -3.92 2.111q-1.026 0.551 -2.054 1.1c0.159 0.341 0.319 0.682 0.463 1.03 0.367 0.9 0.682 1.813 0.972 2.737a0.217 0.217 0 0 1 0 0.036c0 0.011 0.016 0.016 0.02 0.028 0.409 1.321 0.767 2.656 1.137 3.987 0.65 2.335 1.321 4.667 1.8 7.045a20.754 20.754 0 0 0 0.7 3.183 5.024 5.024 0 0 0 1.715 2.353c0.617 0.429 1.448 1.008 1.151 1.886a1.709 1.709 0 0 1 -1.769 0.919c-1.278 -0.079 -2.267 -0.957 -3.345 -1.6 0.148 0.481 0.294 0.961 0.448 1.44a163.704 163.704 0 0 0 3.323 9.3 87.756 87.756 0 0 0 3.521 8.1 0.328 0.328 0 0 1 -0.115 0.437 216.298 216.298 0 0 1 -6.61 3.966c-4.017 2.327 -8.078 4.578 -12.083 6.927 -3.938 2.31 -7.827 4.715 -11.535 7.383a0.223 0.223 0 0 1 -0.108 0.041h-0.039a0.437 0.437 0 0 1 -0.072 -0.006 0.4 0.4 0 0 1 -0.106 -0.042 0.259 0.259 0 0 1 -0.047 -0.032l-0.015 -0.011a173.815 173.815 0 0 1 -3.393 -3.476c-3.763 -3.947 -7.41 -8.022 -11.31 -11.839q-3.091 -1.159 -6.092 -2.548a49.1 49.1 0 0 1 -12.863 -8.111c-0.006 0 -0.005 -0.015 -0.01 -0.021a0.312 0.312 0 0 1 -0.043 -0.027l-0.033 -0.029 -0.006 -0.011a19.064 19.064 0 0 1 -1.893 -2.162c-0.157 -0.208 -0.3 -0.427 -0.45 -0.641l-5.794 3.091c0.361 0.023 0.722 0.046 1.082 0.075a0.273 0.273 0 0 1 0.265 0.152 0.294 0.294 0 0 1 0.054 0.167 21 21 0 0 1 -0.74 6.388 6.362 6.362 0 0 1 -1.349 2.445c0.813 0.074 1.625 0.164 2.434 0.276a28.053 28.053 0 0 1 3.611 0.682 0.287 0.287 0 0 1 0.217 0.24 0.264 0.264 0 0 1 -0.141 0.344 29.014 29.014 0 0 1 -4.745 1.851 23.963 23.963 0 0 1 -8.915 0.808 23.423 23.423 0 0 1 -4.094 -0.747 25.618 25.618 0 0 1 -3.671 -1.449 0.323 0.323 0 0 1 0.077 -0.584c0.993 -0.252 1.978 -0.533 2.979 -0.757a35.46 35.46 0 0 1 4.047 -0.657 8.168 8.168 0 0 1 -1.478 -2.383 14.53 14.53 0 0 1 -0.4 -1.1l-1.272 0.679 -2.681 1.435a1.718 1.718 0 0 0 0.558 0.178 1.868 1.868 0 0 0 1.9 -1.246c0.145 -0.38 0.762 -0.214 0.615 0.17a2.571 2.571 0 0 1 -2.107 1.712 2.359 2.359 0 0 1 -1.612 -0.467l-3.4 1.821c-0.837 0.45 -1.683 0.891 -2.513 1.356l0.863 0.909q5.6 5.9 11.278 11.721 6.679 6.9 13.374 13.777 6.455 6.648 12.884 13.321c3.3 3.431 6.591 6.866 9.817 10.363a123.24 123.24 0 0 1 3.02 3.361 12.061 12.061 0 0 1 1.167 1.452c0.143 -0.089 0.287 -0.177 0.429 -0.267 4.293 -2.732 8.465 -5.665 12.658 -8.548q10.448 -7.183 20.85 -14.433l0.651 -0.453c-0.293 -0.427 -0.6 -0.844 -0.933 -1.248q-1.953 -2.38 -3.994 -4.686 -4.56 -5.163 -9.492 -9.984c-0.294 -0.287 0.158 -0.738 0.451 -0.451q0.648 0.633 1.29 1.272 4.853 4.838 9.345 10.018a58.456 58.456 0 0 1 3.864 4.71q11.071 -7.695 22.14 -15.394l3.293 -2.285a20.2 20.2 0 0 0 -2.706 0.042 5.216 5.216 0 0 0 -2.882 1.067c-0.264 0.206 -0.712 -0.056 -0.5 -0.387l1.6 -2.51 0.269 -0.424a11.007 11.007 0 0 0 -1.825 1.39l-0.8 1.465a0.328 0.328 0 0 1 -0.361 0.147q-5.72 -1.269 -11.477 -2.362a0.32 0.32 0 0 1 -0.221 -0.4 0.3 0.3 0 0 1 0.03 -0.071c1.348 -2.229 2.763 -4.424 4.3 -6.53a0.26 0.26 0 0 1 0.275 -0.157c3.681 0.293 7.33 0.821 10.978 1.378a11.962 11.962 0 0 1 2.755 -2.176 10.736 10.736 0 0 1 7.606 -1.251 0.323 0.323 0 0 1 0.219 0.4 0.333 0.333 0 0 1 -0.078 0.135 25.591 25.591 0 0 0 -2.711 3.266 8.359 8.359 0 0 1 2.3 0.515 7.993 7.993 0 0 1 1.478 0.744q4.264 -2.95 8.537 -5.891c3.546 -2.435 7.065 -4.956 10.725 -7.223 -2.027 -1.627 -3.976 -3.36 -5.95 -5.049q-5.778 -4.942 -11.553 -9.886c-0.62 -0.53 -1.243 -1.055 -1.863 -1.584 -0.174 1.123 -0.428 2.238 -0.667 3.317 -0.059 0.205 -0.113 0.407 -0.159 0.612zM122.922 87.75c-0.056 0.406 -0.671 0.232 -0.616 -0.169a52.183 52.183 0 0 0 0.478 -6.306 0.319 0.319 0 0 1 0.638 0 53.335 53.335 0 0 1 -0.5 6.475zm-24.667 42.844a0.332 0.332 0 0 1 0.038 -0.046l1.494 -1.213a0.329 0.329 0 0 1 0.452 0q0.7 0.757 1.391 1.518c0.445 0.484 0.925 1.213 0.137 1.653a2.041 2.041 0 0 1 -1.869 -0.2 4.966 4.966 0 0 1 -1.655 -1.368 0.249 0.249 0 0 1 -0.029 -0.059v-0.006a0.258 0.258 0 0 1 -0.025 -0.1v-0.019a0.22 0.22 0 0 1 0.016 -0.076 0.257 0.257 0 0 1 0.031 -0.056 0.239 0.239 0 0 1 0.019 -0.028zm-14.229 6.684a0.33 0.33 0 0 1 0.386 0.05 190.01 190.01 0 0 1 3.457 3.261c4.145 3.993 8.2 8.125 12.725 11.695a0.322 0.322 0 0 1 0 0.455 0.3 0.3 0 0 1 -0.06 0.046q-1.627 1.059 -3.277 2.086 -5.817 3.618 -11.888 6.8c-0.01 0 -0.019 0 -0.029 0.008a0.275 0.275 0 0 1 -0.293 -0.008 5.429 5.429 0 0 1 -0.749 -0.611 62.204 62.204 0 0 1 -1.276 -1.183c-2.495 -2.361 -4.944 -4.768 -7.435 -7.133 -2.445 -2.321 -4.89 -4.693 -7.555 -6.765a0.322 0.322 0 0 1 0 -0.454 0.316 0.316 0 0 1 0.062 -0.047zm16.34 17.921q-1.656 1.137 -3.349 2.218c-3.785 2.414 -7.72 4.579 -11.61 6.816a0.331 0.331 0 0 1 -0.387 -0.049q-1.986 -1.679 -3.956 -3.375c-4.5 -3.887 -8.881 -7.912 -13.037 -12.169 -0.287 -0.294 0.164 -0.746 0.452 -0.452q1.815 1.86 3.682 3.668c4.215 4.079 8.642 7.928 13.12 11.714q1.644 -0.945 3.294 -1.882c3.9 -2.222 7.765 -4.5 11.469 -7.04 0.339 -0.234 0.656 0.32 0.322 0.552zm-33.486 -26.41a4.961 4.961 0 0 1 -2.7 -1.345c-0.841 -0.731 -1.6 -1.546 -2.456 -2.261a6.1 6.1 0 0 1 -2.1 -2.559 3.509 3.509 0 0 1 3.273 -4.58 5.425 5.425 0 0 1 3.024 1.05c0.622 0.457 1.187 1.006 1.767 1.514l1.846 1.621a4.234 4.234 0 0 1 1.771 2.632 3.882 3.882 0 0 1 -1.53 2.918 3.929 3.929 0 0 1 -2.895 1.01zm18.2 37.868a90.335 90.335 0 0 1 -2.953 -2.318q-4.1 -3.314 -8.078 -6.785c-1.261 -1.1 -2.511 -2.22 -3.728 -3.372a30.122 30.122 0 0 1 -2.542 -2.611c-0.26 -0.314 0.189 -0.768 0.452 -0.451a32.75 32.75 0 0 0 2.916 2.963c2.591 2.422 5.294 4.727 8.017 7 2 1.672 4.01 3.36 6.1 4.92q1.728 -0.964 3.471 -1.9c3.847 -2.065 7.658 -4.144 11.3 -6.566 0.343 -0.229 0.663 0.324 0.322 0.551q-1.734 1.155 -3.513 2.241c-3.727 2.263 -7.639 4.2 -11.442 6.329a0.315 0.315 0 0 1 -0.327 -0.001zm48.356 -80.893 -5.647 4.819c-0.311 0.265 -0.764 -0.185 -0.451 -0.452l5.646 -4.819c0.306 -0.265 0.76 0.188 0.447 0.452zm-8.711 3.136a57.1 57.1 0 0 1 4.572 -7.712c0.235 -0.334 0.788 -0.015 0.551 0.322a57.167 57.167 0 0 0 -4.572 7.712c-0.181 0.369 -0.731 0.045 -0.551 -0.322zm0.443 29.794a61.012 61.012 0 0 1 8.293 -1.713c0.4 -0.062 0.575 0.553 0.17 0.616a61.009 61.009 0 0 0 -8.293 1.712 0.319 0.319 0 0 1 -0.17 -0.615zm12.774 -0.455a68.015 68.015 0 0 0 -12.379 2.26 0.319 0.319 0 0 1 -0.17 -0.615 68.908 68.908 0 0 1 12.549 -2.284c0.409 -0.041 0.405 0.6 0 0.639z" fill="#ffd2d2" stroke-width="1"></path>
  <path d="M93.015 132.379a0.444 0.444 0 0 1 -0.049 -0.024 0.444 0.444 0 0 0 0.049 0.024zm0.276 -0.017a0.255 0.255 0 0 1 -0.108 0.041 0.223 0.223 0 0 0 0.108 -0.041zm-0.147 0.038a0.349 0.349 0 0 1 -0.072 0 0.349 0.349 0 0 0 0.072 0zm-0.29 -0.152a40.968 40.968 0 0 1 -0.8 -1.712c-0.419 -0.943 -0.817 -1.9 -1.217 -2.846 -1.595 -3.783 -3.128 -7.593 -4.65 -11.406a6.916 6.916 0 0 1 -1.418 -0.455 13.64 13.64 0 0 1 -1.763 -0.947c-0.294 -0.18 -0.581 -0.375 -0.879 -0.547 -0.107 -0.061 -0.545 -0.291 -0.53 -0.073 0.011 0.156 0.411 0.4 0.534 0.5l0.836 0.641c0.458 0.352 0.94 0.688 1.377 1.067a1.648 1.648 0 0 1 0.7 1.356 1.338 1.338 0 0 1 -0.954 1.078c-1 0.335 -2.009 -0.392 -2.9 -0.756a67.54 67.54 0 0 0 -1.566 -0.608q-0.62 -0.234 -1.241 -0.464c-0.06 -0.022 -0.119 -0.048 -0.179 -0.071 3.9 3.817 7.551 7.892 11.315 11.836a171.11 171.11 0 0 0 3.393 3.476l0.015 0.011a0.259 0.259 0 0 1 -0.073 -0.08z" fill="#000000" stroke-width="1"></path>
  <path d="M66.009 98.32a16.6 16.6 0 0 1 3.51 -1.886l0.048 -0.044a0.869 0.869 0 0 1 0.169 -0.127 6.369 6.369 0 0 1 0.977 -0.355c0.171 -0.057 0.345 -0.106 0.518 -0.159a27.856 27.856 0 0 1 -2.375 -8.863c-0.04 -0.41 0.6 -0.406 0.638 0a26.95 26.95 0 0 0 2.043 7.979c0.27 -0.15 0.55 -0.288 0.82 -0.431l2.274 -1.213 6.863 -3.66 7.934 -4.232 6.589 -3.514L98.3 80.6c-1.664 -1.115 -3.349 -2.2 -5.007 -3.321 -0.339 -0.229 -0.019 -0.782 0.322 -0.551 1.811 1.226 3.656 2.4 5.467 3.626q0.732 0.535 1.412 1.135a25.1 25.1 0 0 1 6.422 -3.665 16.131 16.131 0 0 1 7.254 -1.123 33.53 33.53 0 0 0 -0.826 -2.3 24.939 24.939 0 0 0 -1.325 -2.715 25.533 25.533 0 0 0 -8.632 -9.016 63.717 63.717 0 0 0 -12.183 -5.645c-2.1 -0.766 -4.211 -1.486 -6.323 -2.208l-1.361 -0.467c-0.1 0.5 -0.21 1 -0.336 1.5 -0.438 1.714 -0.931 3.578 -2.576 4.509a7.62 7.62 0 0 1 -4.317 0.549 9.759 9.759 0 0 1 -4.442 -1.268 7.64 7.64 0 0 1 -2.8 -2.786 5.567 5.567 0 0 1 -0.527 -1.9c-0.321 0.246 -0.639 0.5 -0.948 0.758a32.361 32.361 0 0 0 -3.983 4.076A45.951 45.951 0 0 0 57.3 69.994a50.845 50.845 0 0 0 -3.7 12.039 30.488 30.488 0 0 0 0.218 13.452 22.941 22.941 0 0 0 5.608 10.129c0.635 -0.962 1.314 -1.9 2.027 -2.8a22.861 22.861 0 0 1 4.556 -4.494zM109 70.464a3.669 3.669 0 0 1 1.16 2.476c0.027 0.41 -0.612 0.408 -0.638 0a3.013 3.013 0 0 0 -0.973 -2.025c-0.305 -0.28 0.151 -0.731 0.451 -0.451zM58.155 98.077c0.193 -0.363 0.744 -0.04 0.551 0.322a2.159 2.159 0 0 0 0.7 2.752c0.342 0.224 0.022 0.777 -0.323 0.551a2.81 2.81 0 0 1 -0.928 -3.625z" fill="#cff0fa" stroke-width="1"></path>
  <path d="M56.806 103.45c0.15 0.214 0.293 0.433 0.45 0.64a18.988 18.988 0 0 0 1.893 2.163l0.006 0.011 0.033 0.029a0.312 0.312 0 0 0 0.043 0.027 0.317 0.317 0 0 1 -0.04 -0.366c0.074 -0.115 0.156 -0.225 0.232 -0.34a22.95 22.95 0 0 1 -5.608 -10.129 30.488 30.488 0 0 1 -0.215 -13.452 50.845 50.845 0 0 1 3.7 -12.039 45.951 45.951 0 0 1 6.292 -10.207 32.225 32.225 0 0 1 3.984 -4.075c0.308 -0.262 0.626 -0.513 0.947 -0.759a19.66 19.66 0 0 1 -0.079 -0.732 28.371 28.371 0 0 0 -3.485 3.079 42.9 42.9 0 0 0 -7.01 9.925 49.477 49.477 0 0 0 -3.449 8.441c-0.13 0.423 -0.253 0.849 -0.372 1.276a50.993 50.993 0 0 0 -0.459 1.738A36.816 36.816 0 0 0 52.61 92.9a25.341 25.341 0 0 0 3.827 10.027c0.118 0.173 0.246 0.348 0.369 0.523zM92.8 56.955q-2.252 -0.855 -4.527 -1.646 -1.581 -0.549 -3.166 -1.087l-1.462 -0.5c-0.039 0.211 -0.082 0.42 -0.126 0.63l1.361 0.467c2.112 0.722 4.226 1.442 6.323 2.208a63.717 63.717 0 0 1 12.183 5.645 25.533 25.533 0 0 1 8.632 9.016 24.939 24.939 0 0 1 1.325 2.715c0.308 0.753 0.575 1.522 0.826 2.3a16.118 16.118 0 0 0 -7.254 1.123 25.123 25.123 0 0 0 -6.423 3.665q-0.678 -0.6 -1.411 -1.135c0.339 0.23 0.019 0.782 -0.322 0.552 -0.152 -0.1 -0.307 -0.2 -0.46 -0.306l-2.284 1.218 -6.589 3.514 -7.934 4.232 -6.863 3.66 -2.274 1.213c-0.27 0.143 -0.55 0.281 -0.82 0.43l0.3 0.7a0.36 0.36 0 0 1 0.027 0.112 0.35 0.35 0 0 1 0.169 0.108c0 -0.007 0 -0.015 -0.007 -0.021 -0.068 -0.107 -0.131 -0.217 -0.2 -0.326q1.23 -0.655 2.459 -1.312l6.589 -3.513 7.935 -4.232 6.862 -3.661 2.274 -1.212 0.011 -0.006c0.3 -0.156 0.651 -0.3 0.941 -0.485a16.728 16.728 0 0 1 1.347 1.1 0.23 0.23 0 0 0 0.033 0.021 0.316 0.316 0 0 1 0.017 -0.426 24.7 24.7 0 0 1 6.594 -3.805 16.039 16.039 0 0 1 7.749 -1.108 0.334 0.334 0 0 1 0.288 0.206 0.217 0.217 0 0 0 0 -0.036c-0.29 -0.924 -0.605 -1.84 -0.972 -2.737 -0.144 -0.348 -0.3 -0.689 -0.464 -1.03 -0.09 -0.193 -0.178 -0.387 -0.273 -0.578a25.914 25.914 0 0 0 -6.6 -8.395A44.159 44.159 0 0 0 94.75 57.7c-0.427 -0.173 -0.861 -0.329 -1.291 -0.495zM71.231 95.749c-0.173 0.053 -0.347 0.1 -0.518 0.159a6.369 6.369 0 0 0 -0.977 0.355 0.869 0.869 0 0 0 -0.169 0.127l-0.048 0.044q0.856 -0.346 1.741 -0.618l-0.029 -0.067z" fill="#000000" stroke-width="1"></path>
  <path d="M91.673 128.042c0.508 1.2 1.017 2.4 1.586 3.568q2.989 -2.135 6.109 -4.078c3.932 -2.464 7.968 -4.755 12 -7.047 3.891 -2.211 7.782 -4.424 11.577 -6.8a69.955 69.955 0 0 1 -1.792 -3.9 159.905 159.905 0 0 1 -3.6 -9.3c-0.712 -2.013 -1.4 -4.039 -2.011 -6.088a3.585 3.585 0 0 0 -0.745 -0.221c-0.24 -0.041 -0.461 -0.065 -0.55 0.207a2.29 2.29 0 0 0 -0.036 0.681v1.548a10.742 10.742 0 0 1 -0.12 2.632 1.464 1.464 0 0 1 -1.345 1.231 1.938 1.938 0 0 1 -1.671 -1.384c-0.365 -0.909 -0.584 -1.88 -0.917 -2.8q-0.24 -0.667 -0.511 -1.325l-0.644 0.307c-0.031 0.358 -0.05 0.718 -0.08 1.07 -0.042 0.508 -0.078 1.018 -0.126 1.526a2.885 2.885 0 0 1 -0.676 1.826 1.183 1.183 0 0 1 -1.661 -0.007 3.16 3.16 0 0 1 -0.693 -2.039q-0.038 -0.4 -0.061 -0.805 -5.416 2.586 -10.836 5.163c-3.088 1.463 -6.171 2.96 -9.3 4.346 0.045 0.04 0.092 0.078 0.137 0.119a16.554 16.554 0 0 1 2.49 2.93 11.256 11.256 0 0 1 1.007 1.758 1.857 1.857 0 0 1 0.054 1.621 1.136 1.136 0 0 1 -1.327 0.6 3.959 3.959 0 0 1 -1.4 -1.112 12.766 12.766 0 0 0 -1.672 -1.425 2.257 2.257 0 0 0 -0.184 -0.107c0.184 0.468 0.375 0.933 0.56 1.4 0.589 0.6 1.184 1.2 1.775 1.8 0.454 0.463 1.1 1.065 0.8 1.772a1 1 0 0 1 -0.908 0.606c0.771 1.929 1.529 3.863 2.313 5.787a419.74 419.74 0 0 0 2.458 5.94zm11.631 -22.31 0.04 -0.01 0.037 -0.022a6.039 6.039 0 0 1 0.934 -0.17c0.221 -0.042 0.479 0.144 0.393 0.392l-1.069 3.077a0.324 0.324 0 0 1 -0.4 0.215 0.327 0.327 0 0 1 -0.18 -0.139 3.636 3.636 0 0 1 -0.61 -1.988 1.626 1.626 0 0 1 0.851 -1.355zm-0.875 4.971a2.424 2.424 0 0 1 2.691 -0.658c2.013 0.758 1.694 4.534 -0.417 4.936a2.382 2.382 0 0 1 -2.52 -1.133 3.106 3.106 0 0 1 0.246 -3.148z" fill="#ffd35c" stroke-width="1"></path>
  <path d="M115.544 94.4c0.608 2.049 1.3 4.075 2.011 6.088a158.39 158.39 0 0 0 3.6 9.3 68.015 68.015 0 0 0 1.792 3.9c-3.8 2.372 -7.686 4.585 -11.577 6.8 -4.033 2.292 -8.069 4.583 -12 7.047q-3.112 1.951 -6.109 4.078c-0.569 -1.17 -1.078 -2.372 -1.586 -3.568a432.233 432.233 0 0 1 -2.455 -5.93c-0.784 -1.924 -1.542 -3.858 -2.313 -5.787a2.66 2.66 0 0 1 -0.718 -0.041c1.522 3.814 3.055 7.623 4.65 11.406 0.4 0.949 0.8 1.9 1.217 2.846 0.256 0.576 0.518 1.149 0.8 1.712a0.3 0.3 0 0 0 0.112 0.107 0.444 0.444 0 0 0 0.049 0.024 0.475 0.475 0 0 0 0.057 0.018 0.437 0.437 0 0 0 0.072 0.006h0.039a0.255 0.255 0 0 0 0.108 -0.041c3.708 -2.668 7.6 -5.073 11.535 -7.383 4.005 -2.349 8.066 -4.6 12.083 -6.927 2.224 -1.288 4.434 -2.6 6.61 -3.966a0.328 0.328 0 0 0 0.115 -0.437 87.756 87.756 0 0 1 -3.521 -8.1 160.926 160.926 0 0 1 -3.323 -9.3c-0.154 -0.479 -0.3 -0.959 -0.448 -1.44a5.918 5.918 0 0 0 -0.8 -0.412zm-5.963 0.4a1.419 1.419 0 0 0 -0.216 -0.411l-0.257 0.121a1.6 1.6 0 0 0 -0.048 0.216c-0.031 0.18 -0.043 0.366 -0.059 0.551l0.645 -0.307a3.654 3.654 0 0 1 -0.065 -0.17zm-3.876 2.047c-0.014 -0.23 -0.025 -0.46 -0.035 -0.69l-2.336 1.119c-4.661 2.225 -9.321 4.451 -14 6.632a2.19 2.19 0 0 1 -0.316 0.453 4.884 4.884 0 0 1 -2.214 1.167 8.2 8.2 0 0 1 -1.767 0.358c0.183 0.152 0.36 0.31 0.536 0.47 3.128 -1.386 6.211 -2.883 9.3 -4.346q5.42 -2.568 10.832 -5.163zm-21.03 13.897c-0.183 -0.094 -0.424 -0.175 -0.5 0.008 -0.089 0.216 0.232 0.539 0.36 0.674 0.23 0.243 0.465 0.48 0.7 0.719 -0.185 -0.468 -0.376 -0.933 -0.56 -1.401z" fill="#000000" stroke-width="1"></path>
  <path d="M105.12 110.045a2.424 2.424 0 0 0 -2.691 0.658 3.106 3.106 0 0 0 -0.246 3.145 2.382 2.382 0 0 0 2.52 1.133c2.111 -0.402 2.43 -4.181 0.417 -4.936zM71.85 59.642a9.759 9.759 0 0 0 4.442 1.268 7.62 7.62 0 0 0 4.317 -0.549c1.645 -0.931 2.138 -2.795 2.576 -4.509 0.126 -0.5 0.233 -1 0.336 -1.5a34.427 34.427 0 0 0 0.394 -2.251l0.049 -0.363c-0.186 0.114 -0.371 0.23 -0.564 0.333 -0.045 0.024 -0.093 0.041 -0.138 0.064a33.032 33.032 0 0 1 -0.432 2.44 23.461 23.461 0 0 1 -0.8 2.91 3.813 3.813 0 0 1 -4.33 2.834 11.612 11.612 0 0 1 -4.644 -0.767 7.7 7.7 0 0 1 -3.113 -2.492 4.968 4.968 0 0 1 -0.817 -2.423 24.584 24.584 0 0 1 -0.126 -3.66c0.007 -0.225 0.021 -0.452 0.031 -0.678a5.4 5.4 0 0 1 -0.412 -0.643l-0.215 0.108a27.108 27.108 0 0 0 0.031 4.368c0 0.029 0.006 0.06 0.009 0.089 0.021 0.24 0.048 0.485 0.079 0.732a5.567 5.567 0 0 0 0.527 1.9 7.64 7.64 0 0 0 2.8 2.789zm32.465 45.888a6.039 6.039 0 0 0 -0.934 0.17l-0.037 0.022 -0.04 0.01a1.626 1.626 0 0 0 -0.859 1.355 3.636 3.636 0 0 0 0.61 1.988 0.324 0.324 0 0 0 0.584 -0.076l1.069 -3.077c0.086 -0.248 -0.172 -0.434 -0.393 -0.392zm31.265 25.87a0.254 0.254 0 0 1 -0.353 0.063 0.2 0.2 0 0 1 -0.027 -0.022 0.261 0.261 0 0 1 -0.159 -0.315q-5.207 -1.146 -10.444 -2.148c1.241 -2.035 2.54 -4.041 3.938 -5.972 3.457 0.282 6.886 0.768 10.313 1.289q0.249 -0.29 0.512 -0.564c-3.648 -0.557 -7.3 -1.085 -10.978 -1.378a0.26 0.26 0 0 0 -0.275 0.157c-1.534 2.106 -2.949 4.3 -4.3 6.53a0.32 0.32 0 0 0 0.191 0.468q5.757 1.094 11.477 2.362a0.328 0.328 0 0 0 0.361 -0.147l0.8 -1.465a10.642 10.642 0 0 0 -1.056 1.142z" fill="#000000" stroke-width="1"></path>
  <path d="M88.233 46.93a9.307 9.307 0 0 0 0.9 -3.394 10.228 10.228 0 0 0 -0.52 -3.549 15.948 15.948 0 0 0 -4.376 -6.927 0.271 0.271 0 0 0 -0.237 -0.112c-5.732 0.28 -10.664 3.79 -13.936 8.332a29.034 29.034 0 0 0 -2.231 3.673 3.362 3.362 0 0 0 -2.235 -1.186 3.243 3.243 0 0 0 -2.485 1.851 4.044 4.044 0 0 0 -0.272 3.412 3 3 0 0 0 2.872 1.727 6.8 6.8 0 0 0 2.7 -0.993l0.215 -0.108a5.493 5.493 0 0 0 0.412 0.644c1.383 1.786 3.757 2.566 5.952 2.9a13.739 13.739 0 0 0 8.278 -1.07c0.045 -0.023 0.093 -0.04 0.138 -0.064 0.193 -0.1 0.378 -0.219 0.564 -0.333a11.23 11.23 0 0 0 4.261 -4.803zm-1.873 -10.3a16.038 16.038 0 0 1 1.3 2.562 11.483 11.483 0 0 1 0.825 3.318 7.859 7.859 0 0 1 -0.447 3.221 10.561 10.561 0 0 1 -4.075 5.261 12.084 12.084 0 0 1 -7.589 1.73 13.5 13.5 0 0 1 -4.708 -1.144 5.345 5.345 0 0 1 -2.647 -2.492 0.327 0.327 0 0 0 -0.437 -0.115A19.657 19.657 0 0 1 66.28 50a2.464 2.464 0 0 1 -2.483 -0.629c-1.346 -1.454 -0.3 -4.224 1.415 -4.882 0.852 -0.327 1.954 0.531 2.4 1.206a0.323 0.323 0 0 0 0.551 0c2.412 -4.84 6.138 -9.237 11.325 -11.167a15.084 15.084 0 0 1 4.392 -0.932 14.484 14.484 0 0 1 2.129 2.481c0.048 -0.013 0.094 -0.034 0.142 -0.047a0.318 0.318 0 0 1 0.21 0.6z" fill="#000000" stroke-width="1"></path>
  <path d="M67.3 46.868c-0.764 0.337 -1.6 0.475 -2.368 0.813 -0.375 0.165 -0.051 0.716 0.322 0.551 0.764 -0.337 1.6 -0.475 2.368 -0.813 0.378 -0.165 0.052 -0.719 -0.322 -0.551zm7.68 -0.702c0.359 0.5 0.541 1.24 1.244 1.346 0.865 0.131 1.3 -0.735 1.525 -1.414 0.13 -0.391 -0.486 -0.559 -0.615 -0.17 -0.116 0.348 -0.462 1.265 -0.988 0.879 -0.289 -0.212 -0.409 -0.678 -0.615 -0.963 -0.238 -0.33 -0.792 -0.012 -0.551 0.322zm11.337 -4.455a0.441 0.441 0 0 1 -0.515 -0.554c0.12 -0.394 -0.5 -0.562 -0.616 -0.17a1.091 1.091 0 0 0 0.768 1.337 1.078 1.078 0 0 0 0.362 0.035 1.218 1.218 0 0 0 0.993 -1.408q-0.009 -0.048 -0.021 -0.1c-0.091 -0.4 -0.706 -0.231 -0.616 0.169a0.588 0.588 0 0 1 -0.355 0.691zM83.88 44.39a3.52 3.52 0 0 1 -0.892 2.19 1.136 1.136 0 0 1 -0.947 0.3 0.793 0.793 0 0 1 -0.655 -0.639c-0.041 -0.405 -0.68 -0.409 -0.639 0a1.5 1.5 0 0 0 2.108 1.159c1.142 -0.476 1.453 -1.745 1.64 -2.845 0.069 -0.398 -0.546 -0.57 -0.615 -0.165zm-11.267 -0.89a7.424 7.424 0 0 1 2.422 -2.3 0.319 0.319 0 0 0 -0.322 -0.551 8.149 8.149 0 0 0 -2.651 2.531c-0.228 0.337 0.325 0.657 0.551 0.32zm13.537 -7.469c-0.048 0.013 -0.094 0.034 -0.142 0.047a10.862 10.862 0 0 0 -2.3 0.926c-0.361 0.2 -0.039 0.748 0.322 0.551a10.138 10.138 0 0 1 2.287 -0.908l0.04 -0.02a0.318 0.318 0 0 0 -0.21 -0.6zm64.778 89.335a7.993 7.993 0 0 0 -1.478 -0.744 8.359 8.359 0 0 0 -2.3 -0.515c-0.14 0.2 -0.278 0.4 -0.411 0.609a8.08 8.08 0 0 1 1.958 0.323 5.9 5.9 0 0 1 2.921 1.788 5.82 5.82 0 0 1 0.838 2.937 35.278 35.278 0 0 0 -4.431 4.792 5.518 5.518 0 0 0 -0.605 -1.755 4.137 4.137 0 0 0 -2.087 -1.8 7.766 7.766 0 0 0 -3.076 -0.559 21.706 21.706 0 0 0 -2.816 0.1 5.61 5.61 0 0 0 -1.584 0.462l1.745 -2.742a11.149 11.149 0 0 0 -1.143 0.607l-0.269 0.424 -1.6 2.51c-0.211 0.331 0.237 0.593 0.5 0.387a5.216 5.216 0 0 1 2.882 -1.067 20.2 20.2 0 0 1 2.706 -0.042c0.2 0.012 0.406 0.024 0.6 0.045 0.122 0.014 0.247 0.031 0.372 0.051a4.034 4.034 0 0 1 3.821 4.187 0.321 0.321 0 0 0 0.594 0.161 34.5 34.5 0 0 1 4.09 -4.633q0.279 -0.264 0.564 -0.522c0.157 -0.142 0.357 -0.255 0.379 -0.481a4.857 4.857 0 0 0 -0.137 -1.171 5.154 5.154 0 0 0 -0.825 -2.256 0.289 0.289 0 0 0 -0.032 -0.029 0.3 0.3 0 0 0 -0.018 -0.036 4.386 4.386 0 0 0 -0.625 -0.631 5.751 5.751 0 0 0 -0.533 -0.4z" fill="#000000" stroke-width="1"></path>
  <path d="m142.5 93.839 -0.214 0.018a13.163 13.163 0 0 0 0 3.259c0.064 0.542 0.147 1.082 0.236 1.622a4.871 4.871 0 0 0 0.512 -0.033c0.408 -0.047 0.4 0.592 0 0.639a5.08 5.08 0 0 1 -0.408 0.027 39.354 39.354 0 0 1 0.713 5.417c1.545 -0.023 3.172 0 4.75 0.044 0.228 -0.9 0.459 -1.8 0.684 -2.7q0.222 -0.886 0.437 -1.776l-1.385 0.093c-0.411 0.028 -0.408 -0.61 0 -0.638l1.536 -0.1c0.317 -1.352 0.606 -2.711 0.815 -4.083 0.056 -0.368 0.114 -0.758 0.159 -1.157l-0.376 0.268c-0.336 0.238 -0.654 -0.315 -0.322 -0.552l0.77 -0.547a5.043 5.043 0 0 0 -1.082 -3.91c-0.068 -0.066 -0.144 -0.117 -0.216 -0.175l-0.278 0.612c-0.169 0.374 -0.719 0.049 -0.551 -0.322l0.291 -0.642a3.868 3.868 0 0 0 -3.337 0c-0.1 0.047 -0.189 0.1 -0.283 0.156 0.061 0.183 0.11 0.369 0.175 0.55 0.139 0.388 -0.478 0.553 -0.616 0.17 -0.042 -0.118 -0.073 -0.239 -0.113 -0.358a5.716 5.716 0 0 0 -2 3.5l0.105 -0.009c0.403 -0.047 0.398 0.588 -0.002 0.627zm5.182 2.22 -1.22 1.437c-0.266 0.313 -0.715 -0.14 -0.451 -0.452l1.22 -1.436c0.266 -0.314 0.715 0.139 0.451 0.451z" fill="#6dd3a8" stroke-width="1"></path>
  <path d="M143.594 89.587a6.046 6.046 0 0 0 -0.955 1.2 7.425 7.425 0 0 0 -0.929 2.476l0.68 -0.059a5.716 5.716 0 0 1 2 -3.5c-0.071 -0.208 -0.134 -0.417 -0.2 -0.627 -0.036 0.026 -0.074 0.049 -0.109 0.076a5.312 5.312 0 0 0 -0.487 0.434zm5.506 -0.037c0.072 0.058 0.148 0.109 0.216 0.175a5.043 5.043 0 0 1 1.082 3.91l0.637 -0.454c0 -0.234 0 -0.468 -0.018 -0.7a4.954 4.954 0 0 0 -1.25 -3.208 3.738 3.738 0 0 0 -0.391 -0.331zm1.228 4.916c-0.045 0.4 -0.1 0.789 -0.159 1.157 -0.209 1.372 -0.5 2.731 -0.815 4.083l0.657 -0.044c0.046 -0.205 0.1 -0.407 0.146 -0.612 0.239 -1.079 0.493 -2.194 0.667 -3.317a18.117 18.117 0 0 0 0.187 -1.755zm-5.384 -5.114c0.094 -0.052 0.184 -0.109 0.283 -0.156a3.87 3.87 0 0 1 3.338 0l0.264 -0.583a4.423 4.423 0 0 0 -2.851 -0.334 4.493 4.493 0 0 0 -1.229 0.456c0.062 0.208 0.128 0.413 0.195 0.617zm4.256 11.003q-0.215 0.889 -0.437 1.776c-0.225 0.9 -0.456 1.8 -0.684 2.7l0.653 0.018c0.384 -1.511 0.762 -3.023 1.12 -4.539zm-5.868 4.433a39.354 39.354 0 0 0 -0.713 -5.417 5.266 5.266 0 0 1 -0.628 -0.011l0.2 1.175a32.9 32.9 0 0 1 0.5 4.268c0.209 -0.003 0.422 -0.012 0.641 -0.015zm-0.817 -6.05c-0.089 -0.54 -0.172 -1.08 -0.236 -1.622a13.163 13.163 0 0 1 0 -3.259l-0.67 0.058a17.5 17.5 0 0 0 0.27 4.786 4.631 4.631 0 0 0 0.636 0.037zm7.206 21.569a10.736 10.736 0 0 0 -7.606 1.251 11.962 11.962 0 0 0 -2.755 2.176q-0.263 0.275 -0.512 0.564a18.175 18.175 0 0 0 -2 2.856 25.2 25.2 0 0 0 -1.8 3.939v0.036a0.261 0.261 0 0 0 0.159 0.315 0.254 0.254 0 0 0 0.358 -0.013 0.3 0.3 0 0 0 0.022 -0.028 10.642 10.642 0 0 1 1.055 -1.141 11.007 11.007 0 0 1 1.825 -1.39 11.149 11.149 0 0 1 1.143 -0.607 10.987 10.987 0 0 1 5.518 -0.985 0.311 0.311 0 0 0 0.276 -0.158 19.794 19.794 0 0 1 1.343 -2.406c0.133 -0.2 0.271 -0.407 0.411 -0.609a25.591 25.591 0 0 1 2.711 -3.266 0.322 0.322 0 0 0 -0.007 -0.456 0.336 0.336 0 0 0 -0.141 -0.078zm-4.792 6.324a11.718 11.718 0 0 0 -8.65 3.087 20 20 0 0 1 2.956 -4.918 11.442 11.442 0 0 1 6.122 -3.837 9.373 9.373 0 0 1 3.636 -0.132 23.511 23.511 0 0 0 -4.064 5.8z" fill="#000000" stroke-width="1"></path>
  <path d="m147.818 100.448 1.385 -0.093 0.652 -0.044 1.328 -0.09c0.408 -0.028 0.411 -0.666 0 -0.638l-1.172 0.079 -0.657 0.044 -1.536 0.1c-0.408 0.032 -0.411 0.67 0 0.642zm-42.485 -9.03a36.808 36.808 0 0 1 0.337 4.739c0.01 0.23 0.021 0.46 0.035 0.69 0.016 0.269 0.035 0.537 0.061 0.805a3.16 3.16 0 0 0 0.693 2.039 1.183 1.183 0 0 0 1.661 0.007 2.885 2.885 0 0 0 0.676 -1.826c0.048 -0.508 0.084 -1.018 0.126 -1.526 0.03 -0.352 0.049 -0.712 0.079 -1.07 0.016 -0.185 0.028 -0.371 0.059 -0.551a1.6 1.6 0 0 1 0.048 -0.216c0.03 -0.092 0.077 -0.171 0.159 -0.172a0.145 0.145 0 0 1 0.1 0.051 1.419 1.419 0 0 1 0.216 0.411c0.023 0.056 0.042 0.114 0.065 0.17q0.27 0.657 0.511 1.325c0.333 0.923 0.552 1.894 0.917 2.8a1.938 1.938 0 0 0 1.671 1.384 1.464 1.464 0 0 0 1.345 -1.231 10.742 10.742 0 0 0 0.12 -2.632v-1.548a2.29 2.29 0 0 1 0.036 -0.681c0.089 -0.272 0.31 -0.248 0.55 -0.207a3.585 3.585 0 0 1 0.745 0.221 5.918 5.918 0 0 1 0.8 0.405c1.078 0.641 2.067 1.519 3.345 1.6a1.711 1.711 0 0 0 1.769 -0.919c0.3 -0.878 -0.534 -1.457 -1.151 -1.886a5.024 5.024 0 0 1 -1.715 -2.353 20.636 20.636 0 0 1 -0.7 -3.183c-0.479 -2.378 -1.15 -4.71 -1.8 -7.045 -0.37 -1.331 -0.728 -2.666 -1.137 -3.987 0 -0.013 -0.015 -0.017 -0.02 -0.028a0.334 0.334 0 0 0 -0.288 -0.206 16.039 16.039 0 0 0 -7.749 1.108 24.7 24.7 0 0 0 -6.594 3.805 0.316 0.316 0 0 0 -0.017 0.426l0.017 0.026a16.766 16.766 0 0 1 5.03 9.255zm11.943 -3.184a19.42 19.42 0 0 0 0.737 3.284 5.729 5.729 0 0 0 1.97 2.634c0.44 0.307 1.4 1.012 0.545 1.46a2.205 2.205 0 0 1 -2 -0.232c-0.7 -0.355 -1.335 -0.828 -2.021 -1.211a3.841 3.841 0 0 0 -2.076 -0.643c-0.877 0.086 -0.855 1.015 -0.856 1.685 0 1.014 0.014 2.03 -0.006 3.044 -0.01 0.539 -0.079 1.58 -0.823 1.587 -0.934 0.01 -1.181 -1.267 -1.385 -1.943q-0.4 -1.343 -0.915 -2.65c-0.214 -0.547 -0.5 -1.688 -1.3 -1.551 -0.789 0.134 -0.738 1.223 -0.787 1.815a22.265 22.265 0 0 1 -0.261 2.8c-0.1 0.457 -0.446 1.414 -1.089 1 -0.6 -0.383 -0.588 -1.47 -0.634 -2.075 -0.148 -1.96 -0.077 -3.934 -0.4 -5.879a17.292 17.292 0 0 0 -4.959 -9.388 23.92 23.92 0 0 1 6.177 -3.5 15.639 15.639 0 0 1 7.215 -1.058c0.723 2.353 1.366 4.739 2 7.118 0.325 1.226 0.627 2.457 0.878 3.7z" fill="#000000" stroke-width="1"></path>
  <path d="M148.082 104.832c-1.578 -0.041 -3.2 -0.067 -4.75 -0.044 -0.219 0 -0.429 0.01 -0.643 0.015 -0.685 0.017 -1.355 0.04 -1.984 0.081a106.7 106.7 0 0 0 0.38 10.832c4.973 -0.311 7.616 0.266 11.191 -0.266 0 -3.393 -0.233 -6.693 -0.5 -10.506 -0.949 -0.029 -1.979 -0.064 -3.039 -0.094z" fill="#f55555" stroke-width="1"></path>
  <path d="M147.226 95.608q-0.611 0.717 -1.22 1.436c-0.264 0.312 0.185 0.765 0.451 0.452l1.22 -1.437c0.264 -0.312 -0.185 -0.765 -0.451 -0.451zM72.1 114.452q3 1.392 6.092 2.548c0.06 0.023 0.119 0.049 0.179 0.071l1.241 0.464c0.524 0.2 1.047 0.4 1.566 0.609 0.895 0.363 1.9 1.09 2.9 0.755a1.338 1.338 0 0 0 0.954 -1.078 1.648 1.648 0 0 0 -0.7 -1.356c-0.437 -0.379 -0.919 -0.715 -1.377 -1.067l-0.836 -0.641c-0.123 -0.095 -0.523 -0.339 -0.534 -0.5 -0.015 -0.218 0.423 0.012 0.53 0.073 0.3 0.172 0.585 0.367 0.879 0.547a13.706 13.706 0 0 0 1.763 0.947 6.916 6.916 0 0 0 1.418 0.455 2.66 2.66 0 0 0 0.718 0.041 1 1 0 0 0 0.908 -0.606c0.3 -0.707 -0.349 -1.309 -0.8 -1.772 -0.591 -0.6 -1.186 -1.2 -1.775 -1.8 -0.234 -0.239 -0.469 -0.476 -0.7 -0.718 -0.128 -0.135 -0.449 -0.459 -0.36 -0.675 0.075 -0.183 0.316 -0.1 0.5 -0.008 0.063 0.033 0.124 0.068 0.184 0.107a12.766 12.766 0 0 1 1.672 1.425 3.959 3.959 0 0 0 1.4 1.112 1.136 1.136 0 0 0 1.327 -0.6 1.86 1.86 0 0 0 -0.054 -1.621 11.336 11.336 0 0 0 -1.007 -1.758 16.554 16.554 0 0 0 -2.49 -2.93c-0.045 -0.041 -0.092 -0.079 -0.137 -0.119 -0.176 -0.16 -0.353 -0.318 -0.536 -0.469a8.176 8.176 0 0 0 1.766 -0.358 4.887 4.887 0 0 0 2.215 -1.167 2.19 2.19 0 0 0 0.316 -0.453 1.723 1.723 0 0 0 0.058 -1.592 1.64 1.64 0 0 0 -1.78 -0.751c-0.85 0.116 -1.633 0.509 -2.5 0.562a11.242 11.242 0 0 1 -3.048 -0.38 21.785 21.785 0 0 1 -5.445 -1.77 12.318 12.318 0 0 1 -4.552 -4.159l-0.032 -0.036a0.341 0.341 0 0 0 -0.169 -0.107c0.029 0.317 -0.424 0.543 -0.578 0.209l-0.03 -0.068q-0.885 0.27 -1.741 0.618a16.65 16.65 0 0 0 -3.51 1.886 22.861 22.861 0 0 0 -4.559 4.493 40.27 40.27 0 0 0 -2.027 2.8c-0.076 0.115 -0.158 0.225 -0.232 0.34a0.319 0.319 0 0 0 0.039 0.366c0.006 0.006 0.005 0.016 0.011 0.021a49.1 49.1 0 0 0 12.873 8.11zm-0.433 -18.1a13.294 13.294 0 0 0 3.306 3.384 15.626 15.626 0 0 0 4.721 2.091c0.847 0.239 1.705 0.434 2.566 0.615a10.734 10.734 0 0 0 2.85 0.324 15.556 15.556 0 0 0 2.319 -0.523c0.688 -0.149 1.559 -0.014 1.483 0.891 -0.082 0.965 -1.159 1.393 -1.943 1.666a6.8 6.8 0 0 1 -2.78 0.454 0.237 0.237 0 0 0 -0.181 0.01 0.284 0.284 0 0 0 -0.184 0.348v0.026a0.216 0.216 0 0 0 0.014 0.043 0.317 0.317 0 0 0 0.114 0.166 16.109 16.109 0 0 1 2.75 2.623 15.338 15.338 0 0 1 1.128 1.554 6.911 6.911 0 0 1 0.886 1.675c0.177 0.609 -0.189 1.432 -0.891 0.927 -0.52 -0.373 -0.95 -0.905 -1.431 -1.329 -0.544 -0.481 -2 -1.98 -2.721 -0.956 -0.445 0.627 0.164 1.3 0.595 1.734l1.374 1.4c0.378 0.385 0.757 0.768 1.133 1.154 0.208 0.213 0.715 0.726 0.313 0.979a1.19 1.19 0 0 1 -0.766 0.038 5.648 5.648 0 0 1 -0.981 -0.267 10.188 10.188 0 0 1 -1.709 -0.857 9.42 9.42 0 0 0 -1.537 -0.9 0.827 0.827 0 0 0 -1.1 0.315c-0.209 0.469 0.172 0.88 0.515 1.148 0.429 0.334 0.862 0.662 1.294 0.993a9.383 9.383 0 0 1 1.343 1.092 0.72 0.72 0 0 1 0.224 0.71 0.847 0.847 0 0 1 -0.708 0.46 3.27 3.27 0 0 1 -1.6 -0.506c-0.826 -0.371 -1.679 -0.685 -2.527 -1 -1.95 -0.732 -3.889 -1.481 -5.794 -2.326a54.855 54.855 0 0 1 -12.76 -7.477 27.392 27.392 0 0 1 -1.1 -0.965 29.446 29.446 0 0 1 5.082 -6.1 17.45 17.45 0 0 1 6.707 -3.615zm78.733 -2.717 -0.77 0.547c-0.332 0.237 -0.014 0.79 0.322 0.552l0.376 -0.268 0.686 -0.488 1.423 -1.013c0.332 -0.236 0.014 -0.79 -0.322 -0.551l-1.078 0.767zm-1.835 -4.435 -0.292 0.642c-0.168 0.371 0.382 0.7 0.551 0.322l0.278 -0.612 0.276 -0.608 0.5 -1.091c0.169 -0.372 -0.381 -0.7 -0.551 -0.323l-0.493 1.087zm-4.175 0.514c0.04 0.119 0.071 0.24 0.113 0.358 0.138 0.383 0.755 0.218 0.616 -0.17 -0.065 -0.181 -0.114 -0.367 -0.175 -0.55 -0.067 -0.2 -0.133 -0.409 -0.195 -0.615a23.58 23.58 0 0 1 -0.56 -2.194c-0.079 -0.4 -0.695 -0.232 -0.615 0.17a23.373 23.373 0 0 0 0.617 2.374c0.065 0.213 0.128 0.419 0.199 0.627zm-4.55 4.353 1.771 -0.152 0.67 -0.058 0.214 -0.018c0.406 -0.035 0.41 -0.674 0 -0.639l-0.105 0.009 -0.68 0.059 -1.87 0.161c-0.406 0.035 -0.41 0.671 0 0.638zm-83.254 22.899a0.287 0.287 0 0 0 -0.217 -0.24 28.053 28.053 0 0 0 -3.611 -0.682c-0.809 -0.112 -1.621 -0.2 -2.434 -0.276a5.4 5.4 0 0 1 -0.619 0.581 5.058 5.058 0 0 1 -1.375 0.793 6.137 6.137 0 0 1 -4.076 0.109 5.275 5.275 0 0 1 -1.528 -0.906 6.02 6.02 0 0 1 -0.6 -0.57 35.46 35.46 0 0 0 -4.047 0.657c-1 0.224 -1.986 0.5 -2.979 0.757a0.323 0.323 0 0 0 -0.076 0.584 25.56 25.56 0 0 0 3.67 1.449 23.423 23.423 0 0 0 4.094 0.747 23.963 23.963 0 0 0 8.915 -0.808 28.924 28.924 0 0 0 4.745 -1.851 0.263 0.263 0 0 0 0.138 -0.344zm86.033 -17.595c0.136 0 0.272 -0.011 0.408 -0.027 0.4 -0.047 0.408 -0.686 0 -0.639a4.871 4.871 0 0 1 -0.512 0.033 5.268 5.268 0 0 1 -1.357 -0.175 0.319 0.319 0 0 0 -0.169 0.615 5.321 5.321 0 0 0 1 0.182 5.266 5.266 0 0 0 0.63 0.011zM29.531 123c-0.014 -0.41 -0.652 -0.412 -0.638 0 0.18 5.513 0.5 11.02 0.737 16.53q0.111 2.536 0.194 5.073c0.013 0.41 0.651 0.411 0.638 0 -0.18 -5.513 -0.5 -11.02 -0.737 -16.531q-0.111 -2.534 -0.194 -5.072z" fill="#000000" stroke-width="1"></path>
  <path d="M40.131 107.677a13.337 13.337 0 0 0 0.342 2.972 14.22 14.22 0 0 0 0.925 2.882 5.527 5.527 0 0 0 3.6 3.277 5.149 5.149 0 0 0 6.292 -4.539 21.1 21.1 0 0 0 0.48 -4.941 26.541 26.541 0 0 1 -11.639 0.349z" fill="#b26ee6" stroke-width="1"></path>
  <path d="M52.413 106.935a0.287 0.287 0 0 0 -0.054 -0.167 0.273 0.273 0 0 0 -0.265 -0.152c-0.36 -0.029 -0.721 -0.052 -1.082 -0.075q-0.614 -0.039 -1.229 -0.067a48.715 48.715 0 0 0 -10.008 0.494h-0.048a0.252 0.252 0 0 0 -0.226 0.274 0.187 0.187 0 0 0 -0.008 0.034 14.39 14.39 0 0 0 0.56 4.386q0.089 0.314 0.19 0.622c0.122 0.374 0.254 0.743 0.4 1.1a8.168 8.168 0 0 0 1.478 2.383 6.02 6.02 0 0 0 0.6 0.57 5.267 5.267 0 0 0 1.529 0.906 6.135 6.135 0 0 0 4.075 -0.109 5.058 5.058 0 0 0 1.375 -0.793 5.4 5.4 0 0 0 0.619 -0.581 6.378 6.378 0 0 0 1.35 -2.445 21.028 21.028 0 0 0 0.744 -6.38zm-1.12 5.334A5.149 5.149 0 0 1 45 116.808a5.527 5.527 0 0 1 -3.6 -3.277 14.22 14.22 0 0 1 -0.925 -2.882 13.337 13.337 0 0 1 -0.342 -2.972 26.541 26.541 0 0 0 11.642 -0.349 21.1 21.1 0 0 1 -0.482 4.941zm-15.651 2.483a2.359 2.359 0 0 0 1.612 0.467 2.571 2.571 0 0 0 2.107 -1.712c0.147 -0.384 -0.47 -0.55 -0.615 -0.17a1.868 1.868 0 0 1 -1.9 1.246 1.718 1.718 0 0 1 -0.558 -0.178 2.25 2.25 0 0 1 -0.568 -0.42 3.3 3.3 0 0 1 -0.674 -1.011 1.789 1.789 0 0 1 0.515 -2.418c0.931 -0.518 1.978 0.106 2.792 0.569a0.319 0.319 0 0 0 0.322 -0.551 4.054 4.054 0 0 0 -2.894 -0.787 2.15 2.15 0 0 0 -1.6 1.745 3.574 3.574 0 0 0 0.955 2.768 3.259 3.259 0 0 0 0.506 0.452zm35.663 10.108a4.235 4.235 0 0 0 -1.771 -2.631l-1.846 -1.621c-0.58 -0.508 -1.145 -1.057 -1.767 -1.514a5.425 5.425 0 0 0 -3.024 -1.05 3.509 3.509 0 0 0 -3.273 4.58 6.1 6.1 0 0 0 2.1 2.559c0.857 0.715 1.615 1.53 2.456 2.261a4.961 4.961 0 0 0 2.7 1.345 3.929 3.929 0 0 0 2.9 -1.01 3.882 3.882 0 0 0 1.525 -2.919zm-8.259 0.627a26.009 26.009 0 0 1 -2.168 -1.963 3 3 0 0 1 -0.593 -3.069 2.864 2.864 0 0 1 2.612 -1.773c2.07 0.031 3.53 1.666 4.972 2.933a14.594 14.594 0 0 1 2.377 2.25 1.857 1.857 0 0 1 0.4 1.431 3.436 3.436 0 0 1 -0.7 1.385 3.819 3.819 0 0 1 -2.282 1.448 3.381 3.381 0 0 1 -2.572 -0.76 24.339 24.339 0 0 1 -2.046 -1.882z" fill="#000000" stroke-width="1"></path>
  <path d="m69.105 126.5 -1.758 -1.788c-0.289 -0.293 -0.74 0.158 -0.451 0.451l1.757 1.788c0.289 0.296 0.74 -0.151 0.452 -0.451z" fill="#000000" stroke-width="1"></path>
  <path d="M99.827 152.477q-1.695 -1.355 -3.312 -2.8c-4.247 -3.785 -8.2 -7.887 -12.383 -11.736l-15.305 7.878c1.215 0.968 2.379 2 3.527 3.045 2.772 2.524 5.466 5.132 8.163 7.734 1.069 1.03 2.135 2.063 3.216 3.08 0.356 0.335 0.713 0.669 1.078 0.993 0.12 0.106 0.24 0.211 0.364 0.313l0.05 0.04q1.628 -0.855 3.238 -1.741 5.802 -3.199 11.364 -6.806zm-20.108 -4.758c-0.341 0.232 -0.66 -0.322 -0.322 -0.551l2.644 -1.8c0.341 -0.231 0.66 0.322 0.322 0.551l-2.644 1.8zm1.811 1.866c-0.318 0.254 -0.773 -0.2 -0.451 -0.451l3.941 -3.141c0.318 -0.253 0.772 0.2 0.451 0.452l-3.941 3.14zm3.173 3.836c-0.341 0.232 -0.66 -0.321 -0.322 -0.551l5.282 -3.6c0.341 -0.232 0.66 0.321 0.322 0.551l-5.282 3.6zm1.946 0.815 5.113 -3.588c0.337 -0.237 0.656 0.317 0.322 0.551l-5.113 3.588c-0.337 0.237 -0.655 -0.317 -0.322 -0.551z" fill="#aceac7" stroke-width="1"></path>
  <path d="M68.027 145.981c2.665 2.072 5.11 4.444 7.555 6.765 2.491 2.365 4.94 4.772 7.435 7.133 0.421 0.4 0.843 0.8 1.276 1.183a5.429 5.429 0 0 0 0.749 0.611 0.275 0.275 0 0 0 0.293 0.008c0.01 0 0.019 0 0.029 -0.008q6.064 -3.183 11.888 -6.8 1.65 -1.026 3.277 -2.086a0.32 0.32 0 0 0 0.065 -0.5c-4.527 -3.57 -8.58 -7.7 -12.725 -11.695a186.584 186.584 0 0 0 -3.457 -3.261 0.33 0.33 0 0 0 -0.386 -0.05l-15.934 8.2a0.323 0.323 0 0 0 -0.065 0.5zm17.2 15.042 -0.05 -0.04c-0.124 -0.1 -0.244 -0.207 -0.364 -0.313a50.47 50.47 0 0 1 -1.078 -0.993c-1.081 -1.017 -2.147 -2.05 -3.216 -3.08 -2.7 -2.6 -5.391 -5.21 -8.163 -7.734 -1.148 -1.044 -2.312 -2.077 -3.527 -3.045l15.305 -7.878c4.187 3.849 8.136 7.951 12.383 11.736q1.618 1.443 3.312 2.8 -5.562 3.6 -11.364 6.805 -1.611 0.889 -3.24 1.742z" fill="#000000" stroke-width="1"></path>
  <path d="M100.044 154.648c-3.7 2.543 -7.568 4.818 -11.469 7.041q-1.648 0.938 -3.294 1.881c-4.478 -3.786 -8.905 -7.634 -13.12 -11.714q-1.868 -1.806 -3.682 -3.668c-0.288 -0.294 -0.739 0.158 -0.452 0.452 4.156 4.258 8.535 8.282 13.037 12.169q1.968 1.7 3.956 3.375a0.333 0.333 0 0 0 0.387 0.05c3.89 -2.238 7.825 -4.4 11.61 -6.817q1.694 -1.08 3.349 -2.218c0.334 -0.231 0.017 -0.785 -0.322 -0.551z" fill="#000000" stroke-width="1"></path>
  <path d="M100.352 158.087c0.341 -0.227 0.021 -0.78 -0.322 -0.551 -3.638 2.422 -7.449 4.5 -11.3 6.566q-1.743 0.936 -3.471 1.9c-2.094 -1.56 -4.1 -3.248 -6.1 -4.921 -2.723 -2.272 -5.426 -4.577 -8.017 -7a32.75 32.75 0 0 1 -2.916 -2.963c-0.263 -0.317 -0.712 0.137 -0.452 0.451a30.122 30.122 0 0 0 2.542 2.611 127.91 127.91 0 0 0 3.728 3.372q3.969 3.474 8.078 6.785a90.335 90.335 0 0 0 2.953 2.318 0.315 0.315 0 0 0 0.322 0c3.8 -2.129 7.715 -4.066 11.442 -6.329q1.782 -1.079 3.513 -2.239z" fill="#000000" stroke-width="1"></path>
  <path d="m91.762 150.648 -5.113 3.588c-0.333 0.234 -0.015 0.788 0.322 0.551l5.113 -3.588c0.334 -0.234 0.016 -0.788 -0.322 -0.551zm-2.099 -1.378 -5.282 3.6c-0.338 0.23 -0.019 0.783 0.322 0.551l5.282 -3.6c0.338 -0.23 0.015 -0.783 -0.322 -0.551zm-4.643 -3.277 -3.941 3.141c-0.322 0.256 0.133 0.705 0.451 0.451l3.941 -3.14c0.321 -0.256 -0.133 -0.705 -0.451 -0.452zm-2.979 -0.621 -2.644 1.8c-0.338 0.229 -0.019 0.783 0.322 0.551l2.644 -1.8c0.337 -0.229 0.019 -0.782 -0.322 -0.551zm19.589 -14.519 -1.391 -1.518a0.329 0.329 0 0 0 -0.452 0l-1.494 1.213a0.332 0.332 0 0 0 -0.038 0.046 0.239 0.239 0 0 0 -0.021 0.026 0.257 0.257 0 0 0 -0.031 0.056 0.219 0.219 0 0 0 -0.016 0.075v0.02a0.258 0.258 0 0 0 0.025 0.1 0.238 0.238 0 0 0 0.029 0.06A4.966 4.966 0 0 0 99.9 132.3a2.041 2.041 0 0 0 1.869 0.2c0.786 -0.434 0.306 -1.163 -0.139 -1.647zm21.076 30.765c-0.075 -0.329 -0.147 -0.658 -0.227 -0.986a35.909 35.909 0 0 0 -2.074 -6.3c-0.453 -1 -1 -1.95 -1.534 -2.909 -0.4 -0.724 -0.822 -1.438 -1.274 -2.131 -0.095 -0.146 -0.182 -0.3 -0.281 -0.44 -0.021 -0.031 -0.046 -0.061 -0.067 -0.092a58.456 58.456 0 0 0 -3.864 -4.71q-4.485 -5.178 -9.345 -10.018 -0.642 -0.639 -1.29 -1.272c-0.293 -0.287 -0.745 0.164 -0.451 0.451q4.926 4.818 9.492 9.984 2.039 2.307 3.994 4.686c0.331 0.4 0.64 0.821 0.934 1.248 0.12 0.174 0.228 0.356 0.343 0.534 0.718 1.109 1.359 2.267 2 3.428a28.055 28.055 0 0 1 2.422 6.264c0.207 0.751 0.391 1.508 0.565 2.267 0.049 0.212 0.1 0.423 0.145 0.635q0.324 1.481 0.575 2.974c0.024 0.144 0.052 0.288 0.075 0.431 0.012 0.074 0.019 0.148 0.031 0.221q0.216 1.347 0.38 2.7c0.027 0.215 0.055 0.431 0.08 0.647 0.372 3.217 0.56 6.456 0.637 9.692 0.105 4.4 0 8.8 -0.151 13.2q-0.029 0.809 -0.06 1.616c-0.015 0.411 0.623 0.41 0.639 0 0.167 -4.418 0.3 -8.839 0.239 -13.26a111.741 111.741 0 0 0 -0.67 -11.184c-0.025 -0.216 -0.052 -0.431 -0.078 -0.647 -0.065 -0.529 -0.117 -1.059 -0.192 -1.587q-0.105 -0.743 -0.226 -1.483c-0.035 -0.212 -0.073 -0.423 -0.109 -0.635 -0.155 -0.9 -0.325 -1.807 -0.518 -2.7 -0.041 -0.206 -0.093 -0.415 -0.14 -0.624zm11.433 -32.884a8.039 8.039 0 0 1 1.459 -2.729c0.258 -0.315 -0.191 -0.77 -0.451 -0.451a8.837 8.837 0 0 0 -1.624 3.011c-0.123 0.393 0.495 0.561 0.616 0.169zm-2.078 -1.041a6.31 6.31 0 0 1 1.406 -2.052c0.294 -0.289 -0.157 -0.74 -0.451 -0.452a7.08 7.08 0 0 0 -1.571 2.335c-0.158 0.376 0.455 0.543 0.616 0.169zm5.881 -10.093a68.908 68.908 0 0 0 -12.549 2.284 0.319 0.319 0 0 0 0.17 0.615 68.015 68.015 0 0 1 12.379 -2.26c0.405 -0.046 0.409 -0.685 0 -0.639zm-12.604 1.7a61.009 61.009 0 0 1 8.293 -1.712c0.405 -0.063 0.233 -0.678 -0.17 -0.616a61.012 61.012 0 0 0 -8.293 1.713 0.319 0.319 0 0 0 0.17 0.615z" fill="#000000" stroke-width="1"></path>
  <path d="M131.505 20.121a20.15 20.15 0 0 1 2.175 6.823 36.962 36.962 0 0 1 -0.639 13.643 30.69 30.69 0 0 1 -3.608 9 30.3 30.3 0 0 1 -5.564 6.392c-3.121 2.873 -6.759 5.453 -10.961 6.4a15.159 15.159 0 0 1 -3.038 0.365 0.319 0.319 0 0 0 0 0.638c4.388 -0.085 8.394 -2.083 11.81 -4.717a45.755 45.755 0 0 0 4.885 -4.429 25.242 25.242 0 0 0 2.4 -2.787 28.727 28.727 0 0 0 3.938 -7.975 38.072 38.072 0 0 0 1.72 -13.023 27.565 27.565 0 0 0 -1.144 -7.31A19.569 19.569 0 0 0 130.19 17a27.96 27.96 0 0 0 -1.741 -2.015c-0.144 0.161 -0.29 0.318 -0.434 0.479a23.017 23.017 0 0 1 3.49 4.657zM76.777 23.87a31.186 31.186 0 0 1 6.853 -9.511 32.268 32.268 0 0 1 9.854 -6.416 30.273 30.273 0 0 1 11.744 -2.3 32.209 32.209 0 0 1 11.982 2.429 31.239 31.239 0 0 1 10.214 6.763c0.049 0.05 0.1 0.1 0.145 0.154 0.144 -0.161 0.292 -0.319 0.436 -0.479a31.494 31.494 0 0 0 -7.605 -5.641 33.181 33.181 0 0 0 -11.984 -3.686 30.863 30.863 0 0 0 -12.272 1.132 32.667 32.667 0 0 0 -10.607 5.557 32.287 32.287 0 0 0 -7.945 9.055q-0.747 1.276 -1.367 2.62c-0.171 0.371 0.375 0.696 0.552 0.323z" fill="#6dd3a8" stroke-width="1"></path>
  <path d="M121.526 21.881q-5.508 6.429 -10.759 13.07 -2.832 3.581 -5.585 7.222a65.068 65.068 0 0 1 -9.708 -11.552c-0.228 -0.339 -0.782 -0.02 -0.551 0.322a65.32 65.32 0 0 0 10.07 11.93 0.325 0.325 0 0 0 0.46 -0.012 0.356 0.356 0 0 0 0.041 -0.053q5.1 -6.747 10.461 -13.29 5.324 -6.5 10.9 -12.777c0.382 -0.431 0.778 -0.851 1.162 -1.281 0.144 -0.161 0.29 -0.318 0.434 -0.479a443.214 443.214 0 0 1 4.794 -5.283c0.279 -0.3 -0.172 -0.753 -0.452 -0.451q-2.418 2.609 -4.786 5.263c-0.144 0.161 -0.292 0.318 -0.436 0.479q-3.057 3.411 -6.045 6.892z" fill="#6dd3a8" stroke-width="1"></path>
  <path d="M32.319 123.425c-0.027 -0.408 -0.666 -0.411 -0.638 0 0.372 5.551 0.8 11.1 1.032 16.66q0.093 2.259 0.134 4.519a0.319 0.319 0 0 0 0.638 0c-0.1 -5.411 -0.453 -10.812 -0.825 -16.209q-0.172 -2.485 -0.341 -4.97zm49.966 52.261c-0.014 -0.41 -0.653 -0.412 -0.639 0 0.171 5.023 0.112 10.052 0.307 15.075 0.051 1.311 0.123 2.622 0.226 3.93 0.032 0.406 0.67 0.41 0.638 0 -0.38 -4.83 -0.344 -9.681 -0.424 -14.521q-0.036 -2.242 -0.108 -4.484zm3.469 0.001a0.319 0.319 0 0 0 -0.638 0c0 5.016 0.322 10.026 0.345 15.042a83.122 83.122 0 0 1 -0.067 3.963c-0.017 0.411 0.621 0.41 0.639 0 0.21 -4.934 -0.086 -9.877 -0.216 -14.809a167.743 167.743 0 0 1 -0.063 -4.196zm-7.394 -0.003c-0.016 -0.409 -0.654 -0.411 -0.638 0 0.2 5.03 0.336 10.061 0.507 15.092q0.066 1.957 0.142 3.916c0.017 0.41 0.655 0.412 0.639 0 -0.2 -5.029 -0.336 -10.061 -0.507 -15.092q-0.068 -1.958 -0.143 -3.916zm92.747 -53.79c0 -1.846 -0.006 -3.694 -0.076 -5.539 -0.015 -0.409 -0.653 -0.411 -0.638 0 0.133 3.54 0.079 7.088 0.037 10.629 -0.048 4.027 -0.124 8.054 -0.13 12.081 0 1.847 0.007 3.694 0.076 5.539 0.016 0.409 0.654 0.411 0.639 0 -0.134 -3.54 -0.079 -7.088 -0.038 -10.629 0.048 -4.027 0.123 -8.054 0.13 -12.081zm-3.192 -5.539a0.32 0.32 0 0 0 -0.639 0c0.084 3.5 0.084 7 0.089 10.493q0.009 6.277 -0.034 12.557a601.417 601.417 0 0 1 -0.055 5.2 0.32 0.32 0 0 0 0.639 0c0.055 -3.5 0.069 -7 0.081 -10.493q0.021 -6.279 -0.013 -12.557a310.75 310.75 0 0 0 -0.068 -5.2zM77.614 112.8h1.595a0.32 0.32 0 0 0 0 -0.639h-1.595a0.32 0.32 0 0 0 0 0.639zm2.472 -4.429a4.244 4.244 0 0 0 1.428 0.437c0.407 0.052 0.4 -0.587 0 -0.638a3.334 3.334 0 0 1 -1.1 -0.35c-0.37 -0.188 -0.693 0.363 -0.328 0.551zM109.3 89.613c-0.08 -0.4 -0.695 -0.232 -0.615 0.17a12.388 12.388 0 0 0 0.46 1.68c0.134 0.385 0.751 0.219 0.615 -0.17a12.5 12.5 0 0 1 -0.46 -1.68zm4.952 1.952 -0.272 -1.861c-0.06 -0.4 -0.675 -0.233 -0.616 0.17l0.273 1.861c0.063 0.404 0.674 0.232 0.615 -0.17zm-45.396 -4.679a27.856 27.856 0 0 0 2.375 8.863l0.029 0.067 0.03 0.068c0.154 0.334 0.607 0.108 0.578 -0.209a0.334 0.334 0 0 0 -0.027 -0.113c-0.106 -0.231 -0.2 -0.464 -0.3 -0.7a26.95 26.95 0 0 1 -2.043 -7.979c-0.043 -0.403 -0.682 -0.407 -0.642 0.003zm24.76 -10.161c-0.341 -0.231 -0.661 0.322 -0.322 0.551 1.658 1.124 3.343 2.206 5.006 3.324 0.153 0.1 0.308 0.2 0.46 0.306 0.341 0.23 0.661 -0.322 0.322 -0.552 -1.81 -1.229 -3.655 -2.403 -5.466 -3.629zm-34.209 24.426a2.159 2.159 0 0 1 -0.7 -2.752c0.193 -0.362 -0.358 -0.685 -0.551 -0.322a2.81 2.81 0 0 0 0.929 3.625c0.344 0.226 0.664 -0.327 0.322 -0.551zm50.112 -28.211c0.026 0.408 0.665 0.41 0.638 0A3.669 3.669 0 0 0 109 70.464c-0.3 -0.28 -0.753 0.171 -0.451 0.451a3.013 3.013 0 0 1 0.97 2.025zm15.757 16.277a57.167 57.167 0 0 1 4.572 -7.712c0.237 -0.337 -0.316 -0.656 -0.551 -0.322a57.1 57.1 0 0 0 -4.572 7.712c-0.18 0.367 0.375 0.691 0.551 0.322zm2.508 1.366 5.647 -4.819c0.313 -0.268 -0.141 -0.717 -0.452 -0.452l-5.646 4.819c-0.313 0.269 0.14 0.717 0.451 0.452zm-5 -9.308a52.183 52.183 0 0 1 -0.478 6.306c-0.055 0.4 0.56 0.575 0.616 0.169a53.335 53.335 0 0 0 0.5 -6.475 0.319 0.319 0 0 0 -0.638 0zM92.66 50.96c-0.442 -3.762 -0.832 -7.536 -1.45 -11.274a33.362 33.362 0 0 0 -1.065 -4.79 8.159 8.159 0 0 0 -1.226 -2.644 4.489 4.489 0 0 0 -1.251 -1.082 5.7 5.7 0 0 0 -0.881 -0.412 7.367 7.367 0 0 0 -0.527 -0.172 1.161 1.161 0 0 1 -0.424 -0.253 16.226 16.226 0 0 0 -7.973 -3.3 18.712 18.712 0 0 0 -8.67 0.9 20.432 20.432 0 0 0 -3.041 1.367 30.645 30.645 0 0 1 -2.168 -2.8c-0.229 -0.338 -0.782 -0.019 -0.551 0.322a31.583 31.583 0 0 0 2.161 2.808c-0.122 0.072 -0.246 0.139 -0.367 0.213a9.579 9.579 0 0 0 -0.929 -0.284A3.812 3.812 0 0 1 62 28.465c-0.239 -0.329 -0.793 -0.011 -0.551 0.322A3.741 3.741 0 0 0 63.7 30.06c0.279 0.072 0.569 0.139 0.854 0.219a23.577 23.577 0 0 0 -2.836 2.22c-4.725 4.324 -7.542 10.274 -8.922 16.456a54.485 54.485 0 0 0 -1.229 10.37 37.3 37.3 0 0 0 0.554 7.824c0.608 3.275 1.295 6.538 2 9.793 0.119 -0.427 0.242 -0.853 0.372 -1.276a49.477 49.477 0 0 1 3.454 -8.444 42.9 42.9 0 0 1 7.01 -9.925 28.371 28.371 0 0 1 3.486 -3.076c0 -0.029 -0.007 -0.06 -0.009 -0.089a27.108 27.108 0 0 1 -0.031 -4.368 6.8 6.8 0 0 1 -2.7 0.993 3 3 0 0 1 -2.872 -1.727 4.044 4.044 0 0 1 0.272 -3.412 3.245 3.245 0 0 1 2.485 -1.851 3.362 3.362 0 0 1 2.235 1.186 29.034 29.034 0 0 1 2.237 -3.673c3.272 -4.542 8.2 -8.052 13.936 -8.332a0.271 0.271 0 0 1 0.245 0.112 15.951 15.951 0 0 1 4.376 6.926 10.237 10.237 0 0 1 0.52 3.55 9.307 9.307 0 0 1 -0.9 3.394 11.23 11.23 0 0 1 -4.269 4.807l-0.049 0.363a34.427 34.427 0 0 1 -0.268 1.621l1.462 0.5q1.584 0.541 3.166 1.087 2.274 0.791 4.527 1.646 0.33 0.124 0.657 0.252c-0.342 -2.073 -0.563 -4.174 -0.803 -6.246zM35.353 82.774a32.284 32.284 0 0 0 7.66 3.008 0.32 0.32 0 0 0 0.17 -0.616 31.5 31.5 0 0 1 -7.508 -2.944c-0.361 -0.197 -0.683 0.354 -0.322 0.552zm-0.736 5.735h6.915a0.319 0.319 0 0 0 0 -0.638h-6.915a0.319 0.319 0 0 0 0 0.638zm4.36 -11.699a77.043 77.043 0 0 0 4.729 6.53c0.258 0.32 0.707 -0.134 0.451 -0.451a75.9 75.9 0 0 1 -4.629 -6.4c-0.222 -0.345 -0.775 -0.026 -0.551 0.321z" fill="#000000" stroke-width="1"></path>
</svg>