<svg viewBox="0 0 100 100" xmlns="http://www.w3.org/2000/svg" id="Plan-Connection--Streamline-Ux">
  <desc>
    Plan Connection Streamline Illustration: https://streamlinehq.com
  </desc>
  <path d="M10 52.556a40 40 0 1 0 80 0 40 40 0 1 0 -80 0Z" fill="#d9edff" stroke-width="1"></path>
  <path d="m17.685 42.668 31.388 3.138" fill="none" stroke="#020064" stroke-linecap="round" stroke-linejoin="round" stroke-width="1"></path>
  <path d="m30.24 18.604 18.833 27.202L72.09 17.209" fill="none" stroke="#020064" stroke-linecap="round" stroke-linejoin="round" stroke-width="1"></path>
  <path d="M70.685 74.76 49.073 45.806 31.635 67.08" fill="none" stroke="#020064" stroke-linecap="round" stroke-linejoin="round" stroke-width="1"></path>
  <path d="M33.727 45.806a15.345 15.345 0 1 0 30.69 0 15.345 15.345 0 1 0 -30.69 0Z" fill="#ffffff" stroke-width="1"></path>
  <path d="M33.727 45.806a15.345 15.345 0 1 0 30.69 0 15.345 15.345 0 1 0 -30.69 0Z" fill="none" stroke="#020064" stroke-linecap="round" stroke-linejoin="round" stroke-width="1"></path>
  <path d="M33.879 43.642c-2.454 -4.6 -2.992 -8.665 -1 -10.659 3.269 -3.269 12.1 0.264 19.729 7.891S63.77 57.334 60.5 60.6c-1.616 1.615 -4.591 1.569 -8.108 0.188" fill="none" stroke="#020064" stroke-linecap="round" stroke-linejoin="round" stroke-width="1"></path>
  <path d="M61.9 37.385c3.352 -0.068 5.627 0.579 6.1 1.976 1.021 3 -6.629 8.312 -17.085 11.872s-19.76 4.016 -20.78 1.019c-0.476 -1.4 0.932 -3.3 3.63 -5.29" fill="none" stroke="#020064" stroke-linecap="round" stroke-linejoin="round" stroke-width="1"></path>
  <path d="M49.82 40.874a2.79 2.79 0 1 0 5.58 0 2.79 2.79 0 1 0 -5.58 0Z" fill="#b0d9ff" stroke="#020064" stroke-linecap="round" stroke-linejoin="round" stroke-width="1"></path>
  <path d="M43.302 52.445a3.678 3.678 0 1 0 7.356 0 3.678 3.678 0 1 0 -7.356 0Z" fill="#b0d9ff" stroke="#020064" stroke-linecap="round" stroke-linejoin="round" stroke-width="1"></path>
  <path d="M40.703 86.577a8.37 2.092 0 1 0 16.74 0 8.37 2.092 0 1 0 -16.74 0Z" fill="#b0d9ff" stroke-width="1"></path>
  <path d="M62.325 17.209a9.765 9.765 0 1 0 19.53 0 9.765 9.765 0 1 0 -19.53 0Z" fill="#b0d9ff" stroke-width="1"></path>
  <path d="M62.325 17.209a9.765 9.765 0 1 0 19.53 0 9.765 9.765 0 1 0 -19.53 0Z" fill="none" stroke="#020064" stroke-linecap="round" stroke-linejoin="round" stroke-width="1"></path>
  <path d="M24.66 18.604a5.58 5.58 0 1 0 11.16 0 5.58 5.58 0 1 0 -11.16 0Z" fill="#ffffff" stroke-width="1"></path>
  <path d="M24.66 18.604a5.58 5.58 0 1 0 11.16 0 5.58 5.58 0 1 0 -11.16 0Z" fill="none" stroke="#020064" stroke-linecap="round" stroke-linejoin="round" stroke-width="1"></path>
  <path d="M13.5 42.671a4.185 4.185 0 1 0 8.37 0 4.185 4.185 0 1 0 -8.37 0Z" fill="#b0d9ff" stroke-width="1"></path>
  <path d="M13.5 42.671a4.185 4.185 0 1 0 8.37 0 4.185 4.185 0 1 0 -8.37 0Z" fill="none" stroke="#020064" stroke-linecap="round" stroke-linejoin="round" stroke-width="1"></path>
  <path d="M27.45 67.08a4.185 4.185 0 1 0 8.37 0 4.185 4.185 0 1 0 -8.37 0Z" fill="#ffffff" stroke-width="1"></path>
  <path d="M27.45 67.08a4.185 4.185 0 1 0 8.37 0 4.185 4.185 0 1 0 -8.37 0Z" fill="none" stroke="#020064" stroke-linecap="round" stroke-linejoin="round" stroke-width="1"></path>
  <path d="M60.221 73.597a9.065 9.065 0 1 0 18.13 0 9.065 9.065 0 1 0 -18.13 0Z" fill="#ffffff" stroke-width="1"></path>
  <path d="M60.221 73.597a9.065 9.065 0 1 0 18.13 0 9.065 9.065 0 1 0 -18.13 0Z" fill="none" stroke="#020064" stroke-linecap="round" stroke-linejoin="round" stroke-width="1"></path>
</svg>