<svg xmlns="http://www.w3.org/2000/svg" fill="none" viewBox="0 0 200 200" id="Search-User-4--Streamline-Milano">
  <desc>
    Search User 4 Streamline Illustration: https://streamlinehq.com
  </desc>
  <g id="search-user-4--users-people-search-user">
    <g id="elements">
      <path id="vector" fill="#000000" d="M46.1989 40.076c-2.489 -1.12 -10.12 -7.295 -13.259 -10.351 -1.942 -1.891 -1.587 -2.585 0.674 -0.955 3.921 2.827 12.959 10.425 12.977 10.442 0.374 0.375 0.041 0.797 -0.392 0.864Z" stroke-width="1"></path>
      <path id="vector_2" fill="#000000" d="M53.9878 20.8799c-0.421 -5.519 0.897 -4.782 1.258 -2.008 0.501 3.852 0.986 11.802 0.951 12.964 -0.022 0.739 -0.851 0.764 -1.008 0.207 -0.55 -1.946 -0.748 -5.214 -1.201 -11.163Z" stroke-width="1"></path>
      <path id="vector_3" fill="#000000" d="M69.2478 33.7482c0.71 -2.219 4.622 -9.291 6.889 -12.461 1.63 -2.279 2.4 -1.86 1.174 0.66 -1.908 3.923 -6.947 12.002 -7.452 12.34 -0.298 0.199 -0.611 0.124 -0.611 -0.539Z" stroke-width="1"></path>
      <path id="vector_4" fill="#000000" d="M26.1199 52.2588c-1.955 -0.459 -2.158 -1.39 0.206 -1.205 0.102 0.008 13.976 1.451 14.224 1.506 0.338 0.074 0.477 0.568 0.01 0.751 -1.342 0.528 -11.946 -0.466 -14.441 -1.051l0.001 -0.001Z" stroke-width="1"></path>
      <path id="vector_5" fill="#000000" d="M45.3409 66.3719c-0.473 0.955 -2.051 2.337 -10.206 7.467 -1.257 0.791 -1.931 -0.022 -1.452 -0.411 4.646 -3.784 10.46 -7.36 11.097 -7.588 0.325 -0.116 0.589 0.109 0.561 0.532Z" stroke-width="1"></path>
    </g>
    <g id="person">
      <path id="vector_6" fill="#000000" d="M110.379 153.87c0.053 -0.304 0.554 -3.037 0.634 -3.979 0.088 -1.043 4.001 6.645 6.382 11.19 5.987 11.429 8.18 23.778 8.109 25.622 -0.034 0.892 0.369 0.581 -0.616 0.713 -4.113 0.554 -8.586 1.661 -9.952 2.09 -0.762 0.239 -0.933 -15.164 -6.094 -34.805 -0.129 -0.492 1.334 0.328 1.537 -0.831Z" stroke-width="1"></path>
      <path id="vector_7" fill="#000000" d="M108.459 153.389c-1.669 -0.011 -5.508 -1.017 -7.008 -1.479 -1.5311 -0.473 -1.5531 -1.167 -1.331 -3.134 0.024 -0.208 0.147 -1.685 0.353 -2.773 0.801 -4.223 0.215 -3.323 4.905 -2.824 0.726 0.077 2.236 0.377 3.984 1.046 1.283 0.491 1.054 1.135 0.875 2.716 -0.002 0.022 -0.717 5.938 -0.72 5.96 -0.079 0.6 -0.237 0.493 -1.058 0.487v0.001Z" stroke-width="1"></path>
      <path id="vector_8" fill="#000000" d="M52.8768 106.787c1.681 -1.445 2.311 -2.046 4.71 -2.569 4.535 -0.99 7.926 1.704 11.231 4.963 0.934 0.921 2.099 2.185 2.658 3.372 0.453 0.962 -0.034 1.163 -12.928 9.295 -2.389 1.507 -3.136 2.152 -3.82 1.286 -2.328 -2.95 -8.768 -10.399 -1.851 -16.347Z" stroke-width="1"></path>
      <path id="vector_9" fill="#000000" d="M40.6358 100.093c-0.099 -2.915 2.056 -5.4731 4.744 -6.1331 5.672 -1.392 9.761 4.785 6.865 9.4771 -3.421 5.541 -11.807 2.685 -11.609 -3.344Z" stroke-width="1"></path>
      <path id="vector_10" fill="#000000" d="M61.1049 131.912c0.265 -1.079 9.423 -6.632 9.789 -6.446 0.155 0.079 0.403 0.317 0.287 0.467 -0.805 1.042 -6.179 4.557 -7.32 5.245 -1.233 0.743 -2.891 2.011 -2.756 0.733v0.001Z" stroke-width="1"></path>
      <path id="vector_11" fill="#000000" d="M58.1829 127.304c0.132 -0.869 0.69 -1.228 2.912 -2.791 1.523 -1.071 3.481 -2.428 4.83 -3.231 1.202 -0.717 1.665 -0.443 1.461 -0.111 -0.79 1.283 -8.023 6.374 -8.637 6.597 -0.325 0.118 -0.594 -0.101 -0.566 -0.464Z" stroke-width="1"></path>
      <path id="vector_12" fill="#000000" d="M60.2998 129.897c-0.928 -0.035 -0.476 -0.929 0.296 -1.597 1.126 -0.974 2.521 -1.915 4.344 -3.112 0.724 -0.475 1.937 -0.718 1.593 0.078 -0.228 0.527 -0.5 0.655 -3.191 2.572 -2.992 2.131 -2.427 1.766 -3.042 2.059Z" stroke-width="1"></path>
      <path id="vector_13" fill="#000000" d="M117.583 58.204c0.029 1.219 -0.522 1.951 -1.407 2.775 -0.444 0.414 -0.97 0.256 -0.906 -0.097 0.17 -0.93 1.467 -1.61 1.123 -2.959 -0.385 0.103 -1.834 2.041 -3.304 1.09 -0.435 -0.281 -0.395 -0.756 0.048 -0.826 0.387 -0.062 0.823 0.12 1.992 -0.756 0.8 -0.599 1.53 -1.442 2.102 -0.55 0.268 0.418 0.401 0.879 0.352 1.323Z" stroke-width="1"></path>
      <path id="vector_14" fill="#000000" d="M111.73 48.2317c-0.277 2.47 -1.354 3.713 -0.91 4.031 2.122 1.514 3.496 0.298 3.363 1.124 -0.276 1.72 -5.082 0.539 -4.401 -1.632 0.174 -0.553 1.075 -3.339 1.299 -3.874 0.143 -0.34 0.648 -0.406 0.648 0.351h0.001Z" stroke-width="1"></path>
      <path id="vector_15" fill="#000000" d="M116.247 41.142c-0.386 0.525 -0.923 1.625 -1.069 1.839 -0.408 0.594 -1.52 0.165 -0.499 -1.744 1.481 -2.77 4.473 -2.972 5.441 -1.977 0.381 0.392 0.133 0.932 -0.379 0.879 -1.555 -0.162 -2.465 -0.397 -3.494 1.004v-0.001Z" stroke-width="1"></path>
      <path id="vector_16" fill="#000000" d="M108.185 44.366c-0.783 -0.274 -0.958 0.235 -1.163 0.402 -0.474 0.386 -0.824 -0.0911 -0.787 -0.4251 0.157 -1.444 1.816 -1.6339 3.06 -0.8839 1.13 0.682 2.34 -0.471 2.219 0.271 -0.051 0.31 -0.147 0.621 -0.413 0.811 -0.993 0.709 -1.247 0.407 -2.915 -0.176l-0.001 0.001Z" stroke-width="1"></path>
      <path id="vector_17" fill="#000000" d="M115.6 46.6121c0.58 0.364 0.526 1.663 -0.26 1.635 -0.579 -0.02 -0.608 -0.537 -0.726 -1.03 0.058 -0.013 -0.016 -1.234 0.986 -0.605Z" stroke-width="1"></path>
      <path id="vector_18" fill="#000000" d="M107.639 48.3378c-0.01 -1.333 1.645 -0.658 1.11 0.77 -0.151 0.404 -0.649 0.449 -0.916 0.107 -0.138 -0.177 -0.19 -0.384 -0.194 -0.877Z" stroke-width="1"></path>
      <path id="vector_19" fill="#000000" d="M66.5039 70.527c-3.688 -3.406 -6.356 -8.33 -8.283 -12.484 -1.667 -3.594 -2.038 -8.285 -1.785 -9.197 0.158 -0.57 0.678 -0.401 0.686 0.438 0.045 4.728 4.078 12.726 6.942 16.607 3.94 5.34 3.961 4.107 5.56 4.968 0.773 0.417 -0.964 1.659 -3.12 -0.332Z" stroke-width="1"></path>
      <path id="vector_20" fill="#000000" d="M111.353 138.768c-2.091 0.024 -2.906 -2.778 -0.835 -3.648 2.124 -0.893 4.029 1.93 1.962 3.321 -0.331 0.223 -0.713 0.351 -1.127 0.327Zm1.019 -1.859c0.143 -1.14 -2.002 -1.359 -2.005 -0.056 -0.003 1.421 2.17 1.093 2.005 0.056Z" stroke-width="1"></path>
      <path id="vector_21" fill="#000000" d="M163.819 87.2128c-0.564 0.369 -3.694 2.768 -4.923 3.382 -0.704 0.352 -1.583 -2.766 -16.201 -13.81 -1.192 -0.901 -1.718 0.111 3.941 -3.666 0.188 -0.126 0.331 -0.137 0.521 -0.028 5.863 3.362 9.076 4.161 16.662 14.122Zm-3.225 -1.238c0.234 -2.987 -5.001 -3.256 -4.132 0.083 0.71 2.725 4.332 2.417 4.132 -0.083Z" stroke-width="1"></path>
      <path id="vector_22" fill="#000000" d="M158.323 84.5788c0.761 -0.073 1.495 0.837 1.3 1.694 -0.111 0.489 -0.645 0.768 -1.148 0.594 -1.228 -0.424 -1.451 -2.302 -0.152 -2.288Z" stroke-width="1"></path>
      <path id="vector_23" fill="#000000" d="M178.964 193.08c-0.091 -1.523 0.122 -1.48 -0.24 -4.985 -0.383 -3.712 -1.132 -9.321 -2.248 -12.612 -3.286 -9.697 -3.188 -8.281 -5.065 -8.659 -2.242 -0.451 -13.757 -2.985 -13.781 -2.99 -30.588 -6.582 -43.127 -8.866 -40.529 -9.58 1.854 -0.509 53.747 11.597 55.639 11.508 0.627 -0.029 0.661 -0.52 1.15 -3.331 0.292 -1.68 0.169 -2.18 -0.723 -2.488 -3.265 -1.128 -28.804 -7.917 -54.503 -11.67 -2.748 -0.401 -5.92 -0.628 -5.78 -1.353 0.118 -0.61 1.276 -0.322 7.146 0.499 28.912 4.046 54.142 11.727 54.678 11.53 1.624 -0.6 12.777 -75.2701 -22.458 -89.1831 -0.401 -0.158 0.093 0.021 3.378 -13.273 1.404 -5.683 1.962 -6.8 1.184 -7.547 -0.09 -0.086 -0.162 -0.159 -0.313 -0.098 -6.496 2.637 -7.25 3.588 -7.51 3.019 -1.018 -2.227 -0.912 -2.124 -2.312 -3.455 -1.866 -1.774 -2.723 -0.873 -2.134 -2.006 3.106 -5.969 3.062 -13.673 -0.916 -18.928 -0.275 -0.364 -0.418 -0.1 2.407 -1.366 4.81 -2.155 12.699 -5.311 10 -7.134 -2.222 -1.501 -12.964 -0.9 -15.601 -0.676 -0.496 0.042 -0.276 0.075 -0.634 -1.172 -0.288 -1.003 -0.733 -2.496 -1.764 -2.561 -0.8 -0.05 -4.646 -8.66001 -8.472 -9.35801 -2.14 -0.391 -3.794 0.346 -8.221 2.236 -7.907 3.37701 -1.171 2.79801 -9.529 1.909 -3.121 -0.332 -4.125 -0.149 -4.56 -0.133 -1.508 0.054 -2.762 1.45901 -2.956 1.94701 -1.187 2.979 -2.722 8.705 -2.038 11.766 0.09 0.404 -0.711 0.072 -1.073 1.61 -0.341 1.449 -0.211 2.452 0.088 3.423 0.241 0.783 -0.143 -0.211 -10.1561 6.881 -0.534 0.378 -2.652 1.946 -3.266 2.797 -0.49 0.68 -0.146 1.558 0.34 2.083 1.71 1.846 7.977 1.529 10.271 1.216 6.5071 -0.886 6.6031 -1.307 6.4741 -0.757 -0.417 1.77 -0.329 5.503 -0.235 6.838 0.178 2.541 0.103 2.13 0.986 6.965 0.179 0.98 0.005 0.024 -5.8001 2.725 -0.465 0.216 -2.538 1.218 -3.178 1.936 -0.682 0.764 -0.439 1.63 0.077 2.711 3.3271 6.971 7.5701 11.439 7.8201 11.826 -1.511 0.103 -9.1551 -1.027 -9.3711 0.579 -0.897 6.678 2.493 21.907 2.48 22.559 -0.725 -0.427 -0.773 -0.608 -1.022 -0.432 -0.99 0.699 -0.74 1.077 -1.124 0.738 -0.885 -0.779 -1.741 -1.512 -2.72 -2.18 -0.144 -0.098 -0.156 -0.206 -0.075 -0.354 0.709 -1.297 0.749 -1.161 -0.887 -2.457 -2.377 -1.883 -2.748 -1.328 -3.215 -2.327 -1.361 -2.913 -1.743 -3.997 -2.995 -5.041 -1.204 -1.003 -1.947 -0.955 -3.596 -1.029 -0.359 -0.016 -0.237 0.133 -2.277 -3.958 -0.831 -1.666 -1.943 -0.498 -2.259 -1.127 -2.098 -4.181 -2.679 -4.486 -2.121 -4.994 6.23 -5.675 -5.703 -30.262 -14.786 -31.743 -1.682 -0.274 -3.479 0.673 -5.291 1.76 -5.271 3.16 -1.098 17.909 5.967 26.363 7.251 8.676 10.504 5.144 10.73 5.733 0.236 0.617 0.385 0.937 2.418 4.52 0.291 0.513 -0.751 1.189 -0.6 1.98 0.281 1.476 2.711 5.519 3.487 6.755 0.219 0.35 -0.178 0.317 -0.723 1.083 -0.111 0.156 -0.404 0.703 -0.346 0.992 0.225 1.127 1.162 0.913 0.951 1.626 -0.193 0.652 0.199 0.929 0.873 1.026 0.246 0.035 0.247 0.025 0.177 0.287 -0.172 0.635 0.138 1.102 0.787 1.17 0.562 0.059 0.797 -0.143 0.889 0.245 0.165 0.692 1.079 0.912 1.662 0.725 0.323 -0.104 0.156 0.077 1.478 2.61 3.575 6.8481 4.108 8.5201 6.013 8.1541 1.92 -0.37 1.938 -0.847 2.169 -0.492 12.9471 19.929 14.6381 17.187 10.1351 17.256 -0.553 0.009 -0.874 0.289 -0.852 -0.114 0.113 -2.034 0.75 -1.774 -3.8831 -1.643 -1.621 0.045 -1.572 0.294 -3.409 0.298 -0.628 0.001 -0.008 -0.022 -1.196 -1.944 -3.424 -5.544 -5.22 -5.108 -5.625 -5.72 -10.318 -15.5981 -20.122 -19.9991 -32.324 -34.4181 -0.238 -0.281 -0.543 -0.377 -0.923 -0.206 -5.196 2.325 -9.132 6.052 -16.225 11.355 -7.265 5.433 -14.516 7.436 -15.866 8.987 -0.154 0.177 -0.066 0.4441 0.143 0.4191 0.358 -0.042 0.428 0.195 0.551 0.417 2.617 4.718 16.423 15.918 25.805 26.901 10.337 12.102 9.591 13.979 10.738 13.296 0.022 -0.013 23.126 -14.376 23.147 -14.39 0.507 -0.338 3.215 2.061 4.591 2.378 1.027 0.236 2.066 0.438 3.125 0.427 1.598 -0.016 5.799 2.948 8.769 3.54 0.583 0.116 0.627 -0.143 0.943 -0.862 2.1141 1.084 1.8511 0.936 4.4661 2.018 0.227 0.094 0.157 0.019 -0.131 1.097 -0.392 1.47 -0.873 4.371 -0.834 5.997 0.028 1.178 -0.104 0.389 3.969 1.063 1.556 0.258 3.483 0.846 4.498 2.03 0.781 0.911 0.892 1.351 0.547 3.525 -0.119 0.75 -0.162 0.837 0.436 1.708 4.669 6.804 8.227 14.077 9.55 17.335 2.914 7.175 4.864 16.08 5.048 18.737 0.206 2.98 1.021 2.849 -3.021 3.524 -3.544 0.592 -4.475 1.065 -8.495 1.777 -1.478 0.262 -1.1 0.466 -1.675 -3.941 -0.696 -5.332 -2.776 -21.109 -4.12 -26.315 -1.56 -6.043 -1.115 -6.005 -1.591 -6.039 -1.313 -0.094 -6.739 -1.329 -7.9051 -1.939 -0.153 -0.08 -0.194 0.032 -0.229 0.114 -15.151 36.228 -7.967 37.949 -14.908 32.234 -0.885 -0.729 -0.802 -0.95 -0.763 -1.205 0.06 -0.395 0.25 -0.193 1.852 0.857 1.813 1.188 1.9 1.378 1.978 1.04 3.017 -13.023 8.925 -30.207 11.308 -33.933 0.272 -0.426 0.154 -0.477 0.292 -1.867 0.242 -2.43 0.8721 -3.766 -0.906 -2.506 -3.783 2.68 -7.913 5.943 -12.58 17.03 -1.387 3.296 -5.327 12.489 -5.932 16.548 -0.098 0.659 0.211 0.616 0.575 0.922 1.976 1.659 2.092 1.603 2.026 2.087 -0.146 1.069 -0.279 5.611 -0.089 8.266 0.306 4.271 6.239 2.291 44.9351 2.889 0.022 0 50.068 0.077 50.895 -0.167 0.632 -0.186 0.873 -1.204 0.841 -1.742l0.003 -0.002ZM56.9299 60.2519c-1.672 -3.619 -4.107 -10.762 -2.498 -14.41 3.308 -7.497 17.62 6.905 18.922 23.084 -0.101 11.216 -10.736 3.639 -16.423 -8.675l-0.001 0.001Zm15.614 14.473c0.043 -0.065 0.399 -0.154 1.759 -0.811 0.449 -0.216 -0.233 0.135 3.282 5.726 -0.397 0.433 -0.985 0.72 -1.519 0.971 -0.146 0.069 -0.291 0.056 -0.372 -0.147 -0.947 -2.372 -3.234 -5.612 -3.151 -5.738l0.001 -0.001Zm5.694 16.191c0.002 -0.127 0.006 -0.378 0 0 -0.388 -0.014 -0.54 -0.478 -0.255 -0.703 0.381 -0.302 0.483 -0.358 1.561 -0.871 0.356 -0.17 0.696 0.369 0.372 0.594 -1.44 0.992 -1.43 0.986 -1.678 0.98Zm1.535 1.79c-0.643 0.256 -1.046 -0.262 -0.408 -0.712 0.29 -0.204 1.137 -0.691 1.828 -0.965 0.298 -0.118 0.478 -0.021 0.547 0.109 0.183 0.343 -0.281 0.582 -0.606 0.785 -0.889 0.555 -1.164 0.704 -1.361 0.783Zm1.69 1.641c-0.647 0.36 -0.975 -0.172 -0.708 -0.503 0.25 -0.31 1.342 -0.887 2.002 -1.168 0.678 -0.287 1.124 0.206 0.409 0.643 -1.106 0.675 -1.507 0.919 -1.703 1.028Zm10.062 9.7371c-0.63 0.565 -1.356 0.947 -2.174 1.163 -1.662 0.438 -1.264 0.332 -5.565 -7.6521 -1.172 -2.176 -1.403 -2.062 -0.983 -2.258 3.547 -1.653 2.754 -3.582 1.295 -3.186 -0.096 0.026 -0.2 0.023 -0.3 0.033 0.213 -0.57 0.21 -0.461 0.271 -0.638 0.429 -1.245 -1.245 -0.922 -1.433 -0.93 0.192 -0.542 0.257 -0.561 0.281 -0.741 0.075 -0.561 -0.374 -0.966 -0.928 -0.846 -0.613 0.132 -0.8 0.251 -0.992 0.221 0.068 -0.164 0.524 -0.534 0.616 -0.804 0.19 -0.551 0.002 -0.981 -0.623 -1.032 -1.009 -0.083 -1.708 0.25 -2.475 0.591 -0.384 0.17 -0.373 0.163 -0.567 -0.206 -0.821 -1.558 -2.234 -4.156 -2.927 -5.447 -0.339 -0.631 0.733 0.225 3.016 -1.59 0.654 -0.52 0.736 -0.909 0.901 -0.607 1.506 2.755 0.932 1.749 1.577 2.809 0.238 0.392 0.09 0.167 -1.479 0.486 -1.208 0.245 -2.149 1.157 -1.15 1.856 2.261 1.581 5.281 1.207 5.335 1.77 0.11 1.128 0.789 2.684 1.883 3.389 0.425 0.274 0.203 0.378 0.776 1.579 1.514 3.169 0.403 0.626 5.323 10.4681 0.627 1.254 0.643 1.283 0.322 1.572Zm0.498 -3.058c-0.197 0.189 -0.213 0.199 -0.349 -0.062 -1.669 -3.1971 -1.687 -3.1461 -1.535 -3.2621 0.903 -0.69 2.033 -2.504 2.045 -2.528 0.109 -0.214 0.037 -0.105 2.187 1.54 0.432 0.331 0.643 0.595 0.803 0.792 -0.977 1.222 -1.649 2.078 -3.151 3.5201Zm-8.264 22.004c-2.09 -1.766 -7.269 -4.811 -7.194 -2.053 0.118 0.294 0.091 0.6 1.168 1.893 2.368 2.843 3.433 2.708 2.95 3.021 -6.753 4.378 -4.268 2.431 -16.173 9.877 -6.533 4.086 -6.045 4.707 -6.372 4.153 -9.26 -15.681 -23.404 -26.33 -35.636 -39.821 -0.426 -0.4701 2.189 -1.0761 9.097 -4.5671 7.112 -3.595 10.537 -8.349 21.672 -15.212 0.385 -0.237 -0.092 0.084 3.697 4.182 12.822 13.868 18.049 14.09 31.476 34.4161 0.514 0.778 0.407 0.569 -0.042 0.929 -4.403 3.525 -4.201 3.555 -4.643 3.182Zm8.44 3.06c-0.337 0 -0.339 -0.115 -1.645 -1.324 -0.873 -0.82 -2.07 -0.652 -3.189 -0.566 -0.803 0.059 -1.192 -0.034 -1.224 -0.292 -0.037 -0.306 0.522 -0.513 1.058 -0.605 2.358 -0.403 4.079 -0.184 5.373 2.164 0.182 0.331 -0.027 0.625 -0.373 0.625v-0.002Zm76.4321 -32.1641c1.654 -0.87 4.119 18.8081 -5.403 39.6531 -1.434 3.139 -2.715 4.855 -5.008 6.917 -2.2 1.978 -4.651 3.642 -7.395 4.745 -9.226 3.708 -25.61 -1.567 -27.958 -2.182 -1.649 -0.432 -2.979 -1.139 -6.78 -2.944 -0.233 -0.111 -0.459 -0.179 -0.304 -0.345 0.298 -0.32 0.376 -0.226 2.823 0.602 8.315 2.812 16.885 4.994 25.342 4.856 7.919 -0.128 14.241 -5.257 16.52 -9.263 11.246 -19.771 7.857 -41.8781 8.165 -42.0401l-0.002 0.001Zm-59.114 12.1891c2.008 -13.9031 6.598 -30.0341 7.217 -31.4091 0.48 -1.067 3.005 -0.949 5.422 -0.969 0.294 -0.002 0.236 0.005 0.506 0.352 -0.586 0.315 -1.519 0.126 -4.144 0.59 -0.725 0.128 -0.934 0.377 -1.036 0.838 -0.644 2.901 -4.966 18.009 -6.369 26.6411 -1.451 8.926 -2.039 17.608 -2.316 18.069 -0.3 0.498 -0.712 0.227 -0.73 -0.147 -0.099 -2.064 1.132 -11.754 1.451 -13.963l-0.001 -0.002Zm-1.456 -32.0941c-0.428 -0.835 0.898 -1.674 2.013 1.785 -0.055 0.039 -0.111 0.107 -0.176 0.119 -0.576 0.099 -1.553 -1.347 -1.838 -1.903l0.001 -0.001Zm11.139 3.666c-0.715 -0.224 -0.505 -1.047 0.014 -1.114 1.162 -0.148 2.206 -0.292 3.237 0.3 0.41 0.235 -0.225 0.622 -0.78 0.714 -0.503 0.083 -2.122 0.208 -2.471 0.1Zm-0.741 4.836c-0.56 1.002 -0.639 0.615 -0.779 -0.265 0.414 -3.94 1.549 -2.898 1.568 -2.488 0.027 0.586 -0.444 2.134 -0.789 2.753Zm-2.338 5.686c0.073 -0.811 0.237 -1.602 0.549 -2.357 0.193 -0.467 0.413 -0.484 0.665 -0.418 0.816 0.213 -1.214 5.844 -1.214 2.775Zm0.071 4.235c-0.317 0.953 -0.586 2.144 -1.226 2.996 -0.373 0.496 -0.413 -0.468 -0.45 -0.733 0.015 -0.531 0.5 -3.192 1.255 -3.141 0.461 0.032 0.547 0.5 0.421 0.878Zm-5.201 22.3361c0.225 -0.436 0.867 -0.232 0.848 0.188 -0.063 1.404 -0.166 1.493 -0.61 2.858 -0.035 0.107 -0.058 0.268 -0.219 0.226 -0.41 -0.109 -0.343 -0.009 -0.435 -0.838 0.25 -2.099 0.198 -2.012 0.416 -2.434Zm0.528 -3.52c-0.054 -0.925 0.3 -2.094 0.486 -2.354 0.336 -0.469 0.845 -0.02 0.758 0.478 -0.378 2.163 -1.244 4.072 -1.244 1.876Zm0.799 -5.477c0.094 -0.645 0.171 -1.226 0.268 -1.803 0.169 -1.003 1.24 -0.603 1.104 0.12 -0.162 0.862 -0.278 1.735 -0.596 2.562 -0.448 1.164 -0.534 0.327 -0.776 -0.879Zm1.212 -4.194c-0.136 0.018 -0.157 -0.325 -0.274 -1.099 0.029 -0.6081 0.272 -2.1401 0.545 -2.6281 0.247 -0.442 0.846 -0.228 0.843 0.193 -0.006 0.623 -0.629 3.4721 -1.114 3.5341Zm23.76 -20.8981c-0.381 1.796 -7.604 6.592 -14.33 17.251 -8.151 12.9171 -8.199 20.5921 -8.738 17.7121 3.501 -17.7161 20.66 -35.2661 23.069 -34.9641l-0.001 0.001Zm-12.82 -4.139c1.238 -0.489 3.908 -0.129 3.937 0.569 0.016 0.398 -3.264 0.569 -3.783 0.478 -0.648 -0.114 -0.734 -0.818 -0.154 -1.047Zm5.689 -12.024c1.083 0.804 2.43 3.392 1.459 3.131 -0.82 -0.22 -0.849 -0.621 -1.989 -2.032 -0.609 -0.754 0.126 -1.399 0.53 -1.099Zm-1.917 -1.446c-0.545 -0.139 -0.452 -0.898 0.235 -1.101 0.93 -0.274 3.545 -0.708 2.97 -0.015 -0.871 1.052 -2.794 1.221 -3.206 1.116h0.001Zm6.07 13.784c0.077 0.764 -3.115 0.979 -3.717 0.54 -0.371 -0.271 -0.298 -0.779 0.13 -0.946 0.353 -0.137 3.513 -0.332 3.587 0.406Zm2.991 -0.521c1.102 0.667 -1.728 1.643 -1.781 0.41 -0.026 -0.608 0.982 -0.894 1.781 -0.41Zm-2.667 -2.734c-0.236 -0.563 0.25 -0.719 0.483 -0.87 1.487 0.706 1.98 3.24 0.962 2.723 -0.58 -0.295 -1.194 -1.252 -1.445 -1.853Zm-0.77 -12.073c-0.451 0.006 -0.653 -0.524 -0.278 -0.839 0.567 -0.475 3.169 -1.083 3.373 -0.741 0.132 0.221 -1.808 1.563 -3.095 1.58Zm-0.424 7.653c0.988 0.984 1.557 2.633 0.854 2.299 -0.751 -0.357 -1.273 -0.94 -1.623 -1.683 -0.258 -0.547 0.416 -0.968 0.769 -0.616Zm1.507 54.9581c0.868 0.045 0.121 -2.84 3.185 -15.604 2.159 -8.9951 6.948 -22.2191 8.058 -21.3801 1.103 0.834 -5.808 9.771 -9.575 35.7451 -0.201 1.385 -0.241 1.421 0.043 1.454 0.702 0.081 4.395 0.425 4.394 0.916 -0.002 0.601 -1.312 0.443 -1.927 0.364 -8.107 -1.034 -12.837 -1.031 -14.632 -1.19 -0.861 -0.077 -1.333 -0.23 -2.867 -0.396 -2.418 -0.26 -3.019 -0.22 -3.412 -0.784 0.618 -0.388 16.051 0.839 16.733 0.875Zm4.067 -65.0381c0.427 -0.569 1.897 -0.975 2.737 -1.035 1.723 0 -1.306 1.452 -2.096 1.709 -0.498 0.162 -0.943 -0.271 -0.64 -0.675l-0.001 0.001Zm21.979 22.907c1.91 2.262 1.103 1.302 3.058 4.192 0.395 0.584 1.025 1.163 0.449 1.7 -1.471 1.372 -3.032 2.395 -4.645 3.21 -1.356 0.686 -0.585 0.898 -6.63 -4.303 -9.337 -8.034 -10.96 -8.75 -11.97 -9.921 -1.136 -1.316 3.96 -4.312 5.442 -4.863 0.999 0.114 8.766 3.435 14.296 9.985Zm-13.937 -25.811c0.139 -0.007 0.203 0.181 0.094 0.283 -3.383 3.204 -4.167 -0.071 -0.094 -0.283Zm2.415 -1.037c0.846 -0.434 3.526 -1.418 3.174 -0.85 -0.608 0.983 -2.022 1.616 -3.141 1.907 -0.539 0.025 -0.859 -0.633 -0.033 -1.057Zm-6.899 -27.149c1.391 2.557 2.838 4.878 2.762 9.487 -0.132 7.996 -3.871 9.335 -1.669 10.65 0.595 0.355 1.071 0.349 1.755 0.981 1.651 1.527 1.254 1.174 2.352 3.358 0.08 0.16 0.056 0.24 -0.742 0.551 -6.94 2.704 -6.995 2.736 -8.126 3.075 -5.237 1.569 -5.209 1.619 -5.23 1.623 -0.699 0.124 0.003 0.284 0.092 -5.684 0.015 -1.02 -0.147 -0.903 0.521 -0.855 0.831 0.06 2.41 0.573 3.942 -0.671 3.459 -2.807 3.01 -10.261 -1.532 -9.5 -1.779 0.298 -2.352 1.43 -4.193 0.913 -2.457 -0.689 -6.306 -4.009 -7.438 -7.512 -0.135 -0.417 1.469 -0.201 13.378 -5.055 4.033 -1.644 3.849 -1.872 4.126 -1.362l0.002 0.001Zm-39.534 -0.005c-0.604 -0.131 -0.734 -0.271 -0.787 -0.981 -0.059 -0.794 -0.035 -1.595 0.092 -2.387 0.098 -0.607 0.386 -0.724 0.717 -0.702 9.982 0.666 25.302 -4.243 34.43 -8.338 0.504 -0.226 0.535 -0.128 0.934 1.109 0.597 1.852 0.667 1.885 0.364 2.043 -2.383 1.244 -5.454 2.784 -8.009 3.621 -7.329 2.399 -10.547 3.714 -17.026 5.008 -2.277 0.455 -8.164 1.18 -10.715 0.626v0.001Zm2.735 12.04c0.024 -0.639 -0.031 -0.106 12.085 -3.597 6.429 -1.852 6.049 -2.038 6.26 -1.475 0.743 1.989 1.336 3.033 2.684 4.519 1.485 1.638 4.209 3.768 6.564 3.864 1.451 0.059 2.495 -0.993 3.628 -1.124 3.582 -0.416 2.32 7.937 -0.743 7.806 -2.904 -0.124 -3.491 -0.375 -3.532 0.551 0 0.021 -0.303 6.438 -0.324 6.438 0 0.908 0.07 1.057 -0.221 1.133 -8.629 2.252 -7.924 1.431 -8.858 2.261 -0.393 0.349 -0.25 0.758 3.979 7.152 3.202 4.843 4.675 6.098 4.556 6.294 -0.09 0.149 -6.665 -0.274 -8.197 -0.208 -0.077 0.003 -0.2 -0.12 -0.223 -0.272 -0.187 -1.278 -1.205 -4.845 -1.349 -5.227 -1.321 -3.496 -0.804 -4.162 -3.089 -3.587 -4.719 1.187 -7.08 -0.837 -9.541 -4.287 -1.92 -2.693 -3.506 -9.774 -3.672 -12.779 -0.387 -6.987 -0.082 -5.365 -0.004 -7.463l-0.003 0.001Zm0.265 29.378c0.098 0.069 0.22 0.126 0.281 0.221 1.272 2.003 1.032 1.737 1.134 2.097 -0.03 0.946 -1.533 -0.442 -2.051 -1.807 -0.115 -0.304 0.323 -0.733 0.637 -0.512l-0.001 0.001Zm1.442 6.271c0.288 0.414 -1.137 0.994 -2.249 0.675 -0.592 -0.17 -0.414 -0.818 0.022 -0.923 0.542 -0.131 1.954 -0.144 2.227 0.248Zm-0.669 41.4561c-0.175 1.165 -1.173 -1.1 -1.254 -2.378 -0.014 -0.227 0.856 -1.36 1.254 2.378Zm-2.012 -59.6021c0.022 0 0.423 -0.024 0.439 0.081 0.011 0.074 -0.001 0.19 -0.051 0.229 -0.573 0.451 -0.97 0.74 -1.634 0.992 -0.567 0.215 -1.483 -0.807 1.246 -1.302Zm-5.5781 2.629c0.396 -0.373 1.2861 -0.789 2.1681 -0.851 0.18 -0.013 0.489 0.212 0.219 0.467 -0.633 0.599 -1.609 1.076 -2.0111 1.113 -0.613 0.017 -0.624 -0.495 -0.376 -0.729Zm2.5881 4.113c-0.388 -0.186 -1.9801 -2.426 -1.262 -2.653 0.274 -0.087 0.461 -0.055 0.686 0.303 1.177 1.873 1.002 1.607 1.111 1.915 -0.008 0.392 -0.267 0.563 -0.535 0.435Zm2.313 3.757c-0.872 -0.728 -2.044 -2.664 -0.909 -2.687 0.575 -0.012 1.053 1.327 1.578 2.726 0.15 0.399 -0.451 0.143 -0.669 -0.039Zm1.448 44.5731c0 0.52 0.033 0.372 -0.218 0.521 -0.449 0.266 -1.041 -1.966 -1.207 -2.524 -0.36 -1.209 0.994 -1.886 1.425 2.003Zm-1.576 -5.273c-0.034 0.157 -0.058 0.257 -0.078 0.358 -0.086 0.43 -0.841 0.613 -1.178 -2.518 -0.034 -0.318 0.488 -0.5 0.691 -0.26 0.274 0.326 0.202 0.151 0.565 2.42Zm-2.983 -31.6181c0.504 -0.394 2.344 -0.363 2.413 0.214 0.034 0.284 -0.388 0.325 -1.81 0.64 -0.748 -0.102 -0.933 -0.596 -0.603 -0.854Zm0.989 26.8641c-0.46 -0.813 -0.728 -2.068 -0.815 -2.9221 -0.066 -0.65 0.666 -0.653 0.823 -0.135 0.269 0.8831 0.346 1.6421 0.534 2.8961 0.021 0.365 -0.386 0.437 -0.542 0.161Zm-1.147 -8.3711c0.326 2.107 0.181 2.468 0.12 2.774 -0.025 0.127 -0.208 0.167 -0.28 0.054 -0.157 -0.246 -0.338 -0.493 -0.424 -0.766 -1.0061 -3.208 0.438 -3.001 0.584 -2.062Zm-1.2401 -2.815c-0.391 0.058 -1.229 -2.843 -0.404 -3.014 0.248 -0.051 0.564 0.17 0.606 0.61 0.2111 2.193 0.162 2.351 -0.202 2.404Zm-2.165 -14.979c-0.37 -0.091 -0.486 -0.578 -0.091 -0.787 0.304 -0.161 0.326 -0.195 1.922 0.084 0.201 0.035 0.538 0.261 0.392 0.396 -0.268 0.249 -0.369 0.228 -1.344 0.461 -0.336 -0.058 -0.611 -0.09 -0.878 -0.155l-0.001 0.001Zm1.277 1.871c0.326 0.785 0.158 2.373 -0.063 2.793 -0.193 0.366 -0.62 -0.298 -0.689 -0.955 -0.276 -2.633 0.643 -2.099 0.752 -1.838Zm-0.466 5.18c0.918 -1.407 1.148 2.064 0.806 2.273 -0.198 0.122 -0.27 0.125 -0.355 -0.082 -0.504 -1.219 -0.499 -2.12 -0.452 -2.192l0.001 0.001Zm1.11 14.618c0.239 0.89 0.6431 2.8341 2.1021 8.1701 3.572 13.069 5.115 13.581 4.494 14.408 -0.209 0.279 -0.604 -0.064 -0.762 -0.411 -3.961 -8.704 -6.1261 -18.49 -6.4891 -21.9711 -0.107 -1.029 0.499 -0.777 0.655 -0.196Zm4.3441 34.9281c-4.6331 -2.153 -4.5531 -1.872 -4.5051 -2.395 1.3981 -6.438 0.9331 -6.516 1.4701 -6.423 0.41 0.071 5.625 0.022 5.838 0.02 2.765 -0.026 2.526 -0.571 2.136 1.356 -0.249 1.23 -1.542 7.479 -1.885 8.686 -0.086 0.302 -0.018 0.167 -3.054 -1.244Zm3.157 6.314c-0.285 -0.2 -0.336 -0.382 -0.229 -0.723 1.926 -6.138 2.97 -12.631 3.007 -13.024 0.253 -2.677 -0.05 -2.237 2.65 -2.415 3.817 0.167 2.796 0.095 4.673 0.337 1.254 0.162 -2.594 17.19 -2.851 17.622 -0.286 0.479 -0.298 0.671 -1.007 0.454 -5.083 -1.562 -5.022 -1.397 -6.242 -2.25l-0.001 -0.001Zm-4.152 19.013c-5.3111 21.023 -6.3021 28.018 -7.0451 28.144 -0.155 0.026 -0.314 -0.161 -0.331 -0.332 -0.092 -0.943 6.0181 -29.586 7.3251 -29.284 0.477 0.11 0.288 0.535 0.051 1.472Z" stroke-width="1"></path>
    </g>
  </g>
</svg>