<svg xmlns="http://www.w3.org/2000/svg" fill="none" viewBox="0 0 100 100" id="Business-Deal-4--Streamline-Ux">
  <desc>
    Business Deal 4 Streamline Illustration: https://streamlinehq.com
  </desc>
  <path fill="#d9edff" d="M49.388 91.5298c22.0914 0 40 -17.9086 40 -40s-17.9086 -40 -40 -40 -40 17.9086 -40 40 17.9086 40 40 40Z" stroke-width="1"></path>
  <path fill="#ffffff" stroke="#020064" stroke-linecap="round" stroke-linejoin="round" d="M40.53 2.27783H10.859c-0.9745 0 -1.93944 0.19201 -2.83969 0.56505 -0.90025 0.37304 -1.71819 0.9198 -2.40706 1.60905 -0.68888 0.68925 -1.2352 1.50747 -1.60776 2.40793 -0.37255 0.90045 -0.56404 1.86549 -0.56351 2.83997V28.9818c0 1.9674 0.78154 3.8542 2.17268 5.2453 1.39115 1.3912 3.27794 2.1727 5.24534 2.1727h20.346l5.282 7.394c0.086 0.1206 0.2061 0.2127 0.345 0.2644 0.1388 0.0516 0.29 0.0605 0.4339 0.0254 0.1439 -0.0351 0.274 -0.1125 0.3735 -0.2223 0.0995 -0.1097 0.1638 -0.2468 0.1846 -0.3935l1.01 -7.068h1.7c1.9674 0 3.8542 -0.7815 5.2453 -2.1727 1.3911 -1.3911 2.1727 -3.2779 2.1727 -5.2453V9.69983c0.0005 -0.97482 -0.1911 -1.94018 -0.5639 -2.8409 -0.3728 -0.90071 -0.9195 -1.71912 -1.6088 -2.40842s-1.5077 -1.23598 -2.4084 -1.60878c-0.9007 -0.37281 -1.8661 -0.56442 -2.8409 -0.5639v0Z" stroke-width="1"></path>
  <path fill="#ffffff" stroke="#020064" stroke-linecap="round" stroke-linejoin="round" d="M59.47 2.27783h29.671c0.9745 0 1.9394 0.19201 2.8396 0.56505 0.9003 0.37304 1.7182 0.9198 2.4071 1.60905 0.6889 0.68925 1.2352 1.50747 1.6078 2.40793 0.3725 0.90045 0.564 1.86549 0.5635 2.83997V28.9818c0 1.9674 -0.7816 3.8542 -2.1727 5.2453 -1.3912 1.3912 -3.278 2.1727 -5.2453 2.1727H68.8l-5.282 7.394c-0.086 0.1206 -0.2062 0.2127 -0.345 0.2644 -0.1389 0.0516 -0.29 0.0605 -0.4339 0.0254 -0.1439 -0.0351 -0.274 -0.1125 -0.3735 -0.2223 -0.0995 -0.1097 -0.1638 -0.2468 -0.1846 -0.3935l-1.015 -7.068h-1.7c-1.9674 0 -3.8542 -0.7815 -5.2453 -2.1727 -1.3912 -1.3911 -2.1727 -3.2779 -2.1727 -5.2453V9.69983c-0.0006 -0.97482 0.1911 -1.94018 0.5639 -2.8409 0.3728 -0.90071 0.9195 -1.71912 1.6088 -2.40842s1.5077 -1.23598 2.4084 -1.60878c0.9007 -0.37281 1.8661 -0.56442 2.8409 -0.5639v0Z" stroke-width="1"></path>
  <path fill="#b0d9ff" d="M38.775 16.0879H12.7819c-0.6953 0 -1.259 0.5637 -1.259 1.259v12.183c0 0.6953 0.5637 1.259 1.259 1.259H38.775c0.6953 0 1.259 -0.5637 1.259 -1.259v-12.183c0 -0.6953 -0.5637 -1.259 -1.259 -1.259Z" stroke-width="1"></path>
  <path fill="#b0d9ff" d="M25.778 32.9108c8.857 0 16.037 -0.5982 16.037 -1.336 0 -0.7379 -7.18 -1.336 -16.037 -1.336s-16.03703 0.5981 -16.03703 1.336c0 0.7378 7.18003 1.336 16.03703 1.336Z" stroke-width="1"></path>
  <path stroke="#020064" stroke-linecap="round" stroke-linejoin="round" d="M38.775 16.0879H12.7819c-0.6953 0 -1.259 0.5637 -1.259 1.259v12.183c0 0.6953 0.5637 1.259 1.259 1.259H38.775c0.6953 0 1.259 -0.5637 1.259 -1.259v-12.183c0 -0.6953 -0.5637 -1.259 -1.259 -1.259Z" stroke-width="1"></path>
  <path fill="#b0d9ff" d="M11.0779 12.079v6c0.0001 0.1954 0.0643 0.3854 0.1828 0.5408 0.1185 0.1554 0.2848 0.2675 0.4732 0.3192l9.029 2.461c0.0763 0.0211 0.155 0.0319 0.234 0.032h9.562c0.0795 -0.0001 0.1585 -0.0109 0.235 -0.032l9.029 -2.462c0.1885 -0.0517 0.3548 -0.1638 0.4733 -0.3192 0.1185 -0.1554 0.1827 -0.3454 0.1827 -0.5408v-6c0.0002 -0.117 -0.0228 -0.233 -0.0675 -0.3411 -0.0447 -0.1082 -0.1104 -0.2065 -0.1931 -0.2892 -0.0828 -0.0828 -0.1811 -0.1484 -0.2892 -0.1931 -0.1082 -0.0448 -0.2241 -0.0677 -0.3412 -0.0676h-27.619c-0.1171 -0.0001 -0.2331 0.0229 -0.3413 0.0677 -0.1082 0.0448 -0.2066 0.1105 -0.2893 0.1933 -0.0828 0.0829 -0.1484 0.1813 -0.1931 0.2896 -0.0447 0.1083 -0.0675 0.2243 -0.0673 0.3414Z" stroke-width="1"></path>
  <path stroke="#020064" stroke-linecap="round" stroke-linejoin="round" d="M11.0779 12.079v6c0.0001 0.1954 0.0643 0.3854 0.1828 0.5408 0.1185 0.1554 0.2848 0.2675 0.4732 0.3192l9.029 2.461c0.0763 0.0211 0.155 0.0319 0.234 0.032h9.562c0.0795 -0.0001 0.1585 -0.0109 0.235 -0.032l9.029 -2.462c0.1885 -0.0517 0.3548 -0.1638 0.4733 -0.3192 0.1185 -0.1554 0.1827 -0.3454 0.1827 -0.5408v-6c0.0002 -0.117 -0.0228 -0.233 -0.0675 -0.3411 -0.0447 -0.1082 -0.1104 -0.2065 -0.1931 -0.2892 -0.0828 -0.0828 -0.1811 -0.1484 -0.2892 -0.1931 -0.1082 -0.0448 -0.2241 -0.0677 -0.3412 -0.0676h-27.619c-0.1171 -0.0001 -0.2331 0.0229 -0.3413 0.0677 -0.1082 0.0448 -0.2066 0.1105 -0.2893 0.1933 -0.0828 0.0829 -0.1484 0.1813 -0.1931 0.2896 -0.0447 0.1083 -0.0675 0.2243 -0.0673 0.3414v0Z" stroke-width="1"></path>
  <path fill="#ffffff" stroke="#020064" stroke-linecap="round" stroke-linejoin="round" d="M27.192 25.443h-2.827c-0.334 0 -0.6542 -0.1326 -0.8903 -0.3687 -0.2361 -0.2361 -0.3687 -0.5564 -0.3687 -0.8903V22.77h5.345v1.414c0 0.3339 -0.1327 0.6542 -0.3688 0.8903 -0.2361 0.2361 -0.5563 0.3687 -0.8902 0.3687Z" stroke-width="1"></path>
  <path fill="#ffffff" stroke="#020064" stroke-linecap="round" stroke-linejoin="round" d="M25.778 17.4238c-0.3513 0 -0.6991 0.0693 -1.0235 0.2038s-0.6192 0.3317 -0.8673 0.5803c-0.2482 0.2485 -0.445 0.5435 -0.579 0.8682 -0.134 0.3246 -0.2028 0.6725 -0.2022 1.0237h5.345c0.0004 -0.3512 -0.0685 -0.6992 -0.2026 -1.0238 -0.1342 -0.3247 -0.331 -0.6197 -0.5793 -0.8682 -0.2482 -0.2485 -0.543 -0.4457 -0.8675 -0.5802 -0.3245 -0.1345 -0.6724 -0.2038 -1.0236 -0.2038v0Z" stroke-width="1"></path>
  <path fill="#b0d9ff" stroke="#020064" stroke-linecap="round" stroke-linejoin="round" d="M20.8779 9.40591v1.78199h1.782V9.40591c0 -0.23631 0.0939 -0.46294 0.261 -0.63003 0.1671 -0.1671 0.3937 -0.26097 0.63 -0.26097h4.455c0.2363 0 0.463 0.09387 0.6301 0.26097 0.1671 0.16709 0.2609 0.39372 0.2609 0.63003v1.78199h1.782V9.40591c0 -0.70892 -0.2816 -1.38881 -0.7829 -1.8901 -0.5013 -0.50128 -1.1811 -0.7829 -1.8901 -0.7829h-4.455c-0.7089 0 -1.3888 0.28162 -1.8901 0.7829 -0.5013 0.50129 -0.7829 1.18118 -0.7829 1.8901v0Z" stroke-width="1"></path>
  <path fill="#ffffff" stroke="#020064" stroke-linecap="round" stroke-linejoin="round" d="M29.8559 20.0967h-8.156c-0.4539 0 -0.822 0.368 -0.822 0.822v1.029c0 0.454 0.3681 0.822 0.822 0.822h8.156c0.454 0 0.822 -0.368 0.822 -0.822v-1.029c0 -0.454 -0.368 -0.822 -0.822 -0.822Z" stroke-width="1"></path>
  <path fill="#b0d9ff" d="M73.837 29.4986c8.1887 0 14.827 -0.4858 14.827 -1.085s-6.6383 -1.085 -14.827 -1.085 -14.827 0.4858 -14.827 1.085 6.6383 1.085 14.827 1.085Z" stroke-width="1"></path>
  <path fill="#b0d9ff" stroke="#020064" stroke-linecap="round" stroke-linejoin="round" d="M85.517 27.8258h-23.36c-0.5789 -0.0002 -1.134 -0.2303 -1.5433 -0.6396 -0.4094 -0.4094 -0.6394 -0.9645 -0.6397 -1.5434v-1.615H87.7v1.615c0 0.2867 -0.0565 0.5706 -0.1662 0.8354 -0.1097 0.2649 -0.2705 0.5055 -0.4732 0.7082 -0.2027 0.2028 -0.4433 0.3636 -0.7082 0.4733 -0.2649 0.1097 -0.5487 0.1661 -0.8354 0.1661Z" stroke-width="1"></path>
  <path fill="#b0d9ff" stroke="#020064" stroke-linecap="round" stroke-linejoin="round" d="M85.517 25.9269h-23.36c-0.579 0 -1.1342 -0.23 -1.5436 -0.6394s-0.6394 -0.9646 -0.6394 -1.5436v-1.614H87.7v1.614c0 0.579 -0.23 1.1342 -0.6394 1.5436s-0.9646 0.6394 -1.5436 0.6394Z" stroke-width="1"></path>
  <path fill="#ffffff" stroke="#020064" stroke-linecap="round" stroke-linejoin="round" d="M77 28.5058h-6.324c-0.0717 0 -0.1427 -0.0141 -0.2089 -0.0415 -0.0663 -0.0275 -0.1265 -0.0677 -0.1772 -0.1184 -0.0507 -0.0507 -0.0909 -0.1109 -0.1183 -0.1771 -0.0275 -0.0663 -0.0416 -0.1373 -0.0416 -0.209v-3.932h7.414v3.932c0.0001 0.0716 -0.0138 0.1425 -0.0411 0.2087 -0.0273 0.0661 -0.0673 0.1263 -0.1178 0.177 -0.0505 0.0507 -0.1105 0.091 -0.1766 0.1185 -0.0661 0.0275 -0.1369 0.0417 -0.2085 0.0418Z" stroke-width="1"></path>
  <path fill="#b0d9ff" d="M85.517 9.08057h-23.36c-1.2056 0 -2.183 0.97733 -2.183 2.18303v10.582c0 1.2056 0.9774 2.183 2.183 2.183h23.36c1.2056 0 2.183 -0.9774 2.183 -2.183v-10.582c0 -1.2057 -0.9774 -2.18303 -2.183 -2.18303Z" stroke-width="1"></path>
  <path stroke="#020064" stroke-linecap="round" stroke-linejoin="round" d="M85.517 9.08057h-23.36c-1.2056 0 -2.183 0.97733 -2.183 2.18303v10.582c0 1.2056 0.9774 2.183 2.183 2.183h23.36c1.2056 0 2.183 -0.9774 2.183 -2.183v-10.582c0 -1.2057 -0.9774 -2.18303 -2.183 -2.18303Z" stroke-width="1"></path>
  <path fill="#ffffff" d="M77.544 24.0277H70.13V8.91465c0.0003 -0.14473 0.0579 -0.28345 0.1602 -0.38579 0.1024 -0.10233 0.2411 -0.15994 0.3858 -0.16021H77c0.1448 0 0.2837 0.05753 0.3861 0.15992 0.1024 0.1024 0.1599 0.24127 0.1599 0.38608l-0.002 15.11305Z" stroke-width="1"></path>
  <path stroke="#020064" stroke-linecap="round" stroke-linejoin="round" d="M77.544 24.0277H70.13V8.91465c0.0003 -0.14473 0.0579 -0.28345 0.1602 -0.38579 0.1024 -0.10233 0.2411 -0.15994 0.3858 -0.16021H77c0.1448 0 0.2837 0.05753 0.3861 0.15992 0.1024 0.1024 0.1599 0.24127 0.1599 0.38608l-0.002 15.11305Z" stroke-width="1"></path>
  <path fill="#ffffff" stroke="#020064" stroke-linecap="round" stroke-linejoin="round" d="M83.8361 21.4666h-6.292v-9.825h6.292c0.1433 0 0.2853 0.0283 0.4177 0.0831 0.1324 0.0549 0.2528 0.1354 0.3541 0.2368 0.1013 0.1014 0.1816 0.2218 0.2364 0.3543 0.0548 0.1325 0.0829 0.2744 0.0828 0.4178v7.641c0.0001 0.1434 -0.028 0.2853 -0.0828 0.4178s-0.1351 0.2529 -0.2364 0.3543c-0.1013 0.1014 -0.2217 0.1819 -0.3541 0.2368 -0.1324 0.0548 -0.2744 0.0831 -0.4177 0.0831v0Z" stroke-width="1"></path>
  <path fill="#ffffff" stroke="#020064" stroke-linecap="round" stroke-linejoin="round" d="M63.8381 21.4666h6.292v-9.825h-6.292c-0.2895 0.0003 -0.567 0.1154 -0.7715 0.3202 -0.2046 0.2048 -0.3195 0.4824 -0.3195 0.7718v7.641c0 0.2894 0.1149 0.567 0.3195 0.7718 0.2045 0.2048 0.482 0.3199 0.7715 0.3202v0Z" stroke-width="1"></path>
  <path fill="#b0d9ff" d="M66.181 18.1859v-1.1c-0.126 -0.0393 -0.284 -0.09 -0.474 -0.152 -0.1733 -0.0542 -0.3382 -0.1323 -0.49 -0.232 -0.1382 -0.0931 -0.2518 -0.2184 -0.331 -0.365 -0.0876 -0.1715 -0.1303 -0.3625 -0.124 -0.555 -0.0041 -0.2515 0.0585 -0.4996 0.1815 -0.719 0.1229 -0.2194 0.3019 -0.4023 0.5185 -0.53 0.2189 -0.1307 0.4635 -0.2122 0.717 -0.239v-0.2c-0.0005 -0.0578 0.0025 -0.1156 0.009 -0.173 0.0037 -0.038 0.0207 -0.0734 0.048 -0.1 0.035 -0.0289 0.0798 -0.0429 0.125 -0.039 0.079 0 0.128 0.024 0.148 0.071 0.0233 0.0774 0.0331 0.1582 0.029 0.239v0.2c0.2688 0.0079 0.5338 0.0662 0.781 0.172 0.0829 0.0226 0.1587 0.0658 0.2204 0.1256 0.0617 0.0598 0.1073 0.1343 0.1324 0.2164 0.0252 0.0822 0.0291 0.1694 0.0115 0.2535 -0.0176 0.0841 -0.0563 0.1623 -0.1123 0.2275 -0.0388 0.0466 -0.0876 0.0838 -0.1429 0.1087 -0.0553 0.025 -0.1155 0.037 -0.1761 0.0353 -0.1191 -0.008 -0.236 -0.0357 -0.346 -0.082 -0.1184 -0.0475 -0.2419 -0.081 -0.368 -0.1v0.882c0.2587 0.0712 0.512 0.1608 0.758 0.268 0.2073 0.0959 0.3869 0.2428 0.522 0.427 0.158 0.2295 0.2357 0.5048 0.221 0.783 0.0022 0.2036 -0.0366 0.4056 -0.114 0.594 -0.0741 0.1771 -0.1849 0.3366 -0.325 0.468 -0.1414 0.1323 -0.3053 0.2383 -0.484 0.313 -0.1837 0.0779 -0.379 0.1249 -0.578 0.139v0.213c0.0005 0.0544 -0.0022 0.1089 -0.008 0.163 -0.0046 0.0391 -0.0214 0.0758 -0.048 0.105 -0.0163 0.0148 -0.0354 0.0261 -0.0562 0.0334 -0.0208 0.0072 -0.0428 0.0101 -0.0648 0.0086 -0.08 0 -0.13 -0.026 -0.151 -0.079 -0.0235 -0.0747 -0.034 -0.1528 -0.031 -0.231v-0.206c-0.2168 -0.0053 -0.4327 -0.0304 -0.645 -0.075 -0.201 -0.0373 -0.392 -0.116 -0.561 -0.231 -0.0716 -0.0444 -0.1305 -0.1065 -0.1713 -0.1802s-0.0621 -0.1566 -0.0617 -0.2408c-0.0041 -0.1228 0.0393 -0.2424 0.121 -0.334 0.0406 -0.0443 0.0903 -0.0792 0.1458 -0.1024 0.0554 -0.0231 0.1152 -0.0339 0.1752 -0.0316 0.1649 0.0141 0.3267 0.0529 0.48 0.115 0.168 0.0628 0.3418 0.1084 0.519 0.136Zm0 -2.176v-0.755c-0.0952 0.0246 -0.1815 0.0755 -0.249 0.147 -0.0327 0.0341 -0.0584 0.0744 -0.0756 0.1185 -0.0171 0.0441 -0.0254 0.0912 -0.0244 0.1385 -0.0008 0.0375 0.0064 0.0748 0.0213 0.1093 0.0148 0.0345 0.0369 0.0655 0.0647 0.0907 0.0781 0.0655 0.1671 0.1166 0.263 0.151Zm0.359 1.182v0.965c0.1224 -0.0251 0.2323 -0.092 0.3108 -0.1893 0.0784 -0.0972 0.1206 -0.2188 0.1192 -0.3437 0 -0.189 -0.144 -0.333 -0.43 -0.432Z" stroke-width="1"></path>
  <path fill="#b0d9ff" stroke="#020064" stroke-linecap="round" stroke-linejoin="round" d="M82.819 16.5547c0 0.3133 -0.0929 0.6196 -0.267 0.8801 -0.1741 0.2605 -0.4216 0.4636 -0.7111 0.5834 -0.2894 0.1199 -0.608 0.1512 -0.9153 0.09 -0.3073 -0.0612 -0.5895 -0.2122 -0.811 -0.4338 -0.2215 -0.2216 -0.3723 -0.504 -0.4333 -0.8113s-0.0295 -0.6258 0.0906 -0.9153c0.12 -0.2894 0.3232 -0.5367 0.5838 -0.7106 0.2606 -0.174 0.567 -0.2667 0.8803 -0.2665 0.208 0 0.4139 0.041 0.606 0.1206s0.3667 0.1963 0.5137 0.3434c0.147 0.1471 0.2636 0.3217 0.3431 0.5139 0.0795 0.1922 0.1203 0.3981 0.1202 0.6061v0Z" stroke-width="1"></path>
  <path fill="#b0d9ff" d="m64.521 97.722 -0.843 -7.866h15.373l-0.913 7.866" stroke-width="1"></path>
  <path stroke="#020064" stroke-linecap="round" stroke-linejoin="round" d="m64.521 97.722 -0.843 -7.866h15.373l-0.913 7.866" stroke-width="1"></path>
  <path fill="#ffffff" stroke="#020064" stroke-linecap="round" stroke-linejoin="round" d="M79.0509 67.6719v27.428c-0.0066 0.3253 0.0518 0.6486 0.1718 0.9511 0.1199 0.3025 0.299 0.578 0.5267 0.8103 0.2278 0.2324 0.4996 0.417 0.7996 0.5431 0.2999 0.126 0.622 0.1909 0.9474 0.1909s0.6475 -0.0649 0.9475 -0.1909c0.2999 -0.1261 0.5718 -0.3107 0.7995 -0.5431 0.2277 -0.2323 0.4068 -0.5078 0.5268 -0.8103 0.1199 -0.3025 0.1783 -0.6258 0.1717 -0.9511v-17.822c0.0013 -1.8737 -0.4413 -3.721 -1.2914 -5.3906 -0.8501 -1.6697 -2.0837 -3.1143 -3.5996 -4.2154Z" stroke-width="1"></path>
  <path fill="#ffffff" stroke="#020064" stroke-linecap="round" stroke-linejoin="round" d="M60.185 77.2782v1.112c0 4.62 -3.854 7.568 -6.6 7.568 -0.6604 0.0132 -1.2892 0.2847 -1.7515 0.7564 -0.4624 0.4716 -0.7213 1.1057 -0.7213 1.7661 0 0.6605 0.2589 1.2946 0.7213 1.7662 0.4623 0.4716 1.0911 0.7432 1.7515 0.7563 3.783 0 7.866 -2.5 10.09 -6.375v-15.763c-1.1084 1.1025 -1.9875 2.4135 -2.5865 3.8575s-0.9061 2.9923 -0.9035 4.5555v0Z" stroke-width="1"></path>
  <path fill="#ffffff" stroke="#020064" stroke-linecap="round" stroke-linejoin="round" d="M46.8 88.579c-0.0008 0.6725 -0.2682 1.3172 -0.7436 1.7927 -0.4754 0.4756 -1.1199 0.7433 -1.7924 0.7443 -5.588 0 -11.837 -5.423 -11.837 -12.682v-0.854c-0.0067 -0.3373 0.054 -0.6726 0.1784 -0.9862 0.1245 -0.3136 0.3103 -0.5992 0.5465 -0.8402 0.2362 -0.2409 0.5181 -0.4323 0.8291 -0.563 0.3111 -0.1306 0.6451 -0.1979 0.9825 -0.1979 0.3374 0 0.6714 0.0673 0.9825 0.1979 0.3111 0.1307 0.593 0.3221 0.8292 0.563 0.2362 0.241 0.4219 0.5266 0.5464 0.8402s0.1851 0.6489 0.1784 0.9862v0.854c0 4.645 4.006 7.609 6.764 7.609 0.6724 0.0008 1.3169 0.2683 1.7924 0.7437 0.4754 0.4754 0.7428 1.12 0.7436 1.7923v0Z" stroke-width="1"></path>
  <path fill="#b0d9ff" d="m34.4079 97.7218 0.635 -7.839h-15.457l0.636 7.839" stroke-width="1"></path>
  <path stroke="#020064" stroke-linecap="round" stroke-linejoin="round" d="m34.4079 97.7218 0.635 -7.839h-15.457l0.636 7.839" stroke-width="1"></path>
  <path fill="#ffffff" d="M38.556 77.2609c-0.0487 -3.1622 -1.3414 -6.1778 -3.598 -8.3935 -2.2567 -2.2156 -5.2955 -3.4528 -8.458 -3.4435 -3.1385 0.0013 -6.148 1.249 -8.3668 3.4687s-3.4652 5.2298 -3.4652 8.3683v5.6h4.918v7.026h15.457v-7.03h1.893c0.425 -0.0638 0.8162 -0.269 1.1102 -0.5826 0.2939 -0.3136 0.4736 -0.7171 0.5098 -1.1454v-3.868Z" stroke-width="1"></path>
  <path stroke="#020064" stroke-linecap="round" stroke-linejoin="round" d="M38.556 77.2609c-0.0487 -3.1622 -1.3414 -6.1778 -3.598 -8.3935 -2.2567 -2.2156 -5.2955 -3.4528 -8.458 -3.4435 -3.1385 0.0013 -6.148 1.249 -8.3668 3.4687s-3.4652 5.2298 -3.4652 8.3683v5.6h4.918v7.026h15.457v-7.03h1.893c0.425 -0.0638 0.8162 -0.269 1.1102 -0.5826 0.2939 -0.3136 0.4736 -0.7171 0.5098 -1.1454v-3.868Z" stroke-width="1"></path>
  <path stroke="#020064" stroke-linecap="round" stroke-linejoin="round" d="M19.5859 85.7158v-8.48" stroke-width="1"></path>
  <path stroke="#020064" stroke-linecap="round" stroke-linejoin="round" d="M27.3149 76.5332v13.41" stroke-width="1"></path>
  <path fill="#b0d9ff" stroke="#020064" stroke-linecap="round" stroke-linejoin="round" d="M33.329 71.0812c0.0887 0.2129 0.1236 0.4443 0.1014 0.6739 -0.0222 0.2295 -0.1008 0.45 -0.2287 0.6419 -0.128 0.1918 -0.3013 0.3491 -0.5047 0.4578 -0.2034 0.1088 -0.4304 0.1656 -0.661 0.1654h-3.451l2.43 -6.718c0.154 0.062 0.3066 0.127 0.458 0.195l1.856 4.584Z" stroke-width="1"></path>
  <path fill="#b0d9ff" stroke="#020064" stroke-linecap="round" stroke-linejoin="round" d="m21.2999 71.0811 2.127 -5.252 0.079 -0.02 2.561 7.211h-3.474c-0.2306 0.0001 -0.4576 -0.0567 -0.661 -0.1654 -0.2034 -0.1088 -0.3767 -0.266 -0.5047 -0.4579 -0.1279 -0.1919 -0.2065 -0.4124 -0.2287 -0.6419 -0.0222 -0.2295 0.0126 -0.461 0.1014 -0.6738Z" stroke-width="1"></path>
  <path stroke="#020064" stroke-linecap="round" stroke-linejoin="round" d="M35.043 82.8568c-0.0814 -0.9884 0.1646 -1.9761 0.7 -2.811 0.4944 -0.8516 0.7371 -1.8259 0.7 -2.81" stroke-width="1"></path>
  <path fill="#b0d9ff" stroke="#020064" stroke-linecap="round" stroke-linejoin="round" d="M20.5859 91.9912h6.431c0.2653 0 0.5196 -0.1053 0.7071 -0.2929 0.1876 -0.1875 0.2929 -0.4418 0.2929 -0.7071v-10.647c0 -0.2652 -0.1053 -0.5195 -0.2929 -0.7071 -0.1875 -0.1875 -0.4418 -0.2929 -0.7071 -0.2929h-7.431v11.647c0 0.2653 0.1054 0.5196 0.2929 0.7071 0.1876 0.1876 0.4419 0.2929 0.7071 0.2929Z" stroke-width="1"></path>
  <path fill="#ffffff" stroke="#020064" stroke-linecap="round" stroke-linejoin="round" d="M19.586 82.8569c0 0.5591 0.2221 1.0953 0.6174 1.4906s0.9315 0.6174 1.4906 0.6174h5.248c0.6521 0 1.2776 0.2591 1.7387 0.7203 0.4612 0.4611 0.7203 1.0866 0.7203 1.7387 0 0.6522 -0.2591 1.2777 -0.7203 1.7388 -0.4611 0.4612 -1.0866 0.7202 -1.7387 0.7202h-5.248c-1.8634 0 -3.6505 -0.7402 -4.9682 -2.0578 -1.3176 -1.3177 -2.0578 -3.1048 -2.0578 -4.9682h4.918Z" stroke-width="1"></path>
  <path fill="#b0d9ff" d="M79.9079 68.3592c-1.1813 -1.0389 -2.5573 -1.8328 -4.0479 -2.3357 -1.4907 -0.5028 -3.0664 -0.7045 -4.6357 -0.5935 -1.5693 0.1111 -3.1008 0.5328 -4.5058 1.2406 -1.405 0.7078 -2.6554 1.6877 -3.6786 2.8826 0.266 1.792 0.637 6.3 0.637 6.3v14.003h15.374v-14.025c-0.0637 -2.5184 0.2248 -5.0334 0.857 -7.472Z" stroke-width="1"></path>
  <path fill="#ffffff" stroke="#020064" stroke-linecap="round" stroke-linejoin="round" d="M79.05 86.3618H63.678v3.494H79.05v-3.494Z" stroke-width="1"></path>
  <path stroke="#020064" stroke-linecap="round" stroke-linejoin="round" d="M73.4609 86.3618v3.494" stroke-width="1"></path>
  <path stroke="#020064" stroke-linecap="round" stroke-linejoin="round" d="M69.9669 86.3618v3.494" stroke-width="1"></path>
  <path fill="#ffffff" stroke="#020064" stroke-linecap="round" stroke-linejoin="round" d="M30.521 66.1271c-0.2345 -0.0808 -0.4377 -0.2329 -0.5814 -0.435 -0.1436 -0.2021 -0.2204 -0.4441 -0.2196 -0.692v-2.608H24.8v2.178c-0.0002 0.2705 -0.0928 0.5328 -0.2625 0.7434 -0.1697 0.2106 -0.4063 0.3569 -0.6705 0.4146 -0.119 0.026 -0.238 0.055 -0.355 0.085l3.806 10.717 3.7 -10.224c-0.169 -0.062 -0.332 -0.122 -0.497 -0.179Z" stroke-width="1"></path>
  <path fill="#ffffff" stroke="#020064" stroke-linecap="round" stroke-linejoin="round" d="M27.1389 43.8428c-1.1105 0 -2.2101 0.2187 -3.236 0.6438 -1.026 0.425 -1.9581 1.048 -2.7433 1.8333 -0.7851 0.7853 -1.4079 1.7176 -1.8326 2.7437 -0.4248 1.026 -0.6433 2.1257 -0.6431 3.2362v1.691c-2.414 0 -2.249 4.227 0.423 4.227h0.007c0.6007 1.9269 1.8727 3.5745 3.5849 4.6432 1.7122 1.0687 3.7511 1.4877 5.746 1.1808 1.9949 -0.3068 3.8135 -1.3192 5.1254 -2.8531s2.03 -3.4875 2.0237 -5.5059v-3.383c0.0004 -1.1106 -0.218 -2.2103 -0.6427 -3.2364 -0.4248 -1.0261 -1.0475 -1.9584 -1.8327 -2.7438 -0.7852 -0.7854 -1.7174 -1.4083 -2.7434 -1.8333 -1.026 -0.425 -2.1256 -0.6437 -3.2362 -0.6435v0Z" stroke-width="1"></path>
  <path fill="#020064" d="M25.66 53.4878c0.2089 0.0006 0.413 0.0631 0.5864 0.1796 0.1734 0.1165 0.3084 0.2818 0.388 0.475 0.0795 0.1932 0.1 0.4056 0.0589 0.6104 -0.0411 0.2049 -0.142 0.3929 -0.29 0.5405 -0.1479 0.1475 -0.3363 0.2479 -0.5412 0.2884 -0.205 0.0405 -0.4173 0.0194 -0.6103 -0.0607 -0.193 -0.08 -0.3579 -0.2155 -0.4739 -0.3893 -0.116 -0.1737 -0.1779 -0.378 -0.1779 -0.5869 -0.0002 -0.1389 0.0271 -0.2764 0.0802 -0.4047 0.053 -0.1283 0.1309 -0.2448 0.2291 -0.343 0.0981 -0.0982 0.2147 -0.176 0.343 -0.2291 0.1283 -0.0531 0.2658 -0.0803 0.4047 -0.0802h0.003Z" stroke-width="1"></path>
  <path fill="#020064" d="M32 53.4878c0.209 0 0.4134 0.062 0.5872 0.1781 0.1739 0.1162 0.3093 0.2813 0.3893 0.4744 0.08 0.1931 0.101 0.4057 0.0602 0.6107 -0.0408 0.205 -0.1415 0.3934 -0.2893 0.5412 -0.1478 0.1478 -0.3362 0.2485 -0.5412 0.2893 -0.205 0.0408 -0.4176 0.0198 -0.6107 -0.0602s-0.3582 -0.2154 -0.4744 -0.3893c-0.1161 -0.1738 -0.1781 -0.3782 -0.1781 -0.5872 0 -0.2803 0.1114 -0.5492 0.3096 -0.7474 0.1982 -0.1982 0.4671 -0.3096 0.7474 -0.3096Z" stroke-width="1"></path>
  <path fill="#b0d9ff" d="M24.6 57.9266c0 0.1673 -0.0497 0.3309 -0.1426 0.47 -0.093 0.1391 -0.2251 0.2475 -0.3797 0.3116 -0.1546 0.064 -0.3247 0.0808 -0.4888 0.0481 -0.1641 -0.0326 -0.3148 -0.1132 -0.4332 -0.2315 -0.1183 -0.1183 -0.1988 -0.2691 -0.2315 -0.4332 -0.0326 -0.1641 -0.0159 -0.3342 0.0482 -0.4888 0.064 -0.1546 0.1724 -0.2867 0.3115 -0.3797 0.1392 -0.0929 0.3027 -0.1425 0.4701 -0.1425 0.1111 -0.0002 0.2212 0.0216 0.3239 0.0641 0.1027 0.0425 0.196 0.1048 0.2746 0.1834 0.0786 0.0785 0.1409 0.1719 0.1833 0.2746 0.0425 0.1027 0.0643 0.2127 0.0642 0.3239Z" stroke-width="1"></path>
  <path stroke="#020064" stroke-linecap="round" stroke-linejoin="round" d="M26.7159 59.3257c0.5835 0.5157 1.3353 0.8004 2.114 0.8004s1.5306 -0.2847 2.114 -0.8004" stroke-width="1"></path>
  <path fill="#ffffff" d="M20.84 54.8701c0.0781 -0.9302 0.5057 -1.7962 1.1966 -2.4237 0.691 -0.6275 1.5941 -0.9699 2.5274 -0.9583h11.019c0.885 0 1.578 -0.506 1.384 -1.37 -0.5317 -2.5741 -1.9981 -4.86 -4.116 -6.4167 -2.1179 -1.5566 -4.7374 -2.2736 -7.3528 -2.0126 -2.6155 0.261 -5.0416 1.4814 -6.8102 3.4259 -1.7686 1.9444 -2.7543 4.475 -2.767 7.1034v12.397c0.0246 0.2242 0.0968 0.4407 0.2117 0.6348 0.1149 0.1942 0.2699 0.3616 0.4546 0.4911 0.1848 0.1294 0.395 0.218 0.6168 0.2598 0.2217 0.0417 0.4497 0.0357 0.6689 -0.0177 2.115 -0.505 2.708 -1.993 2.967 -4.04v-7.073Z" stroke-width="1"></path>
  <path stroke="#020064" stroke-linecap="round" stroke-linejoin="round" d="M20.84 54.8701c0.0781 -0.9302 0.5057 -1.7962 1.1966 -2.4237 0.691 -0.6275 1.5941 -0.9699 2.5274 -0.9583h11.019c0.885 0 1.578 -0.506 1.384 -1.37 -0.5317 -2.5741 -1.9981 -4.86 -4.116 -6.4167 -2.1179 -1.5566 -4.7374 -2.2736 -7.3528 -2.0126 -2.6155 0.261 -5.0416 1.4814 -6.8102 3.4259 -1.7686 1.9444 -2.7543 4.475 -2.767 7.1034v12.397c0.0246 0.2242 0.0968 0.4407 0.2117 0.6348 0.1149 0.1942 0.2699 0.3616 0.4546 0.4911 0.1848 0.1294 0.395 0.218 0.6168 0.2598 0.2217 0.0417 0.4497 0.0357 0.6689 -0.0177 2.115 -0.505 2.708 -1.993 2.967 -4.04v-7.073Z" stroke-width="1"></path>
  <path stroke="#020064" stroke-linecap="round" stroke-linejoin="round" d="M26.4609 51.488v-3.073" stroke-width="1"></path>
  <path stroke="#020064" stroke-linecap="round" stroke-linejoin="round" d="M22.948 51.86v-3.445" stroke-width="1"></path>
  <path stroke="#020064" stroke-linecap="round" stroke-linejoin="round" d="M29.974 51.488v-3.073" stroke-width="1"></path>
  <path stroke="#020064" stroke-linecap="round" stroke-linejoin="round" d="M33.4869 51.488v-3.073" stroke-width="1"></path>
  <path stroke="#020064" stroke-linecap="round" stroke-linejoin="round" d="M79.9079 68.3592c-1.1813 -1.0389 -2.5573 -1.8328 -4.0479 -2.3357 -1.4907 -0.5028 -3.0664 -0.7045 -4.6357 -0.5935 -1.5693 0.1111 -3.1008 0.5328 -4.5058 1.2406 -1.405 0.7078 -2.6554 1.6877 -3.6786 2.8826 0.266 1.792 0.637 6.3 0.637 6.3v14.003h15.374v-14.025c-0.0637 -2.5184 0.2248 -5.0334 0.857 -7.472v0Z" stroke-width="1"></path>
  <path fill="#ffffff" stroke="#020064" stroke-linecap="round" stroke-linejoin="round" d="M74.786 65.7131c-0.242 -0.0565 -0.4576 -0.1931 -0.612 -0.3878 -0.1543 -0.1946 -0.2382 -0.4358 -0.238 -0.6842v-2.312h-4.927v2.647c0.0006 0.231 -0.0715 0.4564 -0.2061 0.6441 -0.1346 0.1878 -0.3249 0.3284 -0.5439 0.4019 -0.137 0.046 -0.273 0.095 -0.408 0.146l3.567 5.467 3.62 -5.859c-0.082 -0.022 -0.167 -0.043 -0.252 -0.063Z" stroke-width="1"></path>
  <path fill="#ffffff" stroke="#020064" stroke-linecap="round" stroke-linejoin="round" d="M82.7236 49.0223c2.3911 -1.2566 3.3108 -4.2137 2.0542 -6.6048 -1.2567 -2.3912 -4.2138 -3.3108 -6.6049 -2.0542 -2.3911 1.2567 -3.3108 4.2138 -2.0542 6.6049 1.2567 2.3911 4.2138 3.3108 6.6049 2.0541Z" stroke-width="1"></path>
  <path fill="#ffffff" stroke="#020064" stroke-linecap="round" stroke-linejoin="round" d="M72.762 62.1621c5.4024 0 9.782 -4.3795 9.782 -9.782 0 -5.4024 -4.3796 -9.782 -9.782 -9.782 -5.4025 0 -9.782 4.3796 -9.782 9.782 0 5.4025 4.3795 9.782 9.782 9.782Z" stroke-width="1"></path>
  <path fill="#ffffff" stroke="#020064" stroke-linecap="round" stroke-linejoin="round" d="M62.98 53.0781v16.087c0.0004 0.1332 0.0388 0.2635 0.1107 0.3756 0.0719 0.1121 0.1743 0.2013 0.2951 0.2573 0.1209 0.0559 0.2552 0.0763 0.3871 0.0586 0.132 -0.0177 0.2562 -0.0727 0.3581 -0.1585 1.018 -0.865 2.342 -2.321 2.342 -4.042v-12.578H62.98Z" stroke-width="1"></path>
  <path fill="#ffffff" stroke="#020064" stroke-linecap="round" stroke-linejoin="round" d="M66.473 50.2832c1.494 0 2 0.7 2.8 0.7 0.8 0 2.1 -0.7 4.193 -0.7 1.2 0 2.4 1.376 3.208 2.551 0.3412 0.5037 0.8002 0.9165 1.3371 1.2027 0.5369 0.2861 1.1355 0.4369 1.7439 0.4393v3.058c-0.0576 0.0204 -0.1164 0.0374 -0.176 0.051 -0.4178 2.0372 -1.5777 3.8465 -3.2546 5.0766 -1.6769 1.23 -3.751 1.793 -5.8197 1.5796 -2.0686 -0.2133 -3.9842 -1.1878 -5.3747 -2.7342 -1.3905 -1.5464 -2.1568 -3.5544 -2.15 -5.634v-2.795s1.999 -2.795 3.493 -2.795Z" stroke-width="1"></path>
  <path fill="#b0d9ff" d="M75.2079 57.969c0.5788 0 1.048 -0.4692 1.048 -1.048 0 -0.5787 -0.4692 -1.048 -1.048 -1.048s-1.048 0.4693 -1.048 1.048c0 0.5788 0.4692 1.048 1.048 1.048Z" stroke-width="1"></path>
  <path stroke="#020064" stroke-linecap="round" stroke-linejoin="round" d="M72.063 59.4312c-0.6207 0.4137 -1.35 0.6345 -2.096 0.6345s-1.4753 -0.2208 -2.096 -0.6345" stroke-width="1"></path>
  <path fill="#b0d9ff" d="M67.871 53.0781H62.98c-0.386 0 -0.699 0.313 -0.699 0.699v2.794c0 0.3861 0.313 0.699 0.699 0.699h4.891c0.3861 0 0.699 -0.3129 0.699 -0.699v-2.794c0 -0.386 -0.3129 -0.699 -0.699 -0.699Z" stroke-width="1"></path>
  <path stroke="#020064" stroke-linecap="round" stroke-linejoin="round" d="M67.871 53.0781H62.98c-0.386 0 -0.699 0.313 -0.699 0.699v2.794c0 0.3861 0.313 0.699 0.699 0.699h4.891c0.3861 0 0.699 -0.3129 0.699 -0.699v-2.794c0 -0.386 -0.3129 -0.699 -0.699 -0.699Z" stroke-width="1"></path>
  <path fill="#b0d9ff" d="M76.955 53.0781h-4.891c-0.3861 0 -0.699 0.313 -0.699 0.699v2.794c0 0.3861 0.3129 0.699 0.699 0.699h4.891c0.386 0 0.699 -0.3129 0.699 -0.699v-2.794c0 -0.386 -0.313 -0.699 -0.699 -0.699Z" stroke-width="1"></path>
  <path stroke="#020064" stroke-linecap="round" stroke-linejoin="round" d="M76.955 53.0781h-4.891c-0.3861 0 -0.699 0.313 -0.699 0.699v2.794c0 0.3861 0.3129 0.699 0.699 0.699h4.891c0.386 0 0.699 -0.3129 0.699 -0.699v-2.794c0 -0.386 -0.313 -0.699 -0.699 -0.699Z" stroke-width="1"></path>
  <path stroke="#020064" stroke-linecap="round" stroke-linejoin="round" d="M68.5699 54.4761h2.795" stroke-width="1"></path>
  <path fill="#ffffff" stroke="#020064" stroke-linecap="round" stroke-linejoin="round" d="M76.256 50.9819v18.183c0.0004 0.1332 0.0389 0.2635 0.1107 0.3756 0.0719 0.1121 0.1743 0.2013 0.2951 0.2573 0.1209 0.0559 0.2552 0.0763 0.3872 0.0586 0.1319 -0.0177 0.2561 -0.0727 0.358 -0.1585 1.018 -0.865 2.343 -2.321 2.343 -4.042v-14.674h-3.494Z" stroke-width="1"></path>
  <path fill="#b0d9ff" stroke="#020064" stroke-linecap="round" stroke-linejoin="round" d="M79.051 49.585h-1.4c-0.3713 0 -0.7274 0.1475 -0.99 0.41 -0.2625 0.2626 -0.41 0.6187 -0.41 0.99 0 0.3713 0.1475 0.7274 0.41 0.9899 0.2626 0.2626 0.6187 0.4101 0.99 0.4101h1.4c0.3713 0 0.7274 -0.1475 0.9899 -0.4101 0.2626 -0.2625 0.4101 -0.6186 0.4101 -0.9899v0c0 -0.3713 -0.1475 -0.7274 -0.4101 -0.99 -0.2625 -0.2625 -0.6186 -0.41 -0.9899 -0.41Z" stroke-width="1"></path>
</svg>