<svg xmlns="http://www.w3.org/2000/svg" viewBox="0 0 200 200" id="Search-User--Streamline-Manila">
  <desc>
    Search User Streamline Illustration: https://streamlinehq.com
  </desc>
  <g>
    <path d="M41.723 147.7c-2.143 -0.389 -6.039 4.286 -6.526 5.455a2.44 2.44 0 0 0 0.487 2.825c0.682 1.071 1.916 0.789 1.461 -0.682a2.619 2.619 0 0 1 0 -1.948c0.585 -1.266 3.41 -3.9 4.286 -3.8 1.072 0 2.649 4.377 2.922 5.26 0.21 0.677 -2.435 3.117 -2.824 4.383a0.655 0.655 0 0 0 0.681 0.877c0.969 -0.218 3.8 -3.117 3.9 -4.676 0.09 -1.164 -2.146 -7.302 -4.387 -7.694Z" fill="#3d9cfb" stroke-width="1"></path>
    <path d="M38.7 144.2c0.049 -2.144 -3.881 -9.1 -6.819 -8.279 -2.229 0.625 -5.942 3.7 -6.429 5.357 -0.389 1.266 0.682 3.7 1.949 3.409 0.876 -0.195 0.1 -1.948 0.292 -2.922s3.993 -4.189 4.87 -3.9c1.169 0.292 4.384 5.162 4.189 6.137 -0.1 0.681 -2.9 2.458 -3.994 3.6 -0.667 0.7 -0.2 1.753 0.974 1.558 1.758 -0.58 4.95 -3.99 4.968 -4.96Z" fill="#3d9cfb" stroke-width="1"></path>
    <path d="M30.035 131.144c0.291 -1.754 -3.6 -7.4 -5.261 -8.085 -2.824 -1.169 -7.111 3.6 -7.89 4.578a3.943 3.943 0 0 0 0.1 4.87c1.071 1.559 1.948 0.292 1.266 -0.974a2.053 2.053 0 0 1 0.2 -2.532c1.713 -2.692 4.578 -4.773 5.552 -4.189 0.974 0.39 4.189 4.87 4.091 5.942 0 0.584 -1.655 2.63 -3.507 3.6 -1.558 0.876 -1.363 2.435 -0.389 2.338 3.11 -0.873 5.643 -4.185 5.838 -5.548Z" fill="#3d9cfb" stroke-width="1"></path>
    <path d="M70.362 88.576a0.979 0.979 0 1 0 -1.949 0.2C69.582 103.48 80.4 112.928 89.941 114.1a0.981 0.981 0 0 0 0.1 -1.948c-8.77 -1.27 -18.608 -9.939 -19.679 -23.576Z" fill="#3d9cfb" stroke-width="1"></path>
    <path d="M166.893 56.626c13.053 -9.643 10.326 -16.56 -6.916 -12.176 5.358 -22.209 -9.156 -27.956 -15.975 -4.87 0 0 -13.832 -21.236 -23.085 -16.755 -7.209 3.507 1.753 16.075 1.753 16.075S99.876 21.754 87.8 28.962c-7.306 4.383 2.435 16.267 2.435 16.267 -12.761 -2.143 -19.969 13.54 -1.266 15.391 -5.747 6.721 0.486 7.987 3.312 7.792 0.779 -0.1 0.486 -8.182 0.486 -8.182 -1.266 -6.039 9.741 -4.676 12.469 -6.624 1.851 -1.168 4.578 -6.234 8.864 -5.941s6.819 4.285 11.1 3.7 4.774 -4.091 9.839 -3.117c5.065 0.877 4.481 5.065 9.351 5.065 9.351 -1.461 16.073 -3.7 14.319 9.156 -1.656 11.787 12.663 0.293 15 14.514 13.738 -7.889 -2.822 -19.091 -6.816 -20.357Z" fill="#3d9cfb" stroke-width="1"></path>
    <path d="M95.1 123.545c0.487 0.78 2.046 2.923 2.533 3.7 2.435 3.7 12.371 -2.045 9.838 -6.429 -3.309 -6.816 -4.771 2.243 -12.371 2.729Z" fill="#3d9cfb" stroke-width="1"></path>
    <path d="M69.193 76.3c-27.2 7.017 2.532 54.062 22.4 47.049 26.693 -11.2 -6.218 -51.22 -22.4 -47.049ZM91.5 118.188c-13.735 7.209 -36.236 -23.573 -26.592 -34 11.785 -9.249 36.625 24.357 26.592 34Z" fill="#3d9cfb" stroke-width="1"></path>
    <path d="M33.249 128.513c0.777 0.114 2.241 -1.363 3.409 -2.337s0.2 -2.533 -1.364 -1.364c-1.558 0.974 -3.804 3.445 -2.045 3.701Z" fill="#001434" stroke-width="1"></path>
    <path d="M37.925 134.456c1.461 0 3.214 -2.338 4.578 -3.7s0.487 -2.922 -1.364 -1.364c-5.357 4.479 -4.676 5.064 -3.214 5.064Z" fill="#001434" stroke-width="1"></path>
    <path d="M155.594 75.328c1.461 -2.045 0.974 -10.033 -2.533 -12.37 -4.48 -2.923 -16.462 -1.169 -18.9 4.09 -2.24 4.969 1.267 13.346 8.085 12.859 4.776 -0.293 11.01 -1.364 13.348 -4.579Zm-2.143 -1.364c-1.169 1.657 -3.7 2.241 -5.844 2.923 -1.267 -3.8 -3.117 -8.572 -4.481 -12.176a25.714 25.714 0 0 1 4.773 -0.584c5.835 -0.437 7.111 7.89 5.552 9.837Z" fill="#001434" stroke-width="1"></path>
    <path d="M44.938 145.268c1.364 0.682 6.429 -5.747 5.26 -6.527s-1.948 0.488 -3.214 1.949c-2.728 3.117 -3.215 3.896 -2.046 4.578Z" fill="#001434" stroke-width="1"></path>
    <path d="M48.25 149.359c0.974 0.292 9.059 -11.689 9.838 -13.54 0.585 -1.169 -1.169 -1.071 -1.851 -0.1 -1.266 1.753 -1.461 1.948 -3.6 4.87 -5.751 7.991 -5.751 8.38 -4.387 8.77Z" fill="#001434" stroke-width="1"></path>
    <path d="M34.807 116.24c0.975 -1.169 -1.363 -1.071 -2.532 0s-2.7 2.361 -3.8 3.507c-1.429 1.492 -0.2 2.63 1.169 1.656a43.093 43.093 0 0 0 5.163 -5.163Z" fill="#001434" stroke-width="1"></path>
    <path d="M79.908 142.93c2.337 -0.059 4.091 -1.754 1.558 -1.948s-6.916 -0.1 -7.6 -0.195c0.78 -2.046 1.624 -4.3 2.241 -6.039 0.277 -0.785 -1.585 -0.6 -2.143 0.779 -0.511 1.257 -0.877 2.143 -2.143 5.065 -3.02 0 -5.163 -0.1 -5.163 0.78 0.1 1.071 2.435 1.168 4.286 1.266 -0.877 2.143 -6.721 12.955 -9.351 18.8 -4.481 -0.292 -5.455 0 -5.942 0.584s0.682 0.877 5.065 1.559c-1.169 3.019 -2.045 5.162 -0.876 5.162 0.389 0 0.681 0 0.876 -0.389 0.877 -1.656 1.267 -2.728 2.143 -4.579 3.117 0.39 6.04 0.975 9.156 1.559 -0.974 3.214 -1.363 4.189 -0.292 4.091 0.585 0 1.851 -1.948 2.338 -3.7 1.461 0.2 3.312 0.487 4.676 0.681s2.727 -1.266 0.682 -1.655 -3.215 -0.585 -4.871 -0.877c0.293 -1.072 1.948 -5.747 2.728 -7.6 6.818 0.974 7.6 1.266 11.883 1.753 -0.779 4.092 -1.266 5.455 0 5.065 0.975 -0.292 1.267 -1.363 2.046 -4.87a30.875 30.875 0 0 0 3.41 0.195c1.266 0 0.1 -1.753 -0.975 -1.851 -1.169 -0.1 -1.169 -0.194 -1.948 -0.194 0.585 -3.118 1.266 -5.066 -0.1 -4.774 -0.487 0.1 -0.975 0.877 -1.072 1.364a26.609 26.609 0 0 0 -0.682 3.214c-3.869 -0.386 -9.618 -1.558 -11.591 -1.85 1.558 -5.066 2.143 -6.819 0.584 -6.332 -0.974 0.293 -0.779 0.682 -2.825 6.137 -2.143 -0.1 -2.727 -0.1 -2.825 0.682 0 0.584 0.1 0.877 2.241 1.363 -0.487 1.754 -2.143 6.332 -2.63 7.4 -2.825 -0.585 -6.039 -1.267 -8.962 -1.754 2.143 -4.87 7.5 -14.416 9.254 -18.994 3.416 0.005 4.873 0.151 6.824 0.102Z" fill="#001434" stroke-width="1"></path>
    <path d="M110.2 162.314c-0.291 4.091 0 16.657 -3.116 18.9 -1.851 1.363 -1.851 1.266 -19.579 1.363a348.641 348.641 0 0 1 -38.672 -2.24c-3.7 -0.487 -4.188 -5.748 -3.312 -7.89 0.1 -0.39 0.78 -1.754 3.7 -7.111 17.534 -32.047 18.319 -33 17.339 -32.729 -2.711 0.744 -2.338 2.143 -19.482 31.56a80.905 80.905 0 0 0 -3.9 7.5 9.7 9.7 0 0 0 0.1 6.428c-3.8 0.682 -6.721 -3.409 -15 -15.195 -10.033 -14.222 -22.7 -31.171 -20.748 -35.847 1.364 -3.214 6.624 -9.838 22.112 -21.527C33.444 102.6 39.98 95 45.133 95.589a5.8 5.8 0 0 1 3.993 2.728c4.286 5.942 12.859 19.579 17.729 28.346a2.593 2.593 0 0 0 2.533 1.656c4.48 0.584 5.844 0.487 11.688 0.974 0.682 0.1 1.767 -0.5 1.364 -1.072 -1.038 -1.484 -11.494 -2.143 -13.247 -2.24 -4.968 -8.962 -13.93 -23.281 -18.216 -29.125 -3.993 -5.553 -9.254 -4.579 -14.709 0 -11.1 9.156 -30.586 24.839 -31.17 30.1 -0.584 5.65 1.071 9.838 15.488 29.417 16.754 22.5 16.072 24.548 23.767 23.963a5.471 5.471 0 0 0 4.092 2.435 353.9 353.9 0 0 0 40.132 2.143c10.525 -0.2 16.56 1.071 19.872 -1.266 2.629 -1.851 4.09 -10.423 3.311 -20.554 -0.097 -1.559 -1.46 -2.241 -1.56 -0.78Z" fill="#001434" stroke-width="1"></path>
    <path d="M53.9 175.367c4.773 0.487 35.943 1.948 48.412 1.851 2.727 0 3.506 -2.435 3.9 -4.773 1.072 -6.429 -0.292 -6.526 -0.585 -4.968 -0.779 3.6 -1.169 7.6 -3.993 7.89 -7.7 0.585 -44.419 -1.461 -46.757 -1.558 -3.218 -0.098 -3.705 1.266 -0.977 1.558Z" fill="#001434" stroke-width="1"></path>
    <path d="M32.08 124.812c1.948 -1.753 7.111 -6.624 8.767 -8.475 0.779 -0.876 1.461 -3.7 -1.948 -0.584 -2.338 2.143 -6.819 5.942 -8.28 7.792 -0.779 1.267 -0.098 2.631 1.461 1.267Z" fill="#001434" stroke-width="1"></path>
    <path d="M41.237 137.67c1.563 -0.97 11.786 -12.27 12.955 -13.54s-0.682 -1.559 -1.754 -0.682c-1.169 0.974 -2.435 2.435 -4.578 4.578 -3.993 3.994 -7.208 6.722 -7.89 8.183 -0.487 0.974 0.098 2.143 1.267 1.461Z" fill="#001434" stroke-width="1"></path>
    <path d="M108.449 87.407c20.358 -0.195 16.461 -30.1 -3.118 -25.229C91.4 65.685 92.96 87.6 108.449 87.407Zm10.617 -16.072c1.558 4.87 -0.1 10.812 -6.039 12.857 -1.754 -5.552 -5.358 -14.318 -7.4 -19.481 7.4 -1.656 11.88 1.753 13.439 6.624Z" fill="#001434" stroke-width="1"></path>
    <path d="M127.248 151.7c1.461 -1.656 3.02 -9.936 0.1 -20.553 -2.046 -7.793 -5.748 -14.32 -9.254 -15.294 -0.682 -0.195 -1.266 0.585 -0.78 1.072 7.7 7.306 10.813 24.742 8.573 34 -0.002 0.775 0.874 1.356 1.361 0.775Z" fill="#001434" stroke-width="1"></path>
    <path d="M49.224 101.824c-2.143 -3.117 -4.111 -4.626 -6.721 -3.507 -1.964 0.841 -20.651 15.975 -29.028 24.937 -3.7 3.9 -3.02 7.013 -0.877 10.617 5.845 9.254 21.235 32.534 23.768 35.262 1.461 1.558 1.2 -1.284 0.292 -2.63 -2.458 -3.655 -16.658 -24.06 -22.112 -33.411 -1.85 -3.215 -1.948 -5.747 0.877 -8.864 8.28 -8.865 25.814 -23.281 27.469 -23.963 1.169 -0.487 2.241 -1.169 4.871 2.338 4.286 5.65 9.741 14.221 10.13 14.124 1.364 0.097 -0.293 -2.922 -8.669 -14.903Z" fill="#001434" stroke-width="1"></path>
    <path d="M132.411 60.815c-1.072 1.168 -0.77 2.463 0.779 1.948 1.666 -0.554 4.773 -4.189 9.254 -4.481 0.682 0 1.558 -1.169 0.779 -1.851 -1.851 -1.851 -8.084 1.069 -10.812 4.384Z" fill="#001434" stroke-width="1"></path>
    <path d="M100.364 61.4c1.363 -0.2 5.357 -2.63 10.13 -2.63a1.208 1.208 0 0 0 1.169 -1.266c-0.195 -2.533 -8.767 -0.2 -11.884 2.045 -1.364 0.973 -0.579 1.951 0.585 1.851Z" fill="#001434" stroke-width="1"></path>
    <path d="M123.644 78.835c-0.877 3.214 0.372 7 3.994 7.7a1.047 1.047 0 0 0 0.682 -1.948c-3.994 -2.63 -2.728 -8.669 2.824 -7.792 0.682 0.1 1.559 -0.585 1.267 -1.169 -1.072 -2.148 -7.501 -1.564 -8.767 3.209Z" fill="#001434" stroke-width="1"></path>
    <path d="M139.619 85.946a2.521 2.521 0 0 0 -1.851 1.266c-1.266 2.143 -4.091 3.6 -6.234 4.676 -5.357 2.532 1.169 8.377 5.358 8.085A7.233 7.233 0 0 0 144 93.057c0.1 -1.657 -1.069 -7.306 -4.381 -7.111Zm0.779 10.228c-3.409 3.6 -10.715 -1.169 -7.4 -2.533 1.461 -0.584 4.968 -1.558 6.916 -5.162 2.238 2.337 2.141 6.039 0.486 7.695Z" fill="#001434" stroke-width="1"></path>
    <path d="M71.823 79.712c-12.371 0.1 -8.767 17.338 -1.072 27.372 4.578 5.747 12.761 11.981 19.19 11.689 4.578 -0.195 15.293 -5.845 -0.974 -28.541 -6.04 -7.5 -12.858 -10.52 -17.144 -10.52Zm21.332 35.651c-4.481 4.287 -15.391 -3.409 -20.553 -9.838 -6.916 -8.961 -9.741 -22.5 -1.266 -23.378 10.978 -1.169 30.246 25.276 21.819 33.216Z" fill="#001434" stroke-width="1"></path>
    <path d="M182.966 55.652c3.409 -1.559 8.962 -5.065 7.695 -10.91 -1.361 -6.429 -12.661 -6.624 -19.287 -6.331 0.39 -4.676 0.78 -18.118 -8.085 -20.261 -6.039 -1.461 -12.663 4.48 -15 10.033 -3.9 -4.578 -15.585 -16.95 -26.105 -12.079a9.662 9.662 0 0 0 -5.065 11.3c-13.54 -15.78 -43.542 -14.124 -31.853 10.423 -10.813 1.46 -15.976 6.72 -15.392 13.636 0.39 4.773 3.41 9.449 10.521 11.3 -2.825 2.63 -4.676 7.305 -2.631 7.6 0.683 0.1 1.267 -0.584 1.462 -1.169 2.532 -6.039 8.182 -8.279 4.675 -8.376 -2.727 -0.1 -11.3 -1.656 -11.591 -10.228 -0.2 -8.572 10.325 -9.644 14.319 -10.326 2.338 -0.389 0.974 -1.266 -1.266 -9.351 -1.559 -5.747 1.071 -8.962 4.578 -10.423 11.007 -4.773 25.034 6.624 29.612 12.858 1.559 2.046 2.435 0.1 0.779 -4.773 -1.266 -3.6 -1.071 -7.987 2.922 -10.033 10.521 -5.26 24.255 12.468 24.45 12.663 1.364 1.656 2.045 -0.876 3.994 -4.188 2.24 -3.9 6.039 -7.209 11.007 -6.332 4.968 0.974 6.526 7.5 6.429 12.955 0 5.748 -0.39 7.306 2.143 7.209 6.916 -0.195 15.78 0.292 16.657 4.286 1.266 6.039 -7.793 8.864 -8.28 9.156 -4.188 2.143 12.955 7.306 12.76 16.949 -0.194 9.254 -15.877 9.546 -13.052 12.663 7.013 7.7 1.558 16.657 3.8 15.976 2.825 -0.877 3.506 -11.787 -0.877 -16.073 17.455 -5.261 16.221 -20.106 0.681 -28.154Z" fill="#001434" stroke-width="1"></path>
    <path d="M168.842 94.42c5.942 -5.552 8.767 -19.676 2.63 -25.034 -1.754 -1.558 -4.676 -2.045 -7.891 -2.142 -3.993 -0.2 -3.9 -3.117 -3.506 -6.04 0.585 -4.286 0.523 -6.858 -1.559 -8.766 -1.627 -1.493 -4.383 -1.754 -7.3 -0.975 -8.67 2.338 -10.131 -3.9 -16.073 -4.48 -5.357 -0.585 -9.059 5.552 -15 1.46 -7.5 -5.162 -11.3 2.241 -15.294 4 -3.311 1.461 -8.961 1.655 -11.2 3.993 -1.948 2.046 -2.727 4.676 -2.24 9.059 0.292 2.727 2.24 3.312 2.143 1.754 -0.39 -5.65 0.389 -7.7 1.851 -9.254 2.337 -2.533 5.941 -1.948 10.325 -3.605 3.409 -1.363 5.455 -5.162 8.767 -5.552 3.7 -0.487 5.844 3.312 9.838 3.41 4.968 0 6.916 -3.507 10.812 -2.825 6.04 0.974 7.014 7.013 16.852 4.481 10.91 -2.825 2.24 10.52 7.306 14.416 4.968 3.7 11.884 -1.071 13.247 8.085 1.072 7.306 -3.8 17.046 -7.793 17.923 -8.766 2.046 -21.527 12.371 -30.391 13.93 -9.059 1.558 -15.585 3.312 -19.092 2.629 -3.409 -0.584 -6.916 -1.071 -9.449 -0.1 2.818 -15.687 -15.689 -40.816 -31.859 -38.575 -29.807 4.188 -7.4 49.288 14.611 50.944a10.882 10.882 0 0 0 2.045 17.534c2.046 5.844 7.7 17.923 23.671 17.728 18.508 -0.1 32.826 -2.533 35.262 -3.214 8.182 -2.143 22.111 -7.5 19.287 -8.67 -1.656 -0.682 -2.825 1.559 -19.093 5.942 -4.383 1.169 -16.851 2.922 -33.6 3.507 -6.819 0.292 -11.787 -1.656 -15.391 -4.481 6.624 -0.1 5.942 -2.435 5.358 -2.727 -0.974 -0.39 -3.215 0.389 -8.085 0.1a25.215 25.215 0 0 1 -4.384 -7.014 14.518 14.518 0 0 0 6.527 0.1c1.461 -0.584 0.779 -1.753 -0.1 -1.851 -6.721 -0.292 -11.786 -2.825 -12.566 -7.6 -0.681 -4.578 1.364 -7.793 6.04 -9.545 3.117 6.136 4.578 6.526 7.111 6.623 2.629 0.1 8.085 -4.383 6.916 -5.552a0.957 0.957 0 0 0 -1.364 0.195c-1.618 2.075 -5.844 4.675 -7.695 2.435a26.074 26.074 0 0 1 -3.117 -4.578c4.578 -1.461 6.916 -4.579 9.156 -7.5 1.169 -1.559 2.922 -2.825 10.228 -1.364 3.8 0.78 13.442 -1.363 22.111 -3.117 7.6 -1.558 19.969 -11.494 27.665 -13.15 8.767 -1.851 16.559 8.67 20.845 14.9 1.266 1.753 3.117 1.948 2.728 0.779 -2.049 -5.552 -12.374 -17.924 -19.29 -18.216Zm-75.1 26.3c-20.359 5.65 -48.12 -41.5 -19.677 -45.685 18.019 -2.726 44.416 36.919 19.675 45.686Z" fill="#001434" stroke-width="1"></path>
  </g>
</svg>