<svg viewBox="0 0 100 100" xmlns="http://www.w3.org/2000/svg" id="Planing-Process--Streamline-Ux">
  <desc>
    Planing Process Streamline Illustration: https://streamlinehq.com
  </desc>
  <path d="M30.2 54.8 5 54.8 9.8 50 5 45.2l25.2 0L35 50l-4.8 4.8z" fill="none" stroke="#020064" stroke-linecap="round" stroke-linejoin="round" stroke-width="1"></path>
  <path d="m60.2 54.8 -25.2 0 4.8 -4.8 -4.8 -4.8 25.2 0L65 50l-4.8 4.8z" fill="none" stroke="#020064" stroke-linecap="round" stroke-linejoin="round" stroke-width="1"></path>
  <path d="m90.2 54.8 -25.2 0 4.8 -4.8 -4.8 -4.8 25.2 0L95 50l-4.8 4.8z" fill="none" stroke="#020064" stroke-linecap="round" stroke-linejoin="round" stroke-width="1"></path>
  <path d="M6.2 23.9a15.6 15.6 0 1 0 31.2 0 15.6 15.6 0 1 0 -31.2 0Z" fill="none" stroke="#020064" stroke-linecap="round" stroke-linejoin="round" stroke-width="1"></path>
  <path d="m21.8 39.5 0 5.7" fill="none" stroke="#020064" stroke-linecap="round" stroke-linejoin="round" stroke-width="1"></path>
  <path d="M57.8 24.2a15.6 15.6 0 1 0 31.2 0 15.6 15.6 0 1 0 -31.2 0Z" fill="none" stroke="#020064" stroke-linecap="round" stroke-linejoin="round" stroke-width="1"></path>
  <path d="m73.4 39.8 0 5.4" fill="none" stroke="#020064" stroke-linecap="round" stroke-linejoin="round" stroke-width="1"></path>
  <path d="M33.8 76.1a15.6 15.6 0 1 0 31.2 0 15.6 15.6 0 1 0 -31.2 0Z" fill="none" stroke="#020064" stroke-linecap="round" stroke-linejoin="round" stroke-width="1"></path>
  <path d="m49.4 54.8 0 6" fill="none" stroke="#020064" stroke-linecap="round" stroke-linejoin="round" stroke-width="1"></path>
  <path d="M55.782 74.682a6.382 6.382 0 1 0 -11.264 4.108 5.669 5.669 0 0 1 1.337 3.654v0.747h7.09v-0.747a5.658 5.658 0 0 1 1.337 -3.654 6.35 6.35 0 0 0 1.5 -4.108Z" fill="none" stroke="#020064" stroke-linecap="round" stroke-linejoin="round" stroke-width="1"></path>
  <path d="M51.527 86.027h-4.254a1.418 1.418 0 0 1 -1.418 -1.418v-1.418h7.09v1.418a1.418 1.418 0 0 1 -1.418 1.418Z" fill="none" stroke="#020064" stroke-linecap="round" stroke-linejoin="round" stroke-width="1"></path>
  <path d="M51.527 86.736a2.127 2.127 0 1 1 -4.254 0v-0.709h4.254Z" fill="none" stroke="#020064" stroke-linecap="round" stroke-linejoin="round" stroke-width="1"></path>
  <path d="m49.4 65.464 0 -1.419" fill="none" stroke="#020064" stroke-linecap="round" stroke-linejoin="round" stroke-width="1"></path>
  <path d="m55.918 68.164 1.003 -1.003" fill="none" stroke="#020064" stroke-linecap="round" stroke-linejoin="round" stroke-width="1"></path>
  <path d="m58.618 74.682 1.418 0" fill="none" stroke="#020064" stroke-linecap="round" stroke-linejoin="round" stroke-width="1"></path>
  <path d="m42.882 68.164 -1.003 -1.003" fill="none" stroke="#020064" stroke-linecap="round" stroke-linejoin="round" stroke-width="1"></path>
  <path d="m40.182 74.682 -1.418 0" fill="none" stroke="#020064" stroke-linecap="round" stroke-linejoin="round" stroke-width="1"></path>
  <path d="M62.055 24.2a11.345 11.345 0 1 0 22.69 0 11.345 11.345 0 1 0 -22.69 0Z" fill="none" stroke="#020064" stroke-linecap="round" stroke-linejoin="round" stroke-width="1"></path>
  <path d="M76.52 21.079a3.12 3.12 0 0 0 -3.12 -3.119h-0.228a2.892 2.892 0 0 0 -1.293 5.479l3.042 1.521a2.893 2.893 0 0 1 -1.293 5.48H73.4a3.12 3.12 0 0 1 -3.12 -3.12" fill="none" stroke="#020064" stroke-linecap="round" stroke-linejoin="round" stroke-width="1"></path>
  <path d="m73.4 17.96 0 -1.56" fill="none" stroke="#020064" stroke-linecap="round" stroke-linejoin="round" stroke-width="1"></path>
  <path d="m73.4 32 0 -1.56" fill="none" stroke="#020064" stroke-linecap="round" stroke-linejoin="round" stroke-width="1"></path>
  <path d="m21.8 17.765 -7.091 4.364 0 10.28 14.182 0 0 -10.28 -7.091 -4.364z" fill="none" stroke="#020064" stroke-linecap="round" stroke-linejoin="round" stroke-width="1"></path>
  <path d="M31.017 23.191a1.411 1.411 0 0 1 -0.742 -0.211L21.8 17.765l-8.474 5.215a1.418 1.418 0 1 1 -1.488 -2.415l9.218 -5.673a1.427 1.427 0 0 1 1.488 0l9.218 5.673a1.418 1.418 0 0 1 -0.745 2.626Z" fill="none" stroke="#020064" stroke-linecap="round" stroke-linejoin="round" stroke-width="1"></path>
  <path d="M23.927 32.409h-4.254v-4.964a2.127 2.127 0 0 1 4.254 0Z" fill="none" stroke="#020064" stroke-linecap="round" stroke-linejoin="round" stroke-width="1"></path>
</svg>