<svg viewBox="0 0 100 100" xmlns="http://www.w3.org/2000/svg" id="Idea-Plan--Streamline-Ux">
  <desc>
    Idea Plan Streamline Illustration: https://streamlinehq.com
  </desc>
  <path d="M10 55.005a40 40 0 1 0 80 0 40 40 0 1 0 -80 0Z" fill="#d9edff" stroke-width="1"></path>
  <path d="M74.205 64.554V61.6a2.828 2.828 0 0 0 -2.828 -2.828H28.762a2.828 2.828 0 0 0 -2.828 2.828v2.8" fill="none" stroke="#020064" stroke-linecap="round" stroke-linejoin="round" stroke-width="1"></path>
  <path d="m50.538 54.649 0 10.758" fill="none" stroke="#020064" stroke-linecap="round" stroke-linejoin="round" stroke-width="1"></path>
  <path d="m40.172 65.407 19.796 0 0 19.796 -19.796 0Z" fill="#ffffff" stroke-width="1"></path>
  <path d="m40.172 65.407 19.796 0 0 19.796 -19.796 0Z" fill="none" stroke="#020064" stroke-linecap="round" stroke-linejoin="round" stroke-width="1"></path>
  <path d="M15.93 74.395a10.004 10.004 0 1 0 20.008 0 10.004 10.004 0 1 0 -20.008 0Z" fill="#ffffff" stroke-width="1"></path>
  <path d="M15.93 74.395a10.004 10.004 0 1 0 20.008 0 10.004 10.004 0 1 0 -20.008 0Z" fill="none" stroke="#020064" stroke-linecap="round" stroke-linejoin="round" stroke-width="1"></path>
  <path d="M84.425 83.02a0.942 0.942 0 0 1 -0.836 1.379H64.821a0.943 0.943 0 0 1 -0.836 -1.379l9.385 -17.96a0.943 0.943 0 0 1 1.671 0Z" fill="#ffffff" stroke-width="1"></path>
  <path d="M84.425 83.02a0.942 0.942 0 0 1 -0.836 1.379H64.821a0.943 0.943 0 0 1 -0.836 -1.379l9.385 -17.96a0.943 0.943 0 0 1 1.671 0Z" fill="none" stroke="#020064" stroke-linecap="round" stroke-linejoin="round" stroke-width="1"></path>
  <path d="M62.413 28.156a11.356 11.356 0 1 0 -22.712 0 11.175 11.175 0 0 0 2.709 7.306 13.561 13.561 0 0 1 3.268 8.832h10.758a13.573 13.573 0 0 1 3.264 -8.832 11.17 11.17 0 0 0 2.713 -7.306Z" fill="#ffffff" stroke-width="1"></path>
  <path d="M55.241 47.662h-8.367v3.115a4.184 4.184 0 0 0 8.367 0Z" fill="#b0d9ff" stroke="#020064" stroke-linecap="round" stroke-linejoin="round" stroke-width="1"></path>
  <path d="M62.413 28.156a11.356 11.356 0 1 0 -22.712 0 11.175 11.175 0 0 0 2.709 7.306 13.561 13.561 0 0 1 3.268 8.832h10.758a13.573 13.573 0 0 1 3.264 -8.832 11.17 11.17 0 0 0 2.713 -7.306Z" fill="none" stroke="#020064" stroke-linecap="round" stroke-linejoin="round" stroke-width="1"></path>
  <path d="M58.026 45.518a2.143 2.143 0 0 1 -2.144 2.144h-9.649a2.144 2.144 0 1 1 0 -4.288h9.649a2.144 2.144 0 0 1 2.144 2.144Z" fill="#b0d9ff" stroke="#020064" stroke-linecap="round" stroke-linejoin="round" stroke-width="1"></path>
  <path d="M58.026 45.518a2.143 2.143 0 0 1 -2.144 2.144h-9.649a2.144 2.144 0 1 1 0 -4.288h9.649a2.144 2.144 0 0 1 2.144 2.144Z" fill="none" stroke="#020064" stroke-linecap="round" stroke-linejoin="round" stroke-width="1"></path>
  <path d="m47.405 52.819 7.78 -1.359" fill="none" stroke="#020064" stroke-linecap="round" stroke-linejoin="round" stroke-width="1"></path>
  <path d="M55.241 47.662h-8.367v3.115a4.184 4.184 0 0 0 8.367 0Z" fill="none" stroke="#020064" stroke-linecap="round" stroke-linejoin="round" stroke-width="1"></path>
  <path d="m46.874 50.755 8.367 -1.461" fill="none" stroke="#020064" stroke-linecap="round" stroke-linejoin="round" stroke-width="1"></path>
  <path d="M50.508 11.372c-0.983 0 -2.022 -2.832 -2.022 -4.355a2.022 2.022 0 1 1 4.044 0c0 1.523 -1.039 4.355 -2.022 4.355Z" fill="#b0d9ff" stroke="#020064" stroke-linecap="round" stroke-linejoin="round" stroke-width="1"></path>
  <path d="M41.51 13.892c-0.825 0.536 -3.239 -1.274 -4.068 -2.551a2.022 2.022 0 0 1 3.392 -2.2c0.829 1.275 1.5 4.216 0.676 4.751Z" fill="#b0d9ff" stroke="#020064" stroke-linecap="round" stroke-linejoin="round" stroke-width="1"></path>
  <path d="M35.336 20.907c-0.4 0.9 -3.41 0.7 -4.8 0.076a2.022 2.022 0 1 1 1.645 -3.694c1.39 0.619 3.554 2.72 3.155 3.618Z" fill="#b0d9ff" stroke="#020064" stroke-linecap="round" stroke-linejoin="round" stroke-width="1"></path>
  <path d="M33.978 30.153c0.154 0.97 -2.481 2.44 -3.985 2.678a2.022 2.022 0 0 1 -0.633 -3.994c1.504 -0.237 4.464 0.345 4.618 1.316Z" fill="#b0d9ff" stroke="#020064" stroke-linecap="round" stroke-linejoin="round" stroke-width="1"></path>
  <path d="M37.875 38.646c0.658 0.731 -0.752 3.4 -1.883 4.417a2.022 2.022 0 1 1 -2.706 -3.005c1.131 -1.019 3.931 -2.142 4.589 -1.412Z" fill="#b0d9ff" stroke="#020064" stroke-linecap="round" stroke-linejoin="round" stroke-width="1"></path>
  <path d="M62.893 38.364c0.618 -0.764 3.473 0.211 4.657 1.169a2.022 2.022 0 0 1 -2.545 3.143c-1.184 -0.958 -2.731 -3.548 -2.112 -4.312Z" fill="#b0d9ff" stroke="#020064" stroke-linecap="round" stroke-linejoin="round" stroke-width="1"></path>
  <path d="M66.6 29.784c0.1 -0.977 3.028 -1.715 4.542 -1.555a2.022 2.022 0 0 1 -0.422 4.022c-1.52 -0.159 -4.226 -1.489 -4.12 -2.467Z" fill="#b0d9ff" stroke="#020064" stroke-linecap="round" stroke-linejoin="round" stroke-width="1"></path>
  <path d="M65.031 20.572c-0.446 -0.876 1.606 -3.088 2.962 -3.779a2.022 2.022 0 1 1 1.836 3.6c-1.356 0.695 -4.352 1.054 -4.798 0.179Z" fill="#b0d9ff" stroke="#020064" stroke-linecap="round" stroke-linejoin="round" stroke-width="1"></path>
  <path d="M58.7 13.7c-0.851 -0.491 -0.335 -3.464 0.426 -4.782a2.022 2.022 0 0 1 3.5 2.022c-0.759 1.317 -3.075 3.25 -3.926 2.76Z" fill="#b0d9ff" stroke="#020064" stroke-linecap="round" stroke-linejoin="round" stroke-width="1"></path>
</svg>