<svg viewBox="0 0 100 100" xmlns="http://www.w3.org/2000/svg" id="Design-Approved--Streamline-Ux">
  <desc>
    Design Approved Streamline Illustration: https://streamlinehq.com
  </desc>
  <path d="M8.291 50a40 40 0 1 0 80 0 40 40 0 1 0 -80 0Z" fill="#daedf7" stroke="#daedf7" stroke-width="1"></path>
  <path d="M15.147 77.856a30 2.5 0 1 0 60 0 30 2.5 0 1 0 -60 0Z" fill="#45413c" opacity=".15" stroke-width="1"></path>
  <path d="M78.876 77.323H17.653a3.113 3.113 0 0 1 -3.113 -3.113V31.666h67.449V74.21a3.113 3.113 0 0 1 -3.113 3.113Z" fill="#4acfff" stroke-width="1"></path>
  <path d="M22.841 77.323 68.5 31.666H14.54V74.21a3.113 3.113 0 0 0 3.113 3.113Z" fill="#4acfff" stroke-width="1"></path>
  <path d="M78.876 22.327H17.653a3.113 3.113 0 0 0 -3.113 3.113v6.226h67.449V25.44a3.113 3.113 0 0 0 -3.113 -3.113Z" fill="#ffffff" stroke-width="1"></path>
  <path d="M17.653 26.996a1.557 1.557 0 1 0 3.114 0 1.557 1.557 0 1 0 -3.114 0Z" fill="#ff6242" stroke="#ff6242" stroke-linecap="round" stroke-linejoin="round" stroke-width="1"></path>
  <path d="M22.841 26.996a1.557 1.557 0 1 0 3.114 0 1.557 1.557 0 1 0 -3.114 0Z" fill="#ffe500" stroke="#ffe500" stroke-linecap="round" stroke-linejoin="round" stroke-width="1"></path>
  <path d="M28.03 26.996a1.557 1.557 0 1 0 3.114 0 1.557 1.557 0 1 0 -3.114 0Z" fill="#6dd627" stroke="#6dd627" stroke-linecap="round" stroke-linejoin="round" stroke-width="1"></path>
  <path d="M78.876 77.323H17.653a3.113 3.113 0 0 1 -3.113 -3.113V31.666h67.449V74.21a3.113 3.113 0 0 1 -3.113 3.113Z" fill="none" stroke="#45413c" stroke-linecap="round" stroke-linejoin="round" stroke-width="1"></path>
  <path d="M78.876 22.327H17.653a3.113 3.113 0 0 0 -3.113 3.113v6.226h67.449V25.44a3.113 3.113 0 0 0 -3.113 -3.113Z" fill="none" stroke="#45413c" stroke-linecap="round" stroke-linejoin="round" stroke-width="1"></path>
  <path d="M46.587 59.158h30.355v12.835H46.587z" fill="#b8ecff" stroke="#00658a" stroke-linecap="round" stroke-linejoin="round" stroke-width="1"></path>
  <path d="m52.394 67.836 18.741 0" fill="none" stroke="#00658a" stroke-linecap="round" stroke-linejoin="round" stroke-width="1"></path>
  <path d="m56.485 63.316 14.65 0" fill="none" stroke="#00658a" stroke-linecap="round" stroke-linejoin="round" stroke-width="1"></path>
  <path d="M46.587 37.283h30.355v19.394H46.587z" fill="#b8ecff" stroke="#00658a" stroke-linecap="round" stroke-linejoin="round" stroke-width="1"></path>
  <path d="M19.21 37.283h23.286v34.71H19.21z" fill="#b8ecff" stroke="#00658a" stroke-linecap="round" stroke-linejoin="round" stroke-width="1"></path>
  <path d="M19.21 37.283h23.278v17.921H19.21z" fill="#b8ecff" stroke="#00658a" stroke-linecap="round" stroke-linejoin="round" stroke-width="1"></path>
  <path d="m27.4 55.2 3.777 -5.288a2.24 2.24 0 0 1 3.646 0L38.6 55.2Z" fill="#4acfff" stroke="#00658a" stroke-linecap="round" stroke-linejoin="round" stroke-width="1"></path>
  <path d="m19.88 55.2 4.928 -6.571a2.24 2.24 0 0 1 3.584 0l4.929 6.571Z" fill="#b8ecff" stroke="#00658a" stroke-linecap="round" stroke-linejoin="round" stroke-width="1"></path>
  <path d="M33.634 42.714a2.262 2.262 0 1 0 4.524 0 2.262 2.262 0 1 0 -4.524 0Z" fill="#ffffff" stroke="#00658a" stroke-linecap="round" stroke-linejoin="round" stroke-width="1"></path>
  <path d="m23.528 58.795 14.65 0" fill="none" stroke="#00658a" stroke-linecap="round" stroke-linejoin="round" stroke-width="1"></path>
  <path d="m23.528 63.316 14.65 0" fill="none" stroke="#00658a" stroke-linecap="round" stroke-linejoin="round" stroke-width="1"></path>
  <path d="m23.528 67.836 14.65 0" fill="none" stroke="#00658a" stroke-linecap="round" stroke-linejoin="round" stroke-width="1"></path>
  <path d="M61.338 50.3a5.971 5.971 0 0 0 -4.959 -9.294v5.97Z" fill="#e5f8ff" stroke="#00658a" stroke-linecap="round" stroke-linejoin="round" stroke-width="1"></path>
  <path d="M56.379 41.01a5.97 5.97 0 0 0 -4.933 9.331l4.933 -3.361Z" fill="#00aed9" stroke="#00658a" stroke-linecap="round" stroke-linejoin="round" stroke-width="1"></path>
  <path d="m56.379 46.98 -4.934 3.361a5.971 5.971 0 0 0 9.893 -0.037Z" fill="#4acfff" stroke="#00658a" stroke-linecap="round" stroke-linejoin="round" stroke-width="1"></path>
  <path d="m68.048 46.98 4.869 0" fill="none" stroke="#00658a" stroke-linecap="round" stroke-linejoin="round" stroke-width="1"></path>
  <path d="m68.048 42.481 4.869 0" fill="none" stroke="#00658a" stroke-linecap="round" stroke-linejoin="round" stroke-width="1"></path>
  <path d="m68.048 51.479 4.869 0" fill="none" stroke="#00658a" stroke-linecap="round" stroke-linejoin="round" stroke-width="1"></path>
  <path d="M59.709 69.347a16 16 0 1 0 32 0 16 16 0 1 0 -32 0Z" fill="#6dd627" stroke-width="1"></path>
  <path d="M91.479 72.069a15.981 15.981 0 0 0 -31.539 0 16 16 0 1 1 31.539 0Z" fill="#9ceb60" stroke-width="1"></path>
  <path d="M59.709 69.347a16 16 0 1 0 32 0 16 16 0 1 0 -32 0Z" fill="none" stroke="#45413c" stroke-linecap="round" stroke-linejoin="round" stroke-width="1"></path>
  <path d="M73.441 76.962a3.136 3.136 0 0 1 -2.222 -0.919l-4.189 -4.19a3.142 3.142 0 0 1 4.444 -4.442l1.967 1.967 6.506 -6.726a3.141 3.141 0 1 1 4.442 4.442l-8.727 8.949a3.132 3.132 0 0 1 -2.221 0.919Z" fill="#ffffff" stroke="#46b000" stroke-linecap="round" stroke-linejoin="round" stroke-width="1"></path>
</svg>