<svg width="438" height="659" viewBox="0 0 438 659" fill="none" xmlns="http://www.w3.org/2000/svg">
<path d="M438 397.938V568.152C438 617.858 397.706 658.152 348 658.152H116.44C126.283 628.836 136.001 603.393 145.691 581.093C163.957 539.713 181.234 502.417 226.266 466.035C270.276 430.47 335.548 404.292 404.289 399.103C415.444 398.235 426.69 397.853 438 397.938Z" fill="black"/>
<path d="M235.453 23.6982C256.626 9.48283 298.426 -2.51666 353.144 0.456004C385.3 2.20299 414.432 8.75157 438 17.6132V237.673C422.742 239.099 407.418 240.387 391.998 241.582C311.703 248.289 226.869 249.134 135.412 278.926C88.9598 293.091 41.0413 319.678 0 355.367V190.511C27.3545 212.537 63.2253 223.936 100.847 219.396C174.868 210.465 227.635 143.218 218.703 69.1962C215.173 39.938 223.235 31.9016 235.453 23.6982Z" fill="black"/>
</svg>
